<mxfile host="Electron" modified="2024-05-09T12:15:53.820Z" agent="Mozilla/5.0 (Windows NT 10.0; Win64; x64) AppleWebKit/537.36 (KHTML, like Gecko) draw.io/24.2.5 Chrome/120.0.6099.109 Electron/28.1.0 Safari/537.36" etag="SZQx3oAFZbjjZ8Br2fcf" version="24.2.5" type="device">
  <diagram name="Seite-1" id="2bVFlMo_yWUk7g-A-zW4">
    <mxGraphModel dx="1728" dy="997" grid="1" gridSize="10" guides="1" tooltips="1" connect="1" arrows="1" fold="1" page="1" pageScale="1" pageWidth="827" pageHeight="1169" math="0" shadow="0">
      <root>
        <mxCell id="0" />
        <mxCell id="1" parent="0" />
        <mxCell id="hYY0lve6t6Fw66yw0f11-3" value="" style="shape=image;verticalLabelPosition=bottom;labelBackgroundColor=default;verticalAlign=top;aspect=fixed;imageAspect=0;image=data:image/svg+xml,PHN2ZyB4bWxucz0iaHR0cDovL3d3dy53My5vcmcvMjAwMC9zdmciIHhtbG5zOnhsaW5rPSJodHRwOi8vd3d3LnczLm9yZy8xOTk5L3hsaW5rIiB2ZXJzaW9uPSIxLjEiIHZpZXdCb3g9IjAgMCA4MzAuMTYgNzUzLjg0IiBoZWlnaHQ9Ijc1My44NHB0IiB3aWR0aD0iODMwLjE2cHQiPiYjeGE7IDxtZXRhZGF0YT4mI3hhOyAgJiN4YTsgICAmI3hhOyAgICAmI3hhOyAgICAyMDI0LTA1LTA5VDE0OjE1OjE3LjgzNDI4NyYjeGE7ICAgIGltYWdlL3N2Zyt4bWwmI3hhOyAgICAmI3hhOyAgICAgJiN4YTsgICAgICBNYXRwbG90bGliIHYzLjguNCwgaHR0cHM6Ly9tYXRwbG90bGliLm9yZy8mI3hhOyAgICAgJiN4YTsgICAgJiN4YTsgICAmI3hhOyAgJiN4YTsgPC9tZXRhZGF0YT4mI3hhOyA8ZGVmcz4mI3hhOyAgPHN0eWxlIHR5cGU9InRleHQvY3NzIj4qe3N0cm9rZS1saW5lam9pbjogcm91bmQ7IHN0cm9rZS1saW5lY2FwOiBidXR0fTwvc3R5bGU+JiN4YTsgPC9kZWZzPiYjeGE7IDxnIGlkPSJmaWd1cmVfMSI+JiN4YTsgIDxnIGlkPSJwYXRjaF8xIj4mI3hhOyAgIDxwYXRoIHN0eWxlPSJmaWxsOiAjZmZmZmZmIiBkPSJNIDAgNzUzLjg0ICYjMTA7TCA4MzAuMTYgNzUzLjg0ICYjMTA7TCA4MzAuMTYgMCAmIzEwO0wgMCAwICYjMTA7eiIvPiYjeGE7ICA8L2c+JiN4YTsgIDxnIGlkPSJheGVzXzEiPiYjeGE7ICAgPGcgaWQ9InBhdGNoXzIiPiYjeGE7ICAgIDxwYXRoIHN0eWxlPSJmaWxsOiAjZmZmZmZmIiBkPSJNIDg0LjY3NjMyIDIyMy4xMjc5MSAmIzEwO0wgODE5LjM2NzkyIDIyMy4xMjc5MSAmIzEwO0wgODE5LjM2NzkyIDI3LjEzODI0ICYjMTA7TCA4NC42NzYzMiAyNy4xMzgyNCAmIzEwO3oiLz4mI3hhOyAgIDwvZz4mI3hhOyAgIDxnIGlkPSJtYXRwbG90bGliLmF4aXNfMSI+JiN4YTsgICAgPGcgaWQ9Inh0aWNrXzEiPiYjeGE7ICAgICA8ZyBpZD0ibGluZTJkXzEiPiYjeGE7ICAgICAgPHBhdGggc3R5bGU9ImZpbGw6IG5vbmU7IHN0cm9rZTogI2IwYjBiMDsgc3Ryb2tlLXdpZHRoOiAwLjg7IHN0cm9rZS1saW5lY2FwOiBzcXVhcmUiIGNsaXAtcGF0aD0idXJsKCNwZDU2MzhmOWQxMykiIGQ9Ik0gMTE4LjA3MTM5MyAyMjMuMTI3OTEgJiMxMDtMIDExOC4wNzEzOTMgMjcuMTM4MjQiLz4mI3hhOyAgICAgPC9nPiYjeGE7ICAgICA8ZyBpZD0ibGluZTJkXzIiPiYjeGE7ICAgICAgPGRlZnM+JiN4YTsgICAgICAgPHBhdGggc3R5bGU9InN0cm9rZTogIzAwMDAwMDsgc3Ryb2tlLXdpZHRoOiAwLjgiIGQ9Ik0gMCAwICYjMTA7TCAwIDMuNSIgaWQ9Im1lOGY4MzY4OGFjIi8+JiN4YTsgICAgICA8L2RlZnM+JiN4YTsgICAgICA8Zz4mI3hhOyAgICAgICA8dXNlIHN0eWxlPSJzdHJva2U6ICMwMDAwMDA7IHN0cm9rZS13aWR0aDogMC44IiB5PSIyMjMuMTI3OTEiIHg9IjExOC4wNzEzOTMiIHhsaW5rOmhyZWY9IiNtZThmODM2ODhhYyIvPiYjeGE7ICAgICAgPC9nPiYjeGE7ICAgICA8L2c+JiN4YTsgICAgIDxnIGlkPSJ0ZXh0XzEiPiYjeGE7ICAgICAgJiN4YTsgICAgICA8ZyB0cmFuc2Zvcm09InRyYW5zbGF0ZSgxMTQuODkwMTQzIDIzNy43MjYzNDcpIHNjYWxlKDAuMSAtMC4xKSI+JiN4YTsgICAgICAgPGRlZnM+JiN4YTsgICAgICAgIDxwYXRoIHRyYW5zZm9ybT0ic2NhbGUoMC4wMTU2MjUpIiBkPSJNIDIwMzQgNDI1MCAmIzEwO1EgMTU0NyA0MjUwIDEzMDEgMzc3MCAmIzEwO1EgMTA1NiAzMjkxIDEwNTYgMjMyOCAmIzEwO1EgMTA1NiAxMzY5IDEzMDEgODg5ICYjMTA7USAxNTQ3IDQwOSAyMDM0IDQwOSAmIzEwO1EgMjUyNSA0MDkgMjc3MCA4ODkgJiMxMDtRIDMwMTYgMTM2OSAzMDE2IDIzMjggJiMxMDtRIDMwMTYgMzI5MSAyNzcwIDM3NzAgJiMxMDtRIDI1MjUgNDI1MCAyMDM0IDQyNTAgJiMxMDt6JiMxMDtNIDIwMzQgNDc1MCAmIzEwO1EgMjgxOSA0NzUwIDMyMzMgNDEyOSAmIzEwO1EgMzY0NyAzNTA5IDM2NDcgMjMyOCAmIzEwO1EgMzY0NyAxMTUwIDMyMzMgNTI5ICYjMTA7USAyODE5IC05MSAyMDM0IC05MSAmIzEwO1EgMTI1MCAtOTEgODM2IDUyOSAmIzEwO1EgNDIyIDExNTAgNDIyIDIzMjggJiMxMDtRIDQyMiAzNTA5IDgzNiA0MTI5ICYjMTA7USAxMjUwIDQ3NTAgMjAzNCA0NzUwICYjMTA7eiIgaWQ9IkRlamFWdVNhbnMtMzAiLz4mI3hhOyAgICAgICA8L2RlZnM+JiN4YTsgICAgICAgPHVzZSB4bGluazpocmVmPSIjRGVqYVZ1U2Fucy0zMCIvPiYjeGE7ICAgICAgPC9nPiYjeGE7ICAgICA8L2c+JiN4YTsgICAgPC9nPiYjeGE7ICAgIDxnIGlkPSJ4dGlja18yIj4mI3hhOyAgICAgPGcgaWQ9ImxpbmUyZF8zIj4mI3hhOyAgICAgIDxwYXRoIHN0eWxlPSJmaWxsOiBub25lOyBzdHJva2U6ICNiMGIwYjA7IHN0cm9rZS13aWR0aDogMC44OyBzdHJva2UtbGluZWNhcDogc3F1YXJlIiBjbGlwLXBhdGg9InVybCgjcGQ1NjM4ZjlkMTMpIiBkPSJNIDIxMy4zNjMyNDUgMjIzLjEyNzkxICYjMTA7TCAyMTMuMzYzMjQ1IDI3LjEzODI0Ii8+JiN4YTsgICAgIDwvZz4mI3hhOyAgICAgPGcgaWQ9ImxpbmUyZF80Ij4mI3hhOyAgICAgIDxnPiYjeGE7ICAgICAgIDx1c2Ugc3R5bGU9InN0cm9rZTogIzAwMDAwMDsgc3Ryb2tlLXdpZHRoOiAwLjgiIHk9IjIyMy4xMjc5MSIgeD0iMjEzLjM2MzI0NSIgeGxpbms6aHJlZj0iI21lOGY4MzY4OGFjIi8+JiN4YTsgICAgICA8L2c+JiN4YTsgICAgIDwvZz4mI3hhOyAgICAgPGcgaWQ9InRleHRfMiI+JiN4YTsgICAgICAmI3hhOyAgICAgIDxnIHRyYW5zZm9ybT0idHJhbnNsYXRlKDIxMC4xODE5OTUgMjM3LjcyNjM0Nykgc2NhbGUoMC4xIC0wLjEpIj4mI3hhOyAgICAgICA8ZGVmcz4mI3hhOyAgICAgICAgPHBhdGggdHJhbnNmb3JtPSJzY2FsZSgwLjAxNTYyNSkiIGQ9Ik0gNjkxIDQ2NjYgJiMxMDtMIDMxNjkgNDY2NiAmIzEwO0wgMzE2OSA0MTM0ICYjMTA7TCAxMjY5IDQxMzQgJiMxMDtMIDEyNjkgMjk5MSAmIzEwO1EgMTQwNiAzMDM4IDE1NDMgMzA2MSAmIzEwO1EgMTY4MSAzMDg0IDE4MTkgMzA4NCAmIzEwO1EgMjYwMCAzMDg0IDMwNTYgMjY1NiAmIzEwO1EgMzUxMyAyMjI4IDM1MTMgMTQ5NyAmIzEwO1EgMzUxMyA3NDQgMzA0NCAzMjYgJiMxMDtRIDI1NzUgLTkxIDE3MjIgLTkxICYjMTA7USAxNDI4IC05MSAxMTIzIC00MSAmIzEwO1EgODE5IDkgNDk0IDEwOSAmIzEwO0wgNDk0IDc0NCAmIzEwO1EgNzc1IDU5MSAxMDc1IDUxNiAmIzEwO1EgMTM3NSA0NDEgMTcwOSA0NDEgJiMxMDtRIDIyNTAgNDQxIDI1NjUgNzI1ICYjMTA7USAyODgxIDEwMDkgMjg4MSAxNDk3ICYjMTA7USAyODgxIDE5ODQgMjU2NSAyMjY4ICYjMTA7USAyMjUwIDI1NTMgMTcwOSAyNTUzICYjMTA7USAxNDU2IDI1NTMgMTIwNCAyNDk3ICYjMTA7USA5NTMgMjQ0MSA2OTEgMjMyMiAmIzEwO0wgNjkxIDQ2NjYgJiMxMDt6IiBpZD0iRGVqYVZ1U2Fucy0zNSIvPiYjeGE7ICAgICAgIDwvZGVmcz4mI3hhOyAgICAgICA8dXNlIHhsaW5rOmhyZWY9IiNEZWphVnVTYW5zLTM1Ii8+JiN4YTsgICAgICA8L2c+JiN4YTsgICAgIDwvZz4mI3hhOyAgICA8L2c+JiN4YTsgICAgPGcgaWQ9Inh0aWNrXzMiPiYjeGE7ICAgICA8ZyBpZD0ibGluZTJkXzUiPiYjeGE7ICAgICAgPHBhdGggc3R5bGU9ImZpbGw6IG5vbmU7IHN0cm9rZTogI2IwYjBiMDsgc3Ryb2tlLXdpZHRoOiAwLjg7IHN0cm9rZS1saW5lY2FwOiBzcXVhcmUiIGNsaXAtcGF0aD0idXJsKCNwZDU2MzhmOWQxMykiIGQ9Ik0gMzA4LjY1NTA5OCAyMjMuMTI3OTEgJiMxMDtMIDMwOC42NTUwOTggMjcuMTM4MjQiLz4mI3hhOyAgICAgPC9nPiYjeGE7ICAgICA8ZyBpZD0ibGluZTJkXzYiPiYjeGE7ICAgICAgPGc+JiN4YTsgICAgICAgPHVzZSBzdHlsZT0ic3Ryb2tlOiAjMDAwMDAwOyBzdHJva2Utd2lkdGg6IDAuOCIgeT0iMjIzLjEyNzkxIiB4PSIzMDguNjU1MDk4IiB4bGluazpocmVmPSIjbWU4ZjgzNjg4YWMiLz4mI3hhOyAgICAgIDwvZz4mI3hhOyAgICAgPC9nPiYjeGE7ICAgICA8ZyBpZD0idGV4dF8zIj4mI3hhOyAgICAgICYjeGE7ICAgICAgPGcgdHJhbnNmb3JtPSJ0cmFuc2xhdGUoMzAyLjI5MjU5OCAyMzcuNzI2MzQ3KSBzY2FsZSgwLjEgLTAuMSkiPiYjeGE7ICAgICAgIDxkZWZzPiYjeGE7ICAgICAgICA8cGF0aCB0cmFuc2Zvcm09InNjYWxlKDAuMDE1NjI1KSIgZD0iTSA3OTQgNTMxICYjMTA7TCAxODI1IDUzMSAmIzEwO0wgMTgyNSA0MDkxICYjMTA7TCA3MDMgMzg2NiAmIzEwO0wgNzAzIDQ0NDEgJiMxMDtMIDE4MTkgNDY2NiAmIzEwO0wgMjQ1MCA0NjY2ICYjMTA7TCAyNDUwIDUzMSAmIzEwO0wgMzQ4MSA1MzEgJiMxMDtMIDM0ODEgMCAmIzEwO0wgNzk0IDAgJiMxMDtMIDc5NCA1MzEgJiMxMDt6IiBpZD0iRGVqYVZ1U2Fucy0zMSIvPiYjeGE7ICAgICAgIDwvZGVmcz4mI3hhOyAgICAgICA8dXNlIHhsaW5rOmhyZWY9IiNEZWphVnVTYW5zLTMxIi8+JiN4YTsgICAgICAgPHVzZSB4PSI2My42MjMwNDciIHhsaW5rOmhyZWY9IiNEZWphVnVTYW5zLTMwIi8+JiN4YTsgICAgICA8L2c+JiN4YTsgICAgIDwvZz4mI3hhOyAgICA8L2c+JiN4YTsgICAgPGcgaWQ9Inh0aWNrXzQiPiYjeGE7ICAgICA8ZyBpZD0ibGluZTJkXzciPiYjeGE7ICAgICAgPHBhdGggc3R5bGU9ImZpbGw6IG5vbmU7IHN0cm9rZTogI2IwYjBiMDsgc3Ryb2tlLXdpZHRoOiAwLjg7IHN0cm9rZS1saW5lY2FwOiBzcXVhcmUiIGNsaXAtcGF0aD0idXJsKCNwZDU2MzhmOWQxMykiIGQ9Ik0gNDAzLjk0Njk1MSAyMjMuMTI3OTEgJiMxMDtMIDQwMy45NDY5NTEgMjcuMTM4MjQiLz4mI3hhOyAgICAgPC9nPiYjeGE7ICAgICA8ZyBpZD0ibGluZTJkXzgiPiYjeGE7ICAgICAgPGc+JiN4YTsgICAgICAgPHVzZSBzdHlsZT0ic3Ryb2tlOiAjMDAwMDAwOyBzdHJva2Utd2lkdGg6IDAuOCIgeT0iMjIzLjEyNzkxIiB4PSI0MDMuOTQ2OTUxIiB4bGluazpocmVmPSIjbWU4ZjgzNjg4YWMiLz4mI3hhOyAgICAgIDwvZz4mI3hhOyAgICAgPC9nPiYjeGE7ICAgICA8ZyBpZD0idGV4dF80Ij4mI3hhOyAgICAgICYjeGE7ICAgICAgPGcgdHJhbnNmb3JtPSJ0cmFuc2xhdGUoMzk3LjU4NDQ1MSAyMzcuNzI2MzQ3KSBzY2FsZSgwLjEgLTAuMSkiPiYjeGE7ICAgICAgIDx1c2UgeGxpbms6aHJlZj0iI0RlamFWdVNhbnMtMzEiLz4mI3hhOyAgICAgICA8dXNlIHg9IjYzLjYyMzA0NyIgeGxpbms6aHJlZj0iI0RlamFWdVNhbnMtMzUiLz4mI3hhOyAgICAgIDwvZz4mI3hhOyAgICAgPC9nPiYjeGE7ICAgIDwvZz4mI3hhOyAgICA8ZyBpZD0ieHRpY2tfNSI+JiN4YTsgICAgIDxnIGlkPSJsaW5lMmRfOSI+JiN4YTsgICAgICA8cGF0aCBzdHlsZT0iZmlsbDogbm9uZTsgc3Ryb2tlOiAjYjBiMGIwOyBzdHJva2Utd2lkdGg6IDAuODsgc3Ryb2tlLWxpbmVjYXA6IHNxdWFyZSIgY2xpcC1wYXRoPSJ1cmwoI3BkNTYzOGY5ZDEzKSIgZD0iTSA0OTkuMjM4ODA0IDIyMy4xMjc5MSAmIzEwO0wgNDk5LjIzODgwNCAyNy4xMzgyNCIvPiYjeGE7ICAgICA8L2c+JiN4YTsgICAgIDxnIGlkPSJsaW5lMmRfMTAiPiYjeGE7ICAgICAgPGc+JiN4YTsgICAgICAgPHVzZSBzdHlsZT0ic3Ryb2tlOiAjMDAwMDAwOyBzdHJva2Utd2lkdGg6IDAuOCIgeT0iMjIzLjEyNzkxIiB4PSI0OTkuMjM4ODA0IiB4bGluazpocmVmPSIjbWU4ZjgzNjg4YWMiLz4mI3hhOyAgICAgIDwvZz4mI3hhOyAgICAgPC9nPiYjeGE7ICAgICA8ZyBpZD0idGV4dF81Ij4mI3hhOyAgICAgICYjeGE7ICAgICAgPGcgdHJhbnNmb3JtPSJ0cmFuc2xhdGUoNDkyLjg3NjMwNCAyMzcuNzI2MzQ3KSBzY2FsZSgwLjEgLTAuMSkiPiYjeGE7ICAgICAgIDxkZWZzPiYjeGE7ICAgICAgICA8cGF0aCB0cmFuc2Zvcm09InNjYWxlKDAuMDE1NjI1KSIgZD0iTSAxMjI4IDUzMSAmIzEwO0wgMzQzMSA1MzEgJiMxMDtMIDM0MzEgMCAmIzEwO0wgNDY5IDAgJiMxMDtMIDQ2OSA1MzEgJiMxMDtRIDgyOCA5MDMgMTQ0OCAxNTI5ICYjMTA7USAyMDY5IDIxNTYgMjIyOCAyMzM4ICYjMTA7USAyNTMxIDI2NzggMjY1MSAyOTE0ICYjMTA7USAyNzcyIDMxNTAgMjc3MiAzMzc4ICYjMTA7USAyNzcyIDM3NTAgMjUxMSAzOTg0ICYjMTA7USAyMjUwIDQyMTkgMTgzMSA0MjE5ICYjMTA7USAxNTM0IDQyMTkgMTIwNCA0MTE2ICYjMTA7USA4NzUgNDAxMyA1MDAgMzgwMyAmIzEwO0wgNTAwIDQ0NDEgJiMxMDtRIDg4MSA0NTk0IDEyMTIgNDY3MiAmIzEwO1EgMTU0NCA0NzUwIDE4MTkgNDc1MCAmIzEwO1EgMjU0NCA0NzUwIDI5NzUgNDM4NyAmIzEwO1EgMzQwNiA0MDI1IDM0MDYgMzQxOSAmIzEwO1EgMzQwNiAzMTMxIDMyOTggMjg3MyAmIzEwO1EgMzE5MSAyNjE2IDI5MDYgMjI2NiAmIzEwO1EgMjgyOCAyMTc1IDI0MDkgMTc0MiAmIzEwO1EgMTk5MSAxMzA5IDEyMjggNTMxICYjMTA7eiIgaWQ9IkRlamFWdVNhbnMtMzIiLz4mI3hhOyAgICAgICA8L2RlZnM+JiN4YTsgICAgICAgPHVzZSB4bGluazpocmVmPSIjRGVqYVZ1U2Fucy0zMiIvPiYjeGE7ICAgICAgIDx1c2UgeD0iNjMuNjIzMDQ3IiB4bGluazpocmVmPSIjRGVqYVZ1U2Fucy0zMCIvPiYjeGE7ICAgICAgPC9nPiYjeGE7ICAgICA8L2c+JiN4YTsgICAgPC9nPiYjeGE7ICAgIDxnIGlkPSJ4dGlja182Ij4mI3hhOyAgICAgPGcgaWQ9ImxpbmUyZF8xMSI+JiN4YTsgICAgICA8cGF0aCBzdHlsZT0iZmlsbDogbm9uZTsgc3Ryb2tlOiAjYjBiMGIwOyBzdHJva2Utd2lkdGg6IDAuODsgc3Ryb2tlLWxpbmVjYXA6IHNxdWFyZSIgY2xpcC1wYXRoPSJ1cmwoI3BkNTYzOGY5ZDEzKSIgZD0iTSA1OTQuNTMwNjU3IDIyMy4xMjc5MSAmIzEwO0wgNTk0LjUzMDY1NyAyNy4xMzgyNCIvPiYjeGE7ICAgICA8L2c+JiN4YTsgICAgIDxnIGlkPSJsaW5lMmRfMTIiPiYjeGE7ICAgICAgPGc+JiN4YTsgICAgICAgPHVzZSBzdHlsZT0ic3Ryb2tlOiAjMDAwMDAwOyBzdHJva2Utd2lkdGg6IDAuOCIgeT0iMjIzLjEyNzkxIiB4PSI1OTQuNTMwNjU3IiB4bGluazpocmVmPSIjbWU4ZjgzNjg4YWMiLz4mI3hhOyAgICAgIDwvZz4mI3hhOyAgICAgPC9nPiYjeGE7ICAgICA8ZyBpZD0idGV4dF82Ij4mI3hhOyAgICAgICYjeGE7ICAgICAgPGcgdHJhbnNmb3JtPSJ0cmFuc2xhdGUoNTg4LjE2ODE1NyAyMzcuNzI2MzQ3KSBzY2FsZSgwLjEgLTAuMSkiPiYjeGE7ICAgICAgIDx1c2UgeGxpbms6aHJlZj0iI0RlamFWdVNhbnMtMzIiLz4mI3hhOyAgICAgICA8dXNlIHg9IjYzLjYyMzA0NyIgeGxpbms6aHJlZj0iI0RlamFWdVNhbnMtMzUiLz4mI3hhOyAgICAgIDwvZz4mI3hhOyAgICAgPC9nPiYjeGE7ICAgIDwvZz4mI3hhOyAgICA8ZyBpZD0ieHRpY2tfNyI+JiN4YTsgICAgIDxnIGlkPSJsaW5lMmRfMTMiPiYjeGE7ICAgICAgPHBhdGggc3R5bGU9ImZpbGw6IG5vbmU7IHN0cm9rZTogI2IwYjBiMDsgc3Ryb2tlLXdpZHRoOiAwLjg7IHN0cm9rZS1saW5lY2FwOiBzcXVhcmUiIGNsaXAtcGF0aD0idXJsKCNwZDU2MzhmOWQxMykiIGQ9Ik0gNjg5LjgyMjUwOSAyMjMuMTI3OTEgJiMxMDtMIDY4OS44MjI1MDkgMjcuMTM4MjQiLz4mI3hhOyAgICAgPC9nPiYjeGE7ICAgICA8ZyBpZD0ibGluZTJkXzE0Ij4mI3hhOyAgICAgIDxnPiYjeGE7ICAgICAgIDx1c2Ugc3R5bGU9InN0cm9rZTogIzAwMDAwMDsgc3Ryb2tlLXdpZHRoOiAwLjgiIHk9IjIyMy4xMjc5MSIgeD0iNjg5LjgyMjUwOSIgeGxpbms6aHJlZj0iI21lOGY4MzY4OGFjIi8+JiN4YTsgICAgICA8L2c+JiN4YTsgICAgIDwvZz4mI3hhOyAgICAgPGcgaWQ9InRleHRfNyI+JiN4YTsgICAgICAmI3hhOyAgICAgIDxnIHRyYW5zZm9ybT0idHJhbnNsYXRlKDY4My40NjAwMDkgMjM3LjcyNjM0Nykgc2NhbGUoMC4xIC0wLjEpIj4mI3hhOyAgICAgICA8ZGVmcz4mI3hhOyAgICAgICAgPHBhdGggdHJhbnNmb3JtPSJzY2FsZSgwLjAxNTYyNSkiIGQ9Ik0gMjU5NyAyNTE2ICYjMTA7USAzMDUwIDI0MTkgMzMwNCAyMTEyICYjMTA7USAzNTU5IDE4MDYgMzU1OSAxMzU2ICYjMTA7USAzNTU5IDY2NiAzMDg0IDI4NyAmIzEwO1EgMjYwOSAtOTEgMTczNCAtOTEgJiMxMDtRIDE0NDEgLTkxIDExMzAgLTMzICYjMTA7USA4MTkgMjUgNDg4IDE0MSAmIzEwO0wgNDg4IDc1MCAmIzEwO1EgNzUwIDU5NyAxMDYyIDUxOSAmIzEwO1EgMTM3NSA0NDEgMTcxNiA0NDEgJiMxMDtRIDIzMDkgNDQxIDI2MjAgNjc1ICYjMTA7USAyOTMxIDkwOSAyOTMxIDEzNTYgJiMxMDtRIDI5MzEgMTc2OSAyNjQyIDIwMDEgJiMxMDtRIDIzNTMgMjIzNCAxODM4IDIyMzQgJiMxMDtMIDEyOTQgMjIzNCAmIzEwO0wgMTI5NCAyNzUzICYjMTA7TCAxODYzIDI3NTMgJiMxMDtRIDIzMjggMjc1MyAyNTc1IDI5MzkgJiMxMDtRIDI4MjIgMzEyNSAyODIyIDM0NzUgJiMxMDtRIDI4MjIgMzgzNCAyNTY3IDQwMjYgJiMxMDtRIDIzMTMgNDIxOSAxODM4IDQyMTkgJiMxMDtRIDE1NzggNDIxOSAxMjgxIDQxNjIgJiMxMDtRIDk4NCA0MTA2IDYyOCAzOTg4ICYjMTA7TCA2MjggNDU1MCAmIzEwO1EgOTg4IDQ2NTAgMTMwMiA0NzAwICYjMTA7USAxNjE2IDQ3NTAgMTg5NCA0NzUwICYjMTA7USAyNjEzIDQ3NTAgMzAzMSA0NDIzICYjMTA7USAzNDUwIDQwOTcgMzQ1MCAzNTQxICYjMTA7USAzNDUwIDMxNTMgMzIyOCAyODg2ICYjMTA7USAzMDA2IDI2MTkgMjU5NyAyNTE2ICYjMTA7eiIgaWQ9IkRlamFWdVNhbnMtMzMiLz4mI3hhOyAgICAgICA8L2RlZnM+JiN4YTsgICAgICAgPHVzZSB4bGluazpocmVmPSIjRGVqYVZ1U2Fucy0zMyIvPiYjeGE7ICAgICAgIDx1c2UgeD0iNjMuNjIzMDQ3IiB4bGluazpocmVmPSIjRGVqYVZ1U2Fucy0zMCIvPiYjeGE7ICAgICAgPC9nPiYjeGE7ICAgICA8L2c+JiN4YTsgICAgPC9nPiYjeGE7ICAgIDxnIGlkPSJ4dGlja184Ij4mI3hhOyAgICAgPGcgaWQ9ImxpbmUyZF8xNSI+JiN4YTsgICAgICA8cGF0aCBzdHlsZT0iZmlsbDogbm9uZTsgc3Ryb2tlOiAjYjBiMGIwOyBzdHJva2Utd2lkdGg6IDAuODsgc3Ryb2tlLWxpbmVjYXA6IHNxdWFyZSIgY2xpcC1wYXRoPSJ1cmwoI3BkNTYzOGY5ZDEzKSIgZD0iTSA3ODUuMTE0MzYyIDIyMy4xMjc5MSAmIzEwO0wgNzg1LjExNDM2MiAyNy4xMzgyNCIvPiYjeGE7ICAgICA8L2c+JiN4YTsgICAgIDxnIGlkPSJsaW5lMmRfMTYiPiYjeGE7ICAgICAgPGc+JiN4YTsgICAgICAgPHVzZSBzdHlsZT0ic3Ryb2tlOiAjMDAwMDAwOyBzdHJva2Utd2lkdGg6IDAuOCIgeT0iMjIzLjEyNzkxIiB4PSI3ODUuMTE0MzYyIiB4bGluazpocmVmPSIjbWU4ZjgzNjg4YWMiLz4mI3hhOyAgICAgIDwvZz4mI3hhOyAgICAgPC9nPiYjeGE7ICAgICA8ZyBpZD0idGV4dF84Ij4mI3hhOyAgICAgICYjeGE7ICAgICAgPGcgdHJhbnNmb3JtPSJ0cmFuc2xhdGUoNzc4Ljc1MTg2MiAyMzcuNzI2MzQ3KSBzY2FsZSgwLjEgLTAuMSkiPiYjeGE7ICAgICAgIDx1c2UgeGxpbms6aHJlZj0iI0RlamFWdVNhbnMtMzMiLz4mI3hhOyAgICAgICA8dXNlIHg9IjYzLjYyMzA0NyIgeGxpbms6aHJlZj0iI0RlamFWdVNhbnMtMzUiLz4mI3hhOyAgICAgIDwvZz4mI3hhOyAgICAgPC9nPiYjeGE7ICAgIDwvZz4mI3hhOyAgIDwvZz4mI3hhOyAgIDxnIGlkPSJtYXRwbG90bGliLmF4aXNfMiI+JiN4YTsgICAgPGcgaWQ9Inl0aWNrXzEiPiYjeGE7ICAgICA8ZyBpZD0ibGluZTJkXzE3Ij4mI3hhOyAgICAgIDxwYXRoIHN0eWxlPSJmaWxsOiBub25lOyBzdHJva2U6ICNiMGIwYjA7IHN0cm9rZS13aWR0aDogMC44OyBzdHJva2UtbGluZWNhcDogc3F1YXJlIiBjbGlwLXBhdGg9InVybCgjcGQ1NjM4ZjlkMTMpIiBkPSJNIDg0LjY3NjMyIDIwNC40OTM0NTcgJiMxMDtMIDgxOS4zNjc5MiAyMDQuNDkzNDU3Ii8+JiN4YTsgICAgIDwvZz4mI3hhOyAgICAgPGcgaWQ9ImxpbmUyZF8xOCI+JiN4YTsgICAgICA8ZGVmcz4mI3hhOyAgICAgICA8cGF0aCBzdHlsZT0ic3Ryb2tlOiAjMDAwMDAwOyBzdHJva2Utd2lkdGg6IDAuOCIgZD0iTSAwIDAgJiMxMDtMIC0zLjUgMCIgaWQ9Im1kMGY5ZmNlNjY0Ii8+JiN4YTsgICAgICA8L2RlZnM+JiN4YTsgICAgICA8Zz4mI3hhOyAgICAgICA8dXNlIHN0eWxlPSJzdHJva2U6ICMwMDAwMDA7IHN0cm9rZS13aWR0aDogMC44IiB5PSIyMDQuNDkzNDU3IiB4PSI4NC42NzYzMiIgeGxpbms6aHJlZj0iI21kMGY5ZmNlNjY0Ii8+JiN4YTsgICAgICA8L2c+JiN4YTsgICAgIDwvZz4mI3hhOyAgICAgPGcgaWQ9InRleHRfOSI+JiN4YTsgICAgICAmI3hhOyAgICAgIDxnIHRyYW5zZm9ybT0idHJhbnNsYXRlKDUyLjIyNjMyIDIwOC4yOTI2NzYpIHNjYWxlKDAuMSAtMC4xKSI+JiN4YTsgICAgICAgPGRlZnM+JiN4YTsgICAgICAgIDxwYXRoIHRyYW5zZm9ybT0ic2NhbGUoMC4wMTU2MjUpIiBkPSJNIDI0MTkgNDExNiAmIzEwO0wgODI1IDE2MjUgJiMxMDtMIDI0MTkgMTYyNSAmIzEwO0wgMjQxOSA0MTE2ICYjMTA7eiYjMTA7TSAyMjUzIDQ2NjYgJiMxMDtMIDMwNDcgNDY2NiAmIzEwO0wgMzA0NyAxNjI1ICYjMTA7TCAzNzEzIDE2MjUgJiMxMDtMIDM3MTMgMTEwMCAmIzEwO0wgMzA0NyAxMTAwICYjMTA7TCAzMDQ3IDAgJiMxMDtMIDI0MTkgMCAmIzEwO0wgMjQxOSAxMTAwICYjMTA7TCAzMTMgMTEwMCAmIzEwO0wgMzEzIDE3MDkgJiMxMDtMIDIyNTMgNDY2NiAmIzEwO3oiIGlkPSJEZWphVnVTYW5zLTM0Ii8+JiN4YTsgICAgICAgPC9kZWZzPiYjeGE7ICAgICAgIDx1c2UgeGxpbms6aHJlZj0iI0RlamFWdVNhbnMtMzEiLz4mI3hhOyAgICAgICA8dXNlIHg9IjYzLjYyMzA0NyIgeGxpbms6aHJlZj0iI0RlamFWdVNhbnMtMzQiLz4mI3hhOyAgICAgICA8dXNlIHg9IjEyNy4yNDYwOTQiIHhsaW5rOmhyZWY9IiNEZWphVnVTYW5zLTMwIi8+JiN4YTsgICAgICAgPHVzZSB4PSIxOTAuODY5MTQxIiB4bGluazpocmVmPSIjRGVqYVZ1U2Fucy0zMCIvPiYjeGE7ICAgICAgPC9nPiYjeGE7ICAgICA8L2c+JiN4YTsgICAgPC9nPiYjeGE7ICAgIDxnIGlkPSJ5dGlja18yIj4mI3hhOyAgICAgPGcgaWQ9ImxpbmUyZF8xOSI+JiN4YTsgICAgICA8cGF0aCBzdHlsZT0iZmlsbDogbm9uZTsgc3Ryb2tlOiAjYjBiMGIwOyBzdHJva2Utd2lkdGg6IDAuODsgc3Ryb2tlLWxpbmVjYXA6IHNxdWFyZSIgY2xpcC1wYXRoPSJ1cmwoI3BkNTYzOGY5ZDEzKSIgZD0iTSA4NC42NzYzMiAxNzcuMjg0MjgyICYjMTA7TCA4MTkuMzY3OTIgMTc3LjI4NDI4MiIvPiYjeGE7ICAgICA8L2c+JiN4YTsgICAgIDxnIGlkPSJsaW5lMmRfMjAiPiYjeGE7ICAgICAgPGc+JiN4YTsgICAgICAgPHVzZSBzdHlsZT0ic3Ryb2tlOiAjMDAwMDAwOyBzdHJva2Utd2lkdGg6IDAuOCIgeT0iMTc3LjI4NDI4MiIgeD0iODQuNjc2MzIiIHhsaW5rOmhyZWY9IiNtZDBmOWZjZTY2NCIvPiYjeGE7ICAgICAgPC9nPiYjeGE7ICAgICA8L2c+JiN4YTsgICAgIDxnIGlkPSJ0ZXh0XzEwIj4mI3hhOyAgICAgICYjeGE7ICAgICAgPGcgdHJhbnNmb3JtPSJ0cmFuc2xhdGUoNTIuMjI2MzIgMTgxLjA4MzUwMSkgc2NhbGUoMC4xIC0wLjEpIj4mI3hhOyAgICAgICA8ZGVmcz4mI3hhOyAgICAgICAgPHBhdGggdHJhbnNmb3JtPSJzY2FsZSgwLjAxNTYyNSkiIGQ9Ik0gMjExMyAyNTg0ICYjMTA7USAxNjg4IDI1ODQgMTQzOSAyMjkzICYjMTA7USAxMTkxIDIwMDMgMTE5MSAxNDk3ICYjMTA7USAxMTkxIDk5NCAxNDM5IDcwMSAmIzEwO1EgMTY4OCA0MDkgMjExMyA0MDkgJiMxMDtRIDI1MzggNDA5IDI3ODYgNzAxICYjMTA7USAzMDM0IDk5NCAzMDM0IDE0OTcgJiMxMDtRIDMwMzQgMjAwMyAyNzg2IDIyOTMgJiMxMDtRIDI1MzggMjU4NCAyMTEzIDI1ODQgJiMxMDt6JiMxMDtNIDMzNjYgNDU2MyAmIzEwO0wgMzM2NiAzOTg4ICYjMTA7USAzMTI4IDQxMDAgMjg4NiA0MTU5ICYjMTA7USAyNjQ0IDQyMTkgMjQwNiA0MjE5ICYjMTA7USAxNzgxIDQyMTkgMTQ1MSAzNzk3ICYjMTA7USAxMTIyIDMzNzUgMTA3NSAyNTIyICYjMTA7USAxMjU5IDI3OTQgMTUzNyAyOTM5ICYjMTA7USAxODE2IDMwODQgMjE1MCAzMDg0ICYjMTA7USAyODUzIDMwODQgMzI2MSAyNjU3ICYjMTA7USAzNjY5IDIyMzEgMzY2OSAxNDk3ICYjMTA7USAzNjY5IDc3OCAzMjQ0IDM0MyAmIzEwO1EgMjgxOSAtOTEgMjExMyAtOTEgJiMxMDtRIDEzMDMgLTkxIDg3NSA1MjkgJiMxMDtRIDQ0NyAxMTUwIDQ0NyAyMzI4ICYjMTA7USA0NDcgMzQzNCA5NzIgNDA5MiAmIzEwO1EgMTQ5NyA0NzUwIDIzODEgNDc1MCAmIzEwO1EgMjYxOSA0NzUwIDI4NjEgNDcwMyAmIzEwO1EgMzEwMyA0NjU2IDMzNjYgNDU2MyAmIzEwO3oiIGlkPSJEZWphVnVTYW5zLTM2Ii8+JiN4YTsgICAgICAgPC9kZWZzPiYjeGE7ICAgICAgIDx1c2UgeGxpbms6aHJlZj0iI0RlamFWdVNhbnMtMzEiLz4mI3hhOyAgICAgICA8dXNlIHg9IjYzLjYyMzA0NyIgeGxpbms6aHJlZj0iI0RlamFWdVNhbnMtMzYiLz4mI3hhOyAgICAgICA8dXNlIHg9IjEyNy4yNDYwOTQiIHhsaW5rOmhyZWY9IiNEZWphVnVTYW5zLTMwIi8+JiN4YTsgICAgICAgPHVzZSB4PSIxOTAuODY5MTQxIiB4bGluazpocmVmPSIjRGVqYVZ1U2Fucy0zMCIvPiYjeGE7ICAgICAgPC9nPiYjeGE7ICAgICA8L2c+JiN4YTsgICAgPC9nPiYjeGE7ICAgIDxnIGlkPSJ5dGlja18zIj4mI3hhOyAgICAgPGcgaWQ9ImxpbmUyZF8yMSI+JiN4YTsgICAgICA8cGF0aCBzdHlsZT0iZmlsbDogbm9uZTsgc3Ryb2tlOiAjYjBiMGIwOyBzdHJva2Utd2lkdGg6IDAuODsgc3Ryb2tlLWxpbmVjYXA6IHNxdWFyZSIgY2xpcC1wYXRoPSJ1cmwoI3BkNTYzOGY5ZDEzKSIgZD0iTSA4NC42NzYzMiAxNTAuMDc1MTA4ICYjMTA7TCA4MTkuMzY3OTIgMTUwLjA3NTEwOCIvPiYjeGE7ICAgICA8L2c+JiN4YTsgICAgIDxnIGlkPSJsaW5lMmRfMjIiPiYjeGE7ICAgICAgPGc+JiN4YTsgICAgICAgPHVzZSBzdHlsZT0ic3Ryb2tlOiAjMDAwMDAwOyBzdHJva2Utd2lkdGg6IDAuOCIgeT0iMTUwLjA3NTEwOCIgeD0iODQuNjc2MzIiIHhsaW5rOmhyZWY9IiNtZDBmOWZjZTY2NCIvPiYjeGE7ICAgICAgPC9nPiYjeGE7ICAgICA8L2c+JiN4YTsgICAgIDxnIGlkPSJ0ZXh0XzExIj4mI3hhOyAgICAgICYjeGE7ICAgICAgPGcgdHJhbnNmb3JtPSJ0cmFuc2xhdGUoNTIuMjI2MzIgMTUzLjg3NDMyNikgc2NhbGUoMC4xIC0wLjEpIj4mI3hhOyAgICAgICA8ZGVmcz4mI3hhOyAgICAgICAgPHBhdGggdHJhbnNmb3JtPSJzY2FsZSgwLjAxNTYyNSkiIGQ9Ik0gMjAzNCAyMjE2ICYjMTA7USAxNTg0IDIyMTYgMTMyNiAxOTc1ICYjMTA7USAxMDY5IDE3MzQgMTA2OSAxMzEzICYjMTA7USAxMDY5IDg5MSAxMzI2IDY1MCAmIzEwO1EgMTU4NCA0MDkgMjAzNCA0MDkgJiMxMDtRIDI0ODQgNDA5IDI3NDMgNjUxICYjMTA7USAzMDAzIDg5NCAzMDAzIDEzMTMgJiMxMDtRIDMwMDMgMTczNCAyNzQ1IDE5NzUgJiMxMDtRIDI0ODggMjIxNiAyMDM0IDIyMTYgJiMxMDt6JiMxMDtNIDE0MDMgMjQ4NCAmIzEwO1EgOTk3IDI1ODQgNzcwIDI4NjIgJiMxMDtRIDU0NCAzMTQxIDU0NCAzNTQxICYjMTA7USA1NDQgNDEwMCA5NDIgNDQyNSAmIzEwO1EgMTM0MSA0NzUwIDIwMzQgNDc1MCAmIzEwO1EgMjczMSA0NzUwIDMxMjggNDQyNSAmIzEwO1EgMzUyNSA0MTAwIDM1MjUgMzU0MSAmIzEwO1EgMzUyNSAzMTQxIDMyOTggMjg2MiAmIzEwO1EgMzA3MiAyNTg0IDI2NjkgMjQ4NCAmIzEwO1EgMzEyNSAyMzc4IDMzNzkgMjA2OCAmIzEwO1EgMzYzNCAxNzU5IDM2MzQgMTMxMyAmIzEwO1EgMzYzNCA2MzQgMzIyMCAyNzEgJiMxMDtRIDI4MDYgLTkxIDIwMzQgLTkxICYjMTA7USAxMjYzIC05MSA4NDggMjcxICYjMTA7USA0MzQgNjM0IDQzNCAxMzEzICYjMTA7USA0MzQgMTc1OSA2OTAgMjA2OCAmIzEwO1EgOTQ3IDIzNzggMTQwMyAyNDg0ICYjMTA7eiYjMTA7TSAxMTcyIDM0ODEgJiMxMDtRIDExNzIgMzExOSAxMzk4IDI5MTYgJiMxMDtRIDE2MjUgMjcxMyAyMDM0IDI3MTMgJiMxMDtRIDI0NDEgMjcxMyAyNjcwIDI5MTYgJiMxMDtRIDI5MDAgMzExOSAyOTAwIDM0ODEgJiMxMDtRIDI5MDAgMzg0NCAyNjcwIDQwNDcgJiMxMDtRIDI0NDEgNDI1MCAyMDM0IDQyNTAgJiMxMDtRIDE2MjUgNDI1MCAxMzk4IDQwNDcgJiMxMDtRIDExNzIgMzg0NCAxMTcyIDM0ODEgJiMxMDt6IiBpZD0iRGVqYVZ1U2Fucy0zOCIvPiYjeGE7ICAgICAgIDwvZGVmcz4mI3hhOyAgICAgICA8dXNlIHhsaW5rOmhyZWY9IiNEZWphVnVTYW5zLTMxIi8+JiN4YTsgICAgICAgPHVzZSB4PSI2My42MjMwNDciIHhsaW5rOmhyZWY9IiNEZWphVnVTYW5zLTM4Ii8+JiN4YTsgICAgICAgPHVzZSB4PSIxMjcuMjQ2MDk0IiB4bGluazpocmVmPSIjRGVqYVZ1U2Fucy0zMCIvPiYjeGE7ICAgICAgIDx1c2UgeD0iMTkwLjg2OTE0MSIgeGxpbms6aHJlZj0iI0RlamFWdVNhbnMtMzAiLz4mI3hhOyAgICAgIDwvZz4mI3hhOyAgICAgPC9nPiYjeGE7ICAgIDwvZz4mI3hhOyAgICA8ZyBpZD0ieXRpY2tfNCI+JiN4YTsgICAgIDxnIGlkPSJsaW5lMmRfMjMiPiYjeGE7ICAgICAgPHBhdGggc3R5bGU9ImZpbGw6IG5vbmU7IHN0cm9rZTogI2IwYjBiMDsgc3Ryb2tlLXdpZHRoOiAwLjg7IHN0cm9rZS1saW5lY2FwOiBzcXVhcmUiIGNsaXAtcGF0aD0idXJsKCNwZDU2MzhmOWQxMykiIGQ9Ik0gODQuNjc2MzIgMTIyLjg2NTkzMyAmIzEwO0wgODE5LjM2NzkyIDEyMi44NjU5MzMiLz4mI3hhOyAgICAgPC9nPiYjeGE7ICAgICA8ZyBpZD0ibGluZTJkXzI0Ij4mI3hhOyAgICAgIDxnPiYjeGE7ICAgICAgIDx1c2Ugc3R5bGU9InN0cm9rZTogIzAwMDAwMDsgc3Ryb2tlLXdpZHRoOiAwLjgiIHk9IjEyMi44NjU5MzMiIHg9Ijg0LjY3NjMyIiB4bGluazpocmVmPSIjbWQwZjlmY2U2NjQiLz4mI3hhOyAgICAgIDwvZz4mI3hhOyAgICAgPC9nPiYjeGE7ICAgICA8ZyBpZD0idGV4dF8xMiI+JiN4YTsgICAgICAmI3hhOyAgICAgIDxnIHRyYW5zZm9ybT0idHJhbnNsYXRlKDUyLjIyNjMyIDEyNi42NjUxNTIpIHNjYWxlKDAuMSAtMC4xKSI+JiN4YTsgICAgICAgPHVzZSB4bGluazpocmVmPSIjRGVqYVZ1U2Fucy0zMiIvPiYjeGE7ICAgICAgIDx1c2UgeD0iNjMuNjIzMDQ3IiB4bGluazpocmVmPSIjRGVqYVZ1U2Fucy0zMCIvPiYjeGE7ICAgICAgIDx1c2UgeD0iMTI3LjI0NjA5NCIgeGxpbms6aHJlZj0iI0RlamFWdVNhbnMtMzAiLz4mI3hhOyAgICAgICA8dXNlIHg9IjE5MC44NjkxNDEiIHhsaW5rOmhyZWY9IiNEZWphVnVTYW5zLTMwIi8+JiN4YTsgICAgICA8L2c+JiN4YTsgICAgIDwvZz4mI3hhOyAgICA8L2c+JiN4YTsgICAgPGcgaWQ9Inl0aWNrXzUiPiYjeGE7ICAgICA8ZyBpZD0ibGluZTJkXzI1Ij4mI3hhOyAgICAgIDxwYXRoIHN0eWxlPSJmaWxsOiBub25lOyBzdHJva2U6ICNiMGIwYjA7IHN0cm9rZS13aWR0aDogMC44OyBzdHJva2UtbGluZWNhcDogc3F1YXJlIiBjbGlwLXBhdGg9InVybCgjcGQ1NjM4ZjlkMTMpIiBkPSJNIDg0LjY3NjMyIDk1LjY1Njc1OCAmIzEwO0wgODE5LjM2NzkyIDk1LjY1Njc1OCIvPiYjeGE7ICAgICA8L2c+JiN4YTsgICAgIDxnIGlkPSJsaW5lMmRfMjYiPiYjeGE7ICAgICAgPGc+JiN4YTsgICAgICAgPHVzZSBzdHlsZT0ic3Ryb2tlOiAjMDAwMDAwOyBzdHJva2Utd2lkdGg6IDAuOCIgeT0iOTUuNjU2NzU4IiB4PSI4NC42NzYzMiIgeGxpbms6aHJlZj0iI21kMGY5ZmNlNjY0Ii8+JiN4YTsgICAgICA8L2c+JiN4YTsgICAgIDwvZz4mI3hhOyAgICAgPGcgaWQ9InRleHRfMTMiPiYjeGE7ICAgICAgJiN4YTsgICAgICA8ZyB0cmFuc2Zvcm09InRyYW5zbGF0ZSg1Mi4yMjYzMiA5OS40NTU5NzcpIHNjYWxlKDAuMSAtMC4xKSI+JiN4YTsgICAgICAgPHVzZSB4bGluazpocmVmPSIjRGVqYVZ1U2Fucy0zMiIvPiYjeGE7ICAgICAgIDx1c2UgeD0iNjMuNjIzMDQ3IiB4bGluazpocmVmPSIjRGVqYVZ1U2Fucy0zMiIvPiYjeGE7ICAgICAgIDx1c2UgeD0iMTI3LjI0NjA5NCIgeGxpbms6aHJlZj0iI0RlamFWdVNhbnMtMzAiLz4mI3hhOyAgICAgICA8dXNlIHg9IjE5MC44NjkxNDEiIHhsaW5rOmhyZWY9IiNEZWphVnVTYW5zLTMwIi8+JiN4YTsgICAgICA8L2c+JiN4YTsgICAgIDwvZz4mI3hhOyAgICA8L2c+JiN4YTsgICAgPGcgaWQ9Inl0aWNrXzYiPiYjeGE7ICAgICA8ZyBpZD0ibGluZTJkXzI3Ij4mI3hhOyAgICAgIDxwYXRoIHN0eWxlPSJmaWxsOiBub25lOyBzdHJva2U6ICNiMGIwYjA7IHN0cm9rZS13aWR0aDogMC44OyBzdHJva2UtbGluZWNhcDogc3F1YXJlIiBjbGlwLXBhdGg9InVybCgjcGQ1NjM4ZjlkMTMpIiBkPSJNIDg0LjY3NjMyIDY4LjQ0NzU4MyAmIzEwO0wgODE5LjM2NzkyIDY4LjQ0NzU4MyIvPiYjeGE7ICAgICA8L2c+JiN4YTsgICAgIDxnIGlkPSJsaW5lMmRfMjgiPiYjeGE7ICAgICAgPGc+JiN4YTsgICAgICAgPHVzZSBzdHlsZT0ic3Ryb2tlOiAjMDAwMDAwOyBzdHJva2Utd2lkdGg6IDAuOCIgeT0iNjguNDQ3NTgzIiB4PSI4NC42NzYzMiIgeGxpbms6aHJlZj0iI21kMGY5ZmNlNjY0Ii8+JiN4YTsgICAgICA8L2c+JiN4YTsgICAgIDwvZz4mI3hhOyAgICAgPGcgaWQ9InRleHRfMTQiPiYjeGE7ICAgICAgJiN4YTsgICAgICA8ZyB0cmFuc2Zvcm09InRyYW5zbGF0ZSg1Mi4yMjYzMiA3Mi4yNDY4MDIpIHNjYWxlKDAuMSAtMC4xKSI+JiN4YTsgICAgICAgPHVzZSB4bGluazpocmVmPSIjRGVqYVZ1U2Fucy0zMiIvPiYjeGE7ICAgICAgIDx1c2UgeD0iNjMuNjIzMDQ3IiB4bGluazpocmVmPSIjRGVqYVZ1U2Fucy0zNCIvPiYjeGE7ICAgICAgIDx1c2UgeD0iMTI3LjI0NjA5NCIgeGxpbms6aHJlZj0iI0RlamFWdVNhbnMtMzAiLz4mI3hhOyAgICAgICA8dXNlIHg9IjE5MC44NjkxNDEiIHhsaW5rOmhyZWY9IiNEZWphVnVTYW5zLTMwIi8+JiN4YTsgICAgICA8L2c+JiN4YTsgICAgIDwvZz4mI3hhOyAgICA8L2c+JiN4YTsgICAgPGcgaWQ9Inl0aWNrXzciPiYjeGE7ICAgICA8ZyBpZD0ibGluZTJkXzI5Ij4mI3hhOyAgICAgIDxwYXRoIHN0eWxlPSJmaWxsOiBub25lOyBzdHJva2U6ICNiMGIwYjA7IHN0cm9rZS13aWR0aDogMC44OyBzdHJva2UtbGluZWNhcDogc3F1YXJlIiBjbGlwLXBhdGg9InVybCgjcGQ1NjM4ZjlkMTMpIiBkPSJNIDg0LjY3NjMyIDQxLjIzODQwOSAmIzEwO0wgODE5LjM2NzkyIDQxLjIzODQwOSIvPiYjeGE7ICAgICA8L2c+JiN4YTsgICAgIDxnIGlkPSJsaW5lMmRfMzAiPiYjeGE7ICAgICAgPGc+JiN4YTsgICAgICAgPHVzZSBzdHlsZT0ic3Ryb2tlOiAjMDAwMDAwOyBzdHJva2Utd2lkdGg6IDAuOCIgeT0iNDEuMjM4NDA5IiB4PSI4NC42NzYzMiIgeGxpbms6aHJlZj0iI21kMGY5ZmNlNjY0Ii8+JiN4YTsgICAgICA8L2c+JiN4YTsgICAgIDwvZz4mI3hhOyAgICAgPGcgaWQ9InRleHRfMTUiPiYjeGE7ICAgICAgJiN4YTsgICAgICA8ZyB0cmFuc2Zvcm09InRyYW5zbGF0ZSg1Mi4yMjYzMiA0NS4wMzc2MjcpIHNjYWxlKDAuMSAtMC4xKSI+JiN4YTsgICAgICAgPHVzZSB4bGluazpocmVmPSIjRGVqYVZ1U2Fucy0zMiIvPiYjeGE7ICAgICAgIDx1c2UgeD0iNjMuNjIzMDQ3IiB4bGluazpocmVmPSIjRGVqYVZ1U2Fucy0zNiIvPiYjeGE7ICAgICAgIDx1c2UgeD0iMTI3LjI0NjA5NCIgeGxpbms6aHJlZj0iI0RlamFWdVNhbnMtMzAiLz4mI3hhOyAgICAgICA8dXNlIHg9IjE5MC44NjkxNDEiIHhsaW5rOmhyZWY9IiNEZWphVnVTYW5zLTMwIi8+JiN4YTsgICAgICA8L2c+JiN4YTsgICAgIDwvZz4mI3hhOyAgICA8L2c+JiN4YTsgICA8L2c+JiN4YTsgICA8ZyBpZD0ibGluZTJkXzMxIj4mI3hhOyAgICA8cGF0aCBzdHlsZT0iZmlsbDogbm9uZTsgc3Ryb2tlOiAjNDQwMTU0OyBzdHJva2Utd2lkdGg6IDEuNTsgc3Ryb2tlLWxpbmVjYXA6IHNxdWFyZSIgY2xpcC1wYXRoPSJ1cmwoI3BkNTYzOGY5ZDEzKSIgZD0iTSAxMTguMDcxMzkzIDIxNC4yMTkyODkgJiMxMDtMIDEzNS4yNDEwOTYgMjE0LjA4NzUxOCAmIzEwO0wgMTM2Ljk1ODA2NiAyMTMuNDQzODg2ICYjMTA7TCAxNjcuODYzNTMyIDIxMy44Njg0ODUgJiMxMDtMIDE4MS41OTkyOTUgMjEzLjk4ODM3NSAmIzEwO0wgMTgzLjMxNjI2NSAyMTMuMTEwMTYyICYjMTA7TCAyMTIuNTA0NzYgMjEyLjc1MzIxNyAmIzEwO0wgMjI5LjY3NDQ2NCAyMTIuMzY3MzcyICYjMTA7TCAyNjcuNDQ3ODExIDIxMS4wMjM4NCAmIzEwO0wgMzA1LjIyMTE1OCAyMDkuOTAzNDA3ICYjMTA7TCAzNDIuOTk0NTA1IDIwOS4wMDkxNzEgJiMxMDtMIDM0OS44NjIzODYgMjA4Ljg3MDkyNCAmIzEwO0wgMzUxLjU3OTM1NiAyMDkuMzk2MzQgJiMxMDtMIDM4MC43Njc4NTIgMjA4LjIxMjM2NCAmIzEwO0wgNDA5Ljk1NjM0NyAyMDYuODE1NTUgJiMxMDtMIDQyMC4yNTgxNjkgMjA2LjM2NTc3NyAmIzEwO0wgNDQ2LjAxMjcyNCAyMDUuNzU4NzQ1ICYjMTA7TCA0NDcuNzI5Njk0IDIwMy42NzMzMTEgJiMxMDtMIDQ3Ni45MTgxOSAyMDMuMTI5MDUzICYjMTA7TCA0OTUuODA0ODYzIDIwMi42NTQwODIgJiMxMDtMIDQ5Ny41MjE4MzMgMjAyLjk0ODI5MiAmIzEwO0wgNTM3LjAxMjE1MSAxOTkuMzg4MTcyICYjMTA7TCA1NzQuNzg1NDk4IDE5Ni4xOTgwNTcgJiMxMDtMIDYxMi41NTg4NDUgMTkzLjIzNDMzMiAmIzEwO0wgNjQ4LjYxNTIyMiAxOTAuNjI2Njg2ICYjMTA7TCA2NjUuNzg0OTI1IDE4OS40NjI4MjIgJiMxMDtMIDY2Ny41MDE4OTUgMTg4LjU0Nzc5MyAmIzEwO0wgNjkzLjI1NjQ1IDE4Ni43Njk3MzMgJiMxMDtMIDcwMy41NTgyNzIgMTg1Ljk5NTI2MyAmIzEwO0wgNzA1LjI3NTI0MiAxODQuMzg5NzgxICYjMTA7TCA3MjkuMzEyODI3IDE4My4wMTkwOTggJiMxMDtMIDc1NS4wNjczODIgMTgxLjMxODgzOCAmIzEwO0wgNzgwLjgyMTkzNiAxNzkuMzg0MTI0ICYjMTA7TCA3ODIuNTM4OTA3IDE3OC4xNzc5NDEgJiMxMDtMIDc4NC4yNTU4NzcgMTgwLjE5NjU2OSAmIzEwO0wgNzg1Ljk3Mjg0NyAxNzkuOTEyMzIgJiMxMDtMIDc4NS45NzI4NDcgMTc5LjkxMjMyIi8+JiN4YTsgICA8L2c+JiN4YTsgICA8ZyBpZD0ibGluZTJkXzMyIj4mI3hhOyAgICA8cGF0aCBzdHlsZT0iZmlsbDogbm9uZTsgc3Ryb2tlOiAjNDQzOTgzOyBzdHJva2Utd2lkdGg6IDEuNTsgc3Ryb2tlLWxpbmVjYXA6IHNxdWFyZSIgY2xpcC1wYXRoPSJ1cmwoI3BkNTYzOGY5ZDEzKSIgZD0iTSAxMTguMDcxMzkzIDE4OC42NTY4NjkgJiMxMDtMIDE0Ny4yNTk4ODggMTg4LjQyNzc5NyAmIzEwO0wgMTU0LjEyNzc2OSAxODguMzQxMDg3ICYjMTA7TCAxNTUuODQ0NzQgMTg4Ljg5MTQ0OCAmIzEwO0wgMTgxLjU5OTI5NSAxODguMzkxNzgyICYjMTA7TCAxODMuMzE2MjY1IDE4OC43NTMxMTcgJiMxMDtMIDIyOS42NzQ0NjQgMTg2LjcwMDM3NSAmIzEwO0wgMjc0LjMxNTY5MiAxODQuOTQ1MjM5ICYjMTA7TCAzMTcuMjM5OTUgMTgzLjQ3NDg3ICYjMTA7TCAzNjAuMTY0MjA4IDE4Mi4yMjU1MzUgJiMxMDtMIDQwMy4wODg0NjYgMTgxLjIwMTMwOSAmIzEwO0wgNDA5Ljk1NjM0NyAxODEuMDU4MzgzICYjMTA7TCA0MTEuNjczMzE3IDE4MC4yMTIxNDIgJiMxMDtMIDQzNy40Mjc4NzIgMTc3Ljc4NTYzNyAmIzEwO0wgNDM5LjE0NDg0MyAxODAuMzQyNzQ1ICYjMTA7TCA0NjYuNjE2MzY4IDE3Ny40NjAyMTUgJiMxMDtMIDQ4MC4zNTIxMyAxNzUuOTMxMDkzICYjMTA7TCA0ODIuMDY5MTAxIDE3NS45MjQzMTcgJiMxMDtMIDUzMy41NzgyMSAxNzAuNTYxMDM1ICYjMTA7TCA1NzkuOTM2NDA5IDE2NS45NTE3MiAmIzEwO0wgNjI0LjU3NzYzNyAxNjEuNzMzMTIzICYjMTA7TCA2NjcuNTAxODk1IDE1Ny44OTY1OCAmIzEwO0wgNjc0LjM2OTc3NiAxNTcuMzAzNDk4ICYjMTA7TCA2NzYuMDg2NzQ3IDE1NS45NDU3MzcgJiMxMDtMIDcwMS44NDEzMDIgMTUxLjE5MDkxNCAmIzEwO0wgNzIwLjcyNzk3NSAxNDcuNTU0Mzk2ICYjMTA7TCA3MjIuNDQ0OTQ1IDE0OS41MDQ3ODMgJiMxMDtMIDcyOS4zMTI4MjcgMTQ4LjA2MTY4MiAmIzEwO0wgNzMxLjAyOTc5NyAxNTEuMDc5NDU1ICYjMTA7TCA3NDguMTk5NSAxNDcuODM0MDIgJiMxMDtMIDc0OS45MTY0NzEgMTQ3LjMwNjkzNSAmIzEwO0wgNzcyLjIzNzA4NSAxNDMuMDU5NjU2ICYjMTA7TCA3ODUuOTcyODQ3IDE0MC4zMjg2ODEgJiMxMDtMIDc4NS45NzI4NDcgMTQwLjMyODY4MSIvPiYjeGE7ICAgPC9nPiYjeGE7ICAgPGcgaWQ9ImxpbmUyZF8zMyI+JiN4YTsgICAgPHBhdGggc3R5bGU9ImZpbGw6IG5vbmU7IHN0cm9rZTogIzMxNjg4ZTsgc3Ryb2tlLXdpZHRoOiAxLjU7IHN0cm9rZS1saW5lY2FwOiBzcXVhcmUiIGNsaXAtcGF0aD0idXJsKCNwZDU2MzhmOWQxMykiIGQ9Ik0gMTE4LjA3MTM5MyAxNjEuNTcwNzI4ICYjMTA7TCAxNDguOTc2ODU4IDE2MS4zNTAzNjEgJiMxMDtMIDE3OS44ODIzMjQgMTYwLjkxNjE5MyAmIzEwO0wgMjI3Ljk1NzQ5MyAxNTkuOTc0NTk1ICYjMTA7TCAyNTguODYyOTU5IDE1OC45Mzk4MTQgJiMxMDtMIDI5MS40ODUzOTUgMTU3LjYxODI4NyAmIzEwO0wgMzA1LjIyMTE1OCAxNTYuOTkyMDkyICYjMTA7TCAzMDYuOTM4MTI4IDE1Ny4xMjAxNjggJiMxMDtMIDM2MS44ODExNzggMTU0Ljk1NTEyMSAmIzEwO0wgMzY4Ljc0OTA1OSAxNTQuNzAwNDE5ICYjMTA7TCAzNzAuNDY2MDMgMTU0LjE5NTA5MyAmIzEwO0wgMzk5LjY1NDUyNSAxNTIuMTI5NTgyICYjMTA7TCA0MzAuNTU5OTkxIDE0OS43MTE4NDkgJiMxMDtMIDQ2Ni42MTYzNjggMTQ2LjY1MjEwNSAmIzEwO0wgNDk1LjgwNDg2MyAxNDMuODE4OTk0ICYjMTA7TCA1MzAuMTQ0MjcgMTQwLjIzODUxMSAmIzEwO0wgNTYxLjA0OTczNSAxMzYuNzcwODcxICYjMTA7TCA1NjcuOTE3NjE3IDEzNS45NzAzODIgJiMxMDtMIDU2OS42MzQ1ODcgMTM1LjQ0NzA5OCAmIzEwO0wgNTkwLjIzODIzMSAxMzEuNTg5ODQxICYjMTA7TCA1OTEuOTU1MjAxIDEzMi42MTg3MDMgJiMxMDtMIDYxNy43MDk3NTYgMTI5LjAyMjQ1OSAmIzEwO0wgNjQzLjQ2NDMxMSAxMjUuMjAwNzIyICYjMTA7TCA2NjkuMjE4ODY2IDEyMS4xNjE3NCAmIzEwO0wgNjk2LjY5MDM5MSAxMTYuNjIzMzA4ICYjMTA7TCA3MjQuMTYxOTE2IDExMS44NTY5NSAmIzEwO0wgNzI1Ljg3ODg4NiAxMTEuNTUxNzA4ICYjMTA7TCA3MjcuNTk1ODU2IDExMC44NjE0NTYgJiMxMDtMIDczNi4xODA3MDggMTA5LjE5MTQ3OCAmIzEwO0wgNzM3Ljg5NzY3OCAxMDkuNTQxOTgyICYjMTA7TCA3NTEuNjMzNDQxIDEwNy4wMTM1OTYgJiMxMDtMIDc1My4zNTA0MTEgMTA0LjA0MjY4OSAmIzEwO0wgNzYwLjIxODI5MiAxMDIuOTE2OTI0ICYjMTA7TCA3NjEuOTM1MjYzIDEwMy40MzY5MzkgJiMxMDtMIDc4NS45NzI4NDcgOTguMzU1MDUgJiMxMDtMIDc4NS45NzI4NDcgOTguMzU1MDUiLz4mI3hhOyAgIDwvZz4mI3hhOyAgIDxnIGlkPSJsaW5lMmRfMzQiPiYjeGE7ICAgIDxwYXRoIHN0eWxlPSJmaWxsOiBub25lOyBzdHJva2U6ICMyMTkxOGM7IHN0cm9rZS13aWR0aDogMS41OyBzdHJva2UtbGluZWNhcDogc3F1YXJlIiBjbGlwLXBhdGg9InVybCgjcGQ1NjM4ZjlkMTMpIiBkPSJNIDExOC4wNzEzOTMgMTM1LjEzMjc2ICYjMTA7TCAxNTQuMTI3NzY5IDEzNC45NDE4ODEgJiMxMDtMIDE5MC4xODQxNDYgMTM0LjUyMjAzMyAmIzEwO0wgMjI2LjI0MDUyMyAxMzMuODc0NjYgJiMxMDtMIDI1MS45OTUwNzggMTMzLjI3NDAwNyAmIzEwO0wgMjUzLjcxMjA0OCAxMzIuNDMxMzIxICYjMTA7TCAyODguMDUxNDU0IDEzMS4zMTA0NDEgJiMxMDtMIDMyMi4zOTA4NjEgMTI5Ljk3NjEyICYjMTA7TCAzMjkuMjU4NzQyIDEyOS42ODM5MTQgJiMxMDtMIDMzMC45NzU3MTIgMTMwLjA0NDMyNSAmIzEwO0wgMzY3LjAzMjA4OSAxMjcuMjg2MTIgJiMxMDtMIDM5Ni4yMjA1ODUgMTI0Ljg4OTUzICYjMTA7TCAzOTcuOTM3NTU1IDEyNC41ODI1NTggJiMxMDtMIDQzNS43MTA5MDIgMTIwLjU5NTk4OSAmIzEwO0wgNDQ0LjI5NTc1NCAxMTkuNjU4NjQ3ICYjMTA7TCA0NDcuNzI5Njk0IDExOS40Njc4ODUgJiMxMDtMIDQ4MC4zNTIxMyAxMTYuNTUyOTk3ICYjMTA7TCA1MTEuMjU3NTk2IDExMy42MjQ4MTUgJiMxMDtMIDU0Ny4zMTM5NzMgMTA4LjQ2MTUzNiAmIzEwO0wgNTg1LjA4NzMyIDEwMi44Mjk5ODEgJiMxMDtMIDYwMi4yNTcwMjMgMTAwLjE5ODIzOCAmIzEwO0wgNjA1LjY5MDk2NCAxMDAuMjQwNTYgJiMxMDtMIDYzNi41OTY0MjkgOTMuODI0OTYxICYjMTA7TCA2NjkuMjE4ODY2IDg2LjgyMDgyMiAmIzEwO0wgNzAxLjg0MTMwMiA3OS41OTMxNzEgJiMxMDtMIDcwNS4yNzUyNDIgNzguODE5OTY1ICYjMTA7TCA3MDYuOTkyMjEzIDc5LjAyMTM1NCAmIzEwO0wgNzE1LjU3NzA2NCA3Ny42NTAyOTYgJiMxMDtMIDcxNy4yOTQwMzQgNzYuMzMzMjI1ICYjMTA7TCA3NzIuMjM3MDg1IDYyLjUwMzA5NyAmIzEwO0wgNzg1Ljk3Mjg0NyA1OC45Mzc1NyAmIzEwO0wgNzg1Ljk3Mjg0NyA1OC45Mzc1NyIvPiYjeGE7ICAgPC9nPiYjeGE7ICAgPGcgaWQ9ImxpbmUyZF8zNSI+JiN4YTsgICAgPHBhdGggc3R5bGU9ImZpbGw6IG5vbmU7IHN0cm9rZTogIzM1Yjc3OTsgc3Ryb2tlLXdpZHRoOiAxLjU7IHN0cm9rZS1saW5lY2FwOiBzcXVhcmUiIGNsaXAtcGF0aD0idXJsKCNwZDU2MzhmOWQxMykiIGQ9Ik0gMTE4LjA3MTM5MyAxMTQuNjExNzkgJiMxMDtMIDE2NC40Mjk1OTEgMTE0LjAzODg0OCAmIzEwO0wgMjIyLjgwNjU4MiAxMTMuMDk3ODAyICYjMTA7TCAyMjQuNTIzNTUzIDExMy44OTY1OTYgJiMxMDtMIDIyOS42NzQ0NjQgMTEzLjc3MTYwOCAmIzEwO0wgMjMxLjM5MTQzNCAxMTIuNDI3ODY5ICYjMTA7TCAyOTguMzUzMjc2IDExMS4zMjQ1NzQgJiMxMDtMIDMwMC4wNzAyNDcgMTEzLjA0ODYwMyAmIzEwO0wgMzAxLjc4NzIxNyAxMTIuOTA3OTIxICYjMTA7TCAzMDMuNTA0MTg3IDExMi4xMjQ0NjcgJiMxMDtMIDM0OC4xNDU0MTYgMTA2LjgxNjc3OSAmIzEwO0wgMzQ5Ljg2MjM4NiAxMDYuODM4NzU0ICYjMTA7TCAzOTIuNzg2NjQ0IDEwMy40MDA3MzkgJiMxMDtMIDM5NC41MDM2MTQgMTAyLjc3Mjg5MyAmIzEwO0wgNDQwLjg2MTgxMyA5OC45MzQ5ODUgJiMxMDtMIDQ4OC45MzY5ODIgOTQuNzMxNzE1ICYjMTA7TCA1MjQuOTkzMzU5IDkxLjQzODEyOSAmIzEwO0wgNTI2LjcxMDMyOSA5MC4yNDAyMTIgJiMxMDtMIDU3OC4yMTk0MzkgODEuOTk4MzQ5ICYjMTA7TCA2MDIuMjU3MDIzIDc4LjA4MDYzMyAmIzEwO0wgNjAzLjk3Mzk5MyA3OC43OTM0MjEgJiMxMDtMIDYzNi41OTY0MjkgNzIuNTI2MzM4ICYjMTA7TCA2MzguMzEzNCA3My4zOTcwNTcgJiMxMDtMIDY4MS4yMzc2NTggNjMuNTE2NzgzICYjMTA7TCA2ODIuOTU0NjI4IDYxLjIyOTcgJiMxMDtMIDcxMC40MjYxNTMgNTUuMjIxMjkgJiMxMDtMIDcxMi4xNDMxMjQgNTYuMjcwMDg5ICYjMTA7TCA3ODUuOTcyODQ3IDM2LjA0Njg2MSAmIzEwO0wgNzg1Ljk3Mjg0NyAzNi4wNDY4NjEiLz4mI3hhOyAgIDwvZz4mI3hhOyAgIDxnIGlkPSJsaW5lMmRfMzYiPiYjeGE7ICAgIDxwYXRoIHN0eWxlPSJmaWxsOiBub25lOyBzdHJva2U6ICM5MGQ3NDM7IHN0cm9rZS13aWR0aDogMS41OyBzdHJva2UtbGluZWNhcDogc3F1YXJlIiBjbGlwLXBhdGg9InVybCgjcGQ1NjM4ZjlkMTMpIiBkPSJNIDExOC4wNzEzOTMgMTA2LjI2MTk4MiAmIzEwO0wgMjE0LjIyMTczMSAxMDMuNDM1NzMxICYjMTA7TCAyMTUuOTM4NzAxIDEwMy4xNTgwMjEgJiMxMDtMIDMwMS43ODcyMTcgMTAyLjQ3MjUwOCAmIzEwO0wgMzA1LjIyMTE1OCAxMDIuMzE4MDY3ICYjMTA7TCAzNzUuNjE2OTQxIDk3LjQxMDQ2OCAmIzEwO0wgMzc3LjMzMzkxMSA5Ny40OTA2MTQgJiMxMDtMIDUwMC45NTU3NzQgODkuNTg1NjA0ICYjMTA7TCA1MjYuNzEwMzI5IDg3Ljk2OTIzNCAmIzEwO0wgNTI4LjQyNzI5OSA4NS4zMzA0MDYgJiMxMDtMIDU5NS4zODkxNDIgODAuNzE5ODA2ICYjMTA7TCA2MDUuNjkwOTY0IDc5Ljk4NjM5ICYjMTA7TCA2NTcuMjAwMDczIDcxLjYwMzIyNCAmIzEwO0wgNjk2LjY5MDM5MSA2NS4zMzQ1NzUgJiMxMDtMIDY5OC40MDczNjEgNjQuNzIzODI2ICYjMTA7TCA3NDguMTk5NSA1OC43MzM5MzUgJiMxMDtMIDc0OS45MTY0NzEgNTYuNzM2MjA0ICYjMTA7TCA3NzMuOTU0MDU1IDU0Ljc4Mjc4NiAmIzEwO0wgNzc1LjY3MTAyNSA1My4xMjMxMzYgJiMxMDtMIDc4NS45NzI4NDcgNTEuMzc2NzU5ICYjMTA7TCA3ODUuOTcyODQ3IDUxLjM3Njc1OSIvPiYjeGE7ICAgPC9nPiYjeGE7ICAgPGcgaWQ9ImxpbmUyZF8zNyI+JiN4YTsgICAgPHBhdGggc3R5bGU9ImZpbGw6IG5vbmU7IHN0cm9rZTogI2ZkZTcyNTsgc3Ryb2tlLXdpZHRoOiAxLjU7IHN0cm9rZS1saW5lY2FwOiBzcXVhcmUiIGNsaXAtcGF0aD0idXJsKCNwZDU2MzhmOWQxMykiIGQ9Ik0gMTE4LjA3MTM5MyAxMTUuNjcyNTI2ICYjMTA7TCAxNTIuNDEwNzk5IDExNS40NDAwMTUgJiMxMDtMIDE1NC4xMjc3NjkgMTE0Ljk4Mzc5NSAmIzEwO0wgMTU3LjU2MTcxIDExNC45OTY3MzEgJiMxMDtMIDE1OS4yNzg2OCAxMTYuNjA1MjA1ICYjMTA7TCAyMDkuMDcwODIgMTE1Ljc4NTU1MyAmIzEwO0wgMjU4Ljg2Mjk1OSAxMTUuMTg0MjA1ICYjMTA7TCAzMDguNjU1MDk4IDExNC44MDExNiAmIzEwO0wgMzM3Ljg0MzU5NCAxMTQuNjc3OTU4ICYjMTA7TCAzMzkuNTYwNTY0IDExMi45Mjg5MTggJiMxMDtMIDM4Ny42MzU3MzMgMTEyLjAwMDI0MSAmIzEwO0wgNDM1LjcxMDkwMiAxMTEuMjkwOTgyICYjMTA7TCA0ODAuMzUyMTMgMTEwLjgyODk4NSAmIzEwO0wgNDgyLjA2OTEwMSAxMDkuMTc4ODYzICYjMTA7TCA0OTQuMDg3ODkzIDEwOS4wMjEwNTIgJiMxMDtMIDQ5NS44MDQ4NjMgMTEwLjI1NDE3ICYjMTA7TCA1NDIuMTYzMDYyIDEwOC41MzM2NjcgJiMxMDtMIDU4OC41MjEyNiAxMDcuMDI4ODA3ICYjMTA7TCA2MjEuMTQzNjk3IDEwNi4xNDIyNTIgJiMxMDtMIDY2Ny41MDE4OTUgMTA2LjMyMTQ5ICYjMTA7TCA2NzcuODAzNzE3IDEwNi4zOTA4NjIgJiMxMDtMIDY3OS41MjA2ODcgMTA2LjUzNDYwOCAmIzEwO0wgNzIwLjcyNzk3NSAxMDQuNzcxMzA0ICYjMTA7TCA3NjEuOTM1MjYzIDEwMy4yMzc0NDQgJiMxMDtMIDc4NS45NzI4NDcgMTAyLjQ0ODIxNSAmIzEwO0wgNzg1Ljk3Mjg0NyAxMDIuNDQ4MjE1Ii8+JiN4YTsgICA8L2c+JiN4YTsgICA8ZyBpZD0icGF0Y2hfMyI+JiN4YTsgICAgPHBhdGggc3R5bGU9ImZpbGw6IG5vbmU7IHN0cm9rZTogIzAwMDAwMDsgc3Ryb2tlLXdpZHRoOiAwLjg7IHN0cm9rZS1saW5lam9pbjogbWl0ZXI7IHN0cm9rZS1saW5lY2FwOiBzcXVhcmUiIGQ9Ik0gODQuNjc2MzIgMjIzLjEyNzkxICYjMTA7TCA4NC42NzYzMiAyNy4xMzgyNCIvPiYjeGE7ICAgPC9nPiYjeGE7ICAgPGcgaWQ9InBhdGNoXzQiPiYjeGE7ICAgIDxwYXRoIHN0eWxlPSJmaWxsOiBub25lOyBzdHJva2U6ICMwMDAwMDA7IHN0cm9rZS13aWR0aDogMC44OyBzdHJva2UtbGluZWpvaW46IG1pdGVyOyBzdHJva2UtbGluZWNhcDogc3F1YXJlIiBkPSJNIDgxOS4zNjc5MiAyMjMuMTI3OTEgJiMxMDtMIDgxOS4zNjc5MiAyNy4xMzgyNCIvPiYjeGE7ICAgPC9nPiYjeGE7ICAgPGcgaWQ9InBhdGNoXzUiPiYjeGE7ICAgIDxwYXRoIHN0eWxlPSJmaWxsOiBub25lOyBzdHJva2U6ICMwMDAwMDA7IHN0cm9rZS13aWR0aDogMC44OyBzdHJva2UtbGluZWpvaW46IG1pdGVyOyBzdHJva2UtbGluZWNhcDogc3F1YXJlIiBkPSJNIDg0LjY3NjMyIDIyMy4xMjc5MSAmIzEwO0wgODE5LjM2NzkyIDIyMy4xMjc5MSIvPiYjeGE7ICAgPC9nPiYjeGE7ICAgPGcgaWQ9InBhdGNoXzYiPiYjeGE7ICAgIDxwYXRoIHN0eWxlPSJmaWxsOiBub25lOyBzdHJva2U6ICMwMDAwMDA7IHN0cm9rZS13aWR0aDogMC44OyBzdHJva2UtbGluZWpvaW46IG1pdGVyOyBzdHJva2UtbGluZWNhcDogc3F1YXJlIiBkPSJNIDg0LjY3NjMyIDI3LjEzODI0ICYjMTA7TCA4MTkuMzY3OTIgMjcuMTM4MjQiLz4mI3hhOyAgIDwvZz4mI3hhOyAgIDxnIGlkPSJ0ZXh0XzE2Ij4mI3hhOyAgICAmI3hhOyAgICA8ZyB0cmFuc2Zvcm09InRyYW5zbGF0ZSg0MzYuOTAyMTIgMjEuMTM4MjQpIHNjYWxlKDAuMTIgLTAuMTIpIj4mI3hhOyAgICAgPGRlZnM+JiN4YTsgICAgICA8cGF0aCB0cmFuc2Zvcm09InNjYWxlKDAuMDE1NjI1KSIgZD0iTSAxMzQ0IDQ4OTEgJiMxMDtMIDEzNDQgLTE1MDkgJiMxMDtMIDgxMyAtMTUwOSAmIzEwO0wgODEzIDQ4OTEgJiMxMDtMIDEzNDQgNDg5MSAmIzEwO3oiIGlkPSJEZWphVnVTYW5zLTdjIi8+JiN4YTsgICAgICA8cGF0aCB0cmFuc2Zvcm09InNjYWxlKDAuMDE1NjI1KSIgZD0iTSAxMjU5IDIyMjggJiMxMDtMIDEyNTkgNTE5ICYjMTA7TCAyMjcyIDUxOSAmIzEwO1EgMjc4MSA1MTkgMzAyNiA3MzAgJiMxMDtRIDMyNzIgOTQxIDMyNzIgMTM3NSAmIzEwO1EgMzI3MiAxODEzIDMwMjYgMjAyMCAmIzEwO1EgMjc4MSAyMjI4IDIyNzIgMjIyOCAmIzEwO0wgMTI1OSAyMjI4ICYjMTA7eiYjMTA7TSAxMjU5IDQxNDcgJiMxMDtMIDEyNTkgMjc0MSAmIzEwO0wgMjE5NCAyNzQxICYjMTA7USAyNjU2IDI3NDEgMjg4MiAyOTE0ICYjMTA7USAzMTA5IDMwODggMzEwOSAzNDQ0ICYjMTA7USAzMTA5IDM3OTcgMjg4MiAzOTcyICYjMTA7USAyNjU2IDQxNDcgMjE5NCA0MTQ3ICYjMTA7TCAxMjU5IDQxNDcgJiMxMDt6JiMxMDtNIDYyOCA0NjY2ICYjMTA7TCAyMjQxIDQ2NjYgJiMxMDtRIDI5NjMgNDY2NiAzMzUzIDQzNjYgJiMxMDtRIDM3NDQgNDA2NiAzNzQ0IDM1MTMgJiMxMDtRIDM3NDQgMzA4NCAzNTQ0IDI4MzEgJiMxMDtRIDMzNDQgMjU3OCAyOTU2IDI1MTYgJiMxMDtRIDM0MjIgMjQxNiAzNjgwIDIwOTggJiMxMDtRIDM5MzggMTc4MSAzOTM4IDEzMDYgJiMxMDtRIDM5MzggNjgxIDM1MTMgMzQwICYjMTA7USAzMDg4IDAgMjMwMyAwICYjMTA7TCA2MjggMCAmIzEwO0wgNjI4IDQ2NjYgJiMxMDt6IiBpZD0iRGVqYVZ1U2Fucy00MiIvPiYjeGE7ICAgICA8L2RlZnM+JiN4YTsgICAgIDx1c2UgdHJhbnNmb3JtPSJ0cmFuc2xhdGUoMCAwLjU3ODEyNSkiIHhsaW5rOmhyZWY9IiNEZWphVnVTYW5zLTdjIi8+JiN4YTsgICAgIDx1c2UgdHJhbnNmb3JtPSJ0cmFuc2xhdGUoMzMuNjkxNDA2IDAuNTc4MTI1KSIgeGxpbms6aHJlZj0iI0RlamFWdVNhbnMtN2MiLz4mI3hhOyAgICAgPHVzZSB0cmFuc2Zvcm09InRyYW5zbGF0ZSg2Ny4zODI4MTIgMC41NzgxMjUpIiB4bGluazpocmVmPSIjRGVqYVZ1U2Fucy00MiIvPiYjeGE7ICAgICA8dXNlIHRyYW5zZm9ybT0idHJhbnNsYXRlKDEzNS45ODYzMjggMC41NzgxMjUpIiB4bGluazpocmVmPSIjRGVqYVZ1U2Fucy03YyIvPiYjeGE7ICAgICA8dXNlIHRyYW5zZm9ybT0idHJhbnNsYXRlKDE2OS42Nzc3MzQgMC41NzgxMjUpIiB4bGluazpocmVmPSIjRGVqYVZ1U2Fucy03YyIvPiYjeGE7ICAgICA8dXNlIHRyYW5zZm9ybT0idHJhbnNsYXRlKDIwNC4zMjYxNzIgLTE1LjgyODEyNSkgc2NhbGUoMC43KSIgeGxpbms6aHJlZj0iI0RlamFWdVNhbnMtMzIiLz4mI3hhOyAgICA8L2c+JiN4YTsgICA8L2c+JiN4YTsgIDwvZz4mI3hhOyAgPGcgaWQ9ImF4ZXNfMiI+JiN4YTsgICA8ZyBpZD0icGF0Y2hfNyI+JiN4YTsgICAgPHBhdGggc3R5bGU9ImZpbGw6ICNmZmZmZmYiIGQ9Ik0gODQuNjc2MzIgNDYzLjYwNzIzNSAmIzEwO0wgODE5LjM2NzkyIDQ2My42MDcyMzUgJiMxMDtMIDgxOS4zNjc5MiAyNjcuNjE3NTY1ICYjMTA7TCA4NC42NzYzMiAyNjcuNjE3NTY1ICYjMTA7eiIvPiYjeGE7ICAgPC9nPiYjeGE7ICAgPGcgaWQ9Im1hdHBsb3RsaWIuYXhpc18zIj4mI3hhOyAgICA8ZyBpZD0ieHRpY2tfOSI+JiN4YTsgICAgIDxnIGlkPSJsaW5lMmRfMzgiPiYjeGE7ICAgICAgPHBhdGggc3R5bGU9ImZpbGw6IG5vbmU7IHN0cm9rZTogI2IwYjBiMDsgc3Ryb2tlLXdpZHRoOiAwLjg7IHN0cm9rZS1saW5lY2FwOiBzcXVhcmUiIGNsaXAtcGF0aD0idXJsKCNwM2Y2NWFiZDI4MykiIGQ9Ik0gMTE4LjA3MTM5MyA0NjMuNjA3MjM1ICYjMTA7TCAxMTguMDcxMzkzIDI2Ny42MTc1NjUiLz4mI3hhOyAgICAgPC9nPiYjeGE7ICAgICA8ZyBpZD0ibGluZTJkXzM5Ij4mI3hhOyAgICAgIDxnPiYjeGE7ICAgICAgIDx1c2Ugc3R5bGU9InN0cm9rZTogIzAwMDAwMDsgc3Ryb2tlLXdpZHRoOiAwLjgiIHk9IjQ2My42MDcyMzUiIHg9IjExOC4wNzEzOTMiIHhsaW5rOmhyZWY9IiNtZThmODM2ODhhYyIvPiYjeGE7ICAgICAgPC9nPiYjeGE7ICAgICA8L2c+JiN4YTsgICAgIDxnIGlkPSJ0ZXh0XzE3Ij4mI3hhOyAgICAgICYjeGE7ICAgICAgPGcgdHJhbnNmb3JtPSJ0cmFuc2xhdGUoMTE0Ljg5MDE0MyA0NzguMjA1NjcyKSBzY2FsZSgwLjEgLTAuMSkiPiYjeGE7ICAgICAgIDx1c2UgeGxpbms6aHJlZj0iI0RlamFWdVNhbnMtMzAiLz4mI3hhOyAgICAgIDwvZz4mI3hhOyAgICAgPC9nPiYjeGE7ICAgIDwvZz4mI3hhOyAgICA8ZyBpZD0ieHRpY2tfMTAiPiYjeGE7ICAgICA8ZyBpZD0ibGluZTJkXzQwIj4mI3hhOyAgICAgIDxwYXRoIHN0eWxlPSJmaWxsOiBub25lOyBzdHJva2U6ICNiMGIwYjA7IHN0cm9rZS13aWR0aDogMC44OyBzdHJva2UtbGluZWNhcDogc3F1YXJlIiBjbGlwLXBhdGg9InVybCgjcDNmNjVhYmQyODMpIiBkPSJNIDIxMy4zNjMyNDUgNDYzLjYwNzIzNSAmIzEwO0wgMjEzLjM2MzI0NSAyNjcuNjE3NTY1Ii8+JiN4YTsgICAgIDwvZz4mI3hhOyAgICAgPGcgaWQ9ImxpbmUyZF80MSI+JiN4YTsgICAgICA8Zz4mI3hhOyAgICAgICA8dXNlIHN0eWxlPSJzdHJva2U6ICMwMDAwMDA7IHN0cm9rZS13aWR0aDogMC44IiB5PSI0NjMuNjA3MjM1IiB4PSIyMTMuMzYzMjQ1IiB4bGluazpocmVmPSIjbWU4ZjgzNjg4YWMiLz4mI3hhOyAgICAgIDwvZz4mI3hhOyAgICAgPC9nPiYjeGE7ICAgICA8ZyBpZD0idGV4dF8xOCI+JiN4YTsgICAgICAmI3hhOyAgICAgIDxnIHRyYW5zZm9ybT0idHJhbnNsYXRlKDIxMC4xODE5OTUgNDc4LjIwNTY3Mikgc2NhbGUoMC4xIC0wLjEpIj4mI3hhOyAgICAgICA8dXNlIHhsaW5rOmhyZWY9IiNEZWphVnVTYW5zLTM1Ii8+JiN4YTsgICAgICA8L2c+JiN4YTsgICAgIDwvZz4mI3hhOyAgICA8L2c+JiN4YTsgICAgPGcgaWQ9Inh0aWNrXzExIj4mI3hhOyAgICAgPGcgaWQ9ImxpbmUyZF80MiI+JiN4YTsgICAgICA8cGF0aCBzdHlsZT0iZmlsbDogbm9uZTsgc3Ryb2tlOiAjYjBiMGIwOyBzdHJva2Utd2lkdGg6IDAuODsgc3Ryb2tlLWxpbmVjYXA6IHNxdWFyZSIgY2xpcC1wYXRoPSJ1cmwoI3AzZjY1YWJkMjgzKSIgZD0iTSAzMDguNjU1MDk4IDQ2My42MDcyMzUgJiMxMDtMIDMwOC42NTUwOTggMjY3LjYxNzU2NSIvPiYjeGE7ICAgICA8L2c+JiN4YTsgICAgIDxnIGlkPSJsaW5lMmRfNDMiPiYjeGE7ICAgICAgPGc+JiN4YTsgICAgICAgPHVzZSBzdHlsZT0ic3Ryb2tlOiAjMDAwMDAwOyBzdHJva2Utd2lkdGg6IDAuOCIgeT0iNDYzLjYwNzIzNSIgeD0iMzA4LjY1NTA5OCIgeGxpbms6aHJlZj0iI21lOGY4MzY4OGFjIi8+JiN4YTsgICAgICA8L2c+JiN4YTsgICAgIDwvZz4mI3hhOyAgICAgPGcgaWQ9InRleHRfMTkiPiYjeGE7ICAgICAgJiN4YTsgICAgICA8ZyB0cmFuc2Zvcm09InRyYW5zbGF0ZSgzMDIuMjkyNTk4IDQ3OC4yMDU2NzIpIHNjYWxlKDAuMSAtMC4xKSI+JiN4YTsgICAgICAgPHVzZSB4bGluazpocmVmPSIjRGVqYVZ1U2Fucy0zMSIvPiYjeGE7ICAgICAgIDx1c2UgeD0iNjMuNjIzMDQ3IiB4bGluazpocmVmPSIjRGVqYVZ1U2Fucy0zMCIvPiYjeGE7ICAgICAgPC9nPiYjeGE7ICAgICA8L2c+JiN4YTsgICAgPC9nPiYjeGE7ICAgIDxnIGlkPSJ4dGlja18xMiI+JiN4YTsgICAgIDxnIGlkPSJsaW5lMmRfNDQiPiYjeGE7ICAgICAgPHBhdGggc3R5bGU9ImZpbGw6IG5vbmU7IHN0cm9rZTogI2IwYjBiMDsgc3Ryb2tlLXdpZHRoOiAwLjg7IHN0cm9rZS1saW5lY2FwOiBzcXVhcmUiIGNsaXAtcGF0aD0idXJsKCNwM2Y2NWFiZDI4MykiIGQ9Ik0gNDAzLjk0Njk1MSA0NjMuNjA3MjM1ICYjMTA7TCA0MDMuOTQ2OTUxIDI2Ny42MTc1NjUiLz4mI3hhOyAgICAgPC9nPiYjeGE7ICAgICA8ZyBpZD0ibGluZTJkXzQ1Ij4mI3hhOyAgICAgIDxnPiYjeGE7ICAgICAgIDx1c2Ugc3R5bGU9InN0cm9rZTogIzAwMDAwMDsgc3Ryb2tlLXdpZHRoOiAwLjgiIHk9IjQ2My42MDcyMzUiIHg9IjQwMy45NDY5NTEiIHhsaW5rOmhyZWY9IiNtZThmODM2ODhhYyIvPiYjeGE7ICAgICAgPC9nPiYjeGE7ICAgICA8L2c+JiN4YTsgICAgIDxnIGlkPSJ0ZXh0XzIwIj4mI3hhOyAgICAgICYjeGE7ICAgICAgPGcgdHJhbnNmb3JtPSJ0cmFuc2xhdGUoMzk3LjU4NDQ1MSA0NzguMjA1NjcyKSBzY2FsZSgwLjEgLTAuMSkiPiYjeGE7ICAgICAgIDx1c2UgeGxpbms6aHJlZj0iI0RlamFWdVNhbnMtMzEiLz4mI3hhOyAgICAgICA8dXNlIHg9IjYzLjYyMzA0NyIgeGxpbms6aHJlZj0iI0RlamFWdVNhbnMtMzUiLz4mI3hhOyAgICAgIDwvZz4mI3hhOyAgICAgPC9nPiYjeGE7ICAgIDwvZz4mI3hhOyAgICA8ZyBpZD0ieHRpY2tfMTMiPiYjeGE7ICAgICA8ZyBpZD0ibGluZTJkXzQ2Ij4mI3hhOyAgICAgIDxwYXRoIHN0eWxlPSJmaWxsOiBub25lOyBzdHJva2U6ICNiMGIwYjA7IHN0cm9rZS13aWR0aDogMC44OyBzdHJva2UtbGluZWNhcDogc3F1YXJlIiBjbGlwLXBhdGg9InVybCgjcDNmNjVhYmQyODMpIiBkPSJNIDQ5OS4yMzg4MDQgNDYzLjYwNzIzNSAmIzEwO0wgNDk5LjIzODgwNCAyNjcuNjE3NTY1Ii8+JiN4YTsgICAgIDwvZz4mI3hhOyAgICAgPGcgaWQ9ImxpbmUyZF80NyI+JiN4YTsgICAgICA8Zz4mI3hhOyAgICAgICA8dXNlIHN0eWxlPSJzdHJva2U6ICMwMDAwMDA7IHN0cm9rZS13aWR0aDogMC44IiB5PSI0NjMuNjA3MjM1IiB4PSI0OTkuMjM4ODA0IiB4bGluazpocmVmPSIjbWU4ZjgzNjg4YWMiLz4mI3hhOyAgICAgIDwvZz4mI3hhOyAgICAgPC9nPiYjeGE7ICAgICA8ZyBpZD0idGV4dF8yMSI+JiN4YTsgICAgICAmI3hhOyAgICAgIDxnIHRyYW5zZm9ybT0idHJhbnNsYXRlKDQ5Mi44NzYzMDQgNDc4LjIwNTY3Mikgc2NhbGUoMC4xIC0wLjEpIj4mI3hhOyAgICAgICA8dXNlIHhsaW5rOmhyZWY9IiNEZWphVnVTYW5zLTMyIi8+JiN4YTsgICAgICAgPHVzZSB4PSI2My42MjMwNDciIHhsaW5rOmhyZWY9IiNEZWphVnVTYW5zLTMwIi8+JiN4YTsgICAgICA8L2c+JiN4YTsgICAgIDwvZz4mI3hhOyAgICA8L2c+JiN4YTsgICAgPGcgaWQ9Inh0aWNrXzE0Ij4mI3hhOyAgICAgPGcgaWQ9ImxpbmUyZF80OCI+JiN4YTsgICAgICA8cGF0aCBzdHlsZT0iZmlsbDogbm9uZTsgc3Ryb2tlOiAjYjBiMGIwOyBzdHJva2Utd2lkdGg6IDAuODsgc3Ryb2tlLWxpbmVjYXA6IHNxdWFyZSIgY2xpcC1wYXRoPSJ1cmwoI3AzZjY1YWJkMjgzKSIgZD0iTSA1OTQuNTMwNjU3IDQ2My42MDcyMzUgJiMxMDtMIDU5NC41MzA2NTcgMjY3LjYxNzU2NSIvPiYjeGE7ICAgICA8L2c+JiN4YTsgICAgIDxnIGlkPSJsaW5lMmRfNDkiPiYjeGE7ICAgICAgPGc+JiN4YTsgICAgICAgPHVzZSBzdHlsZT0ic3Ryb2tlOiAjMDAwMDAwOyBzdHJva2Utd2lkdGg6IDAuOCIgeT0iNDYzLjYwNzIzNSIgeD0iNTk0LjUzMDY1NyIgeGxpbms6aHJlZj0iI21lOGY4MzY4OGFjIi8+JiN4YTsgICAgICA8L2c+JiN4YTsgICAgIDwvZz4mI3hhOyAgICAgPGcgaWQ9InRleHRfMjIiPiYjeGE7ICAgICAgJiN4YTsgICAgICA8ZyB0cmFuc2Zvcm09InRyYW5zbGF0ZSg1ODguMTY4MTU3IDQ3OC4yMDU2NzIpIHNjYWxlKDAuMSAtMC4xKSI+JiN4YTsgICAgICAgPHVzZSB4bGluazpocmVmPSIjRGVqYVZ1U2Fucy0zMiIvPiYjeGE7ICAgICAgIDx1c2UgeD0iNjMuNjIzMDQ3IiB4bGluazpocmVmPSIjRGVqYVZ1U2Fucy0zNSIvPiYjeGE7ICAgICAgPC9nPiYjeGE7ICAgICA8L2c+JiN4YTsgICAgPC9nPiYjeGE7ICAgIDxnIGlkPSJ4dGlja18xNSI+JiN4YTsgICAgIDxnIGlkPSJsaW5lMmRfNTAiPiYjeGE7ICAgICAgPHBhdGggc3R5bGU9ImZpbGw6IG5vbmU7IHN0cm9rZTogI2IwYjBiMDsgc3Ryb2tlLXdpZHRoOiAwLjg7IHN0cm9rZS1saW5lY2FwOiBzcXVhcmUiIGNsaXAtcGF0aD0idXJsKCNwM2Y2NWFiZDI4MykiIGQ9Ik0gNjg5LjgyMjUwOSA0NjMuNjA3MjM1ICYjMTA7TCA2ODkuODIyNTA5IDI2Ny42MTc1NjUiLz4mI3hhOyAgICAgPC9nPiYjeGE7ICAgICA8ZyBpZD0ibGluZTJkXzUxIj4mI3hhOyAgICAgIDxnPiYjeGE7ICAgICAgIDx1c2Ugc3R5bGU9InN0cm9rZTogIzAwMDAwMDsgc3Ryb2tlLXdpZHRoOiAwLjgiIHk9IjQ2My42MDcyMzUiIHg9IjY4OS44MjI1MDkiIHhsaW5rOmhyZWY9IiNtZThmODM2ODhhYyIvPiYjeGE7ICAgICAgPC9nPiYjeGE7ICAgICA8L2c+JiN4YTsgICAgIDxnIGlkPSJ0ZXh0XzIzIj4mI3hhOyAgICAgICYjeGE7ICAgICAgPGcgdHJhbnNmb3JtPSJ0cmFuc2xhdGUoNjgzLjQ2MDAwOSA0NzguMjA1NjcyKSBzY2FsZSgwLjEgLTAuMSkiPiYjeGE7ICAgICAgIDx1c2UgeGxpbms6aHJlZj0iI0RlamFWdVNhbnMtMzMiLz4mI3hhOyAgICAgICA8dXNlIHg9IjYzLjYyMzA0NyIgeGxpbms6aHJlZj0iI0RlamFWdVNhbnMtMzAiLz4mI3hhOyAgICAgIDwvZz4mI3hhOyAgICAgPC9nPiYjeGE7ICAgIDwvZz4mI3hhOyAgICA8ZyBpZD0ieHRpY2tfMTYiPiYjeGE7ICAgICA8ZyBpZD0ibGluZTJkXzUyIj4mI3hhOyAgICAgIDxwYXRoIHN0eWxlPSJmaWxsOiBub25lOyBzdHJva2U6ICNiMGIwYjA7IHN0cm9rZS13aWR0aDogMC44OyBzdHJva2UtbGluZWNhcDogc3F1YXJlIiBjbGlwLXBhdGg9InVybCgjcDNmNjVhYmQyODMpIiBkPSJNIDc4NS4xMTQzNjIgNDYzLjYwNzIzNSAmIzEwO0wgNzg1LjExNDM2MiAyNjcuNjE3NTY1Ii8+JiN4YTsgICAgIDwvZz4mI3hhOyAgICAgPGcgaWQ9ImxpbmUyZF81MyI+JiN4YTsgICAgICA8Zz4mI3hhOyAgICAgICA8dXNlIHN0eWxlPSJzdHJva2U6ICMwMDAwMDA7IHN0cm9rZS13aWR0aDogMC44IiB5PSI0NjMuNjA3MjM1IiB4PSI3ODUuMTE0MzYyIiB4bGluazpocmVmPSIjbWU4ZjgzNjg4YWMiLz4mI3hhOyAgICAgIDwvZz4mI3hhOyAgICAgPC9nPiYjeGE7ICAgICA8ZyBpZD0idGV4dF8yNCI+JiN4YTsgICAgICAmI3hhOyAgICAgIDxnIHRyYW5zZm9ybT0idHJhbnNsYXRlKDc3OC43NTE4NjIgNDc4LjIwNTY3Mikgc2NhbGUoMC4xIC0wLjEpIj4mI3hhOyAgICAgICA8dXNlIHhsaW5rOmhyZWY9IiNEZWphVnVTYW5zLTMzIi8+JiN4YTsgICAgICAgPHVzZSB4PSI2My42MjMwNDciIHhsaW5rOmhyZWY9IiNEZWphVnVTYW5zLTM1Ii8+JiN4YTsgICAgICA8L2c+JiN4YTsgICAgIDwvZz4mI3hhOyAgICA8L2c+JiN4YTsgICA8L2c+JiN4YTsgICA8ZyBpZD0ibWF0cGxvdGxpYi5heGlzXzQiPiYjeGE7ICAgIDxnIGlkPSJ5dGlja184Ij4mI3hhOyAgICAgPGcgaWQ9ImxpbmUyZF81NCI+JiN4YTsgICAgICA8cGF0aCBzdHlsZT0iZmlsbDogbm9uZTsgc3Ryb2tlOiAjYjBiMGIwOyBzdHJva2Utd2lkdGg6IDAuODsgc3Ryb2tlLWxpbmVjYXA6IHNxdWFyZSIgY2xpcC1wYXRoPSJ1cmwoI3AzZjY1YWJkMjgzKSIgZD0iTSA4NC42NzYzMiA0NDEuMjIxMDg5ICYjMTA7TCA4MTkuMzY3OTIgNDQxLjIyMTA4OSIvPiYjeGE7ICAgICA8L2c+JiN4YTsgICAgIDxnIGlkPSJsaW5lMmRfNTUiPiYjeGE7ICAgICAgPGc+JiN4YTsgICAgICAgPHVzZSBzdHlsZT0ic3Ryb2tlOiAjMDAwMDAwOyBzdHJva2Utd2lkdGg6IDAuOCIgeT0iNDQxLjIyMTA4OSIgeD0iODQuNjc2MzIiIHhsaW5rOmhyZWY9IiNtZDBmOWZjZTY2NCIvPiYjeGE7ICAgICAgPC9nPiYjeGE7ICAgICA8L2c+JiN4YTsgICAgIDxnIGlkPSJ0ZXh0XzI1Ij4mI3hhOyAgICAgICYjeGE7ICAgICAgPGcgdHJhbnNmb3JtPSJ0cmFuc2xhdGUoNTIuMjI2MzIgNDQ1LjAyMDMwOCkgc2NhbGUoMC4xIC0wLjEpIj4mI3hhOyAgICAgICA8dXNlIHhsaW5rOmhyZWY9IiNEZWphVnVTYW5zLTMxIi8+JiN4YTsgICAgICAgPHVzZSB4PSI2My42MjMwNDciIHhsaW5rOmhyZWY9IiNEZWphVnVTYW5zLTM0Ii8+JiN4YTsgICAgICAgPHVzZSB4PSIxMjcuMjQ2MDk0IiB4bGluazpocmVmPSIjRGVqYVZ1U2Fucy0zMCIvPiYjeGE7ICAgICAgIDx1c2UgeD0iMTkwLjg2OTE0MSIgeGxpbms6aHJlZj0iI0RlamFWdVNhbnMtMzAiLz4mI3hhOyAgICAgIDwvZz4mI3hhOyAgICAgPC9nPiYjeGE7ICAgIDwvZz4mI3hhOyAgICA8ZyBpZD0ieXRpY2tfOSI+JiN4YTsgICAgIDxnIGlkPSJsaW5lMmRfNTYiPiYjeGE7ICAgICAgPHBhdGggc3R5bGU9ImZpbGw6IG5vbmU7IHN0cm9rZTogI2IwYjBiMDsgc3Ryb2tlLXdpZHRoOiAwLjg7IHN0cm9rZS1saW5lY2FwOiBzcXVhcmUiIGNsaXAtcGF0aD0idXJsKCNwM2Y2NWFiZDI4MykiIGQ9Ik0gODQuNjc2MzIgNDAzLjUxNzcxICYjMTA7TCA4MTkuMzY3OTIgNDAzLjUxNzcxIi8+JiN4YTsgICAgIDwvZz4mI3hhOyAgICAgPGcgaWQ9ImxpbmUyZF81NyI+JiN4YTsgICAgICA8Zz4mI3hhOyAgICAgICA8dXNlIHN0eWxlPSJzdHJva2U6ICMwMDAwMDA7IHN0cm9rZS13aWR0aDogMC44IiB5PSI0MDMuNTE3NzEiIHg9Ijg0LjY3NjMyIiB4bGluazpocmVmPSIjbWQwZjlmY2U2NjQiLz4mI3hhOyAgICAgIDwvZz4mI3hhOyAgICAgPC9nPiYjeGE7ICAgICA8ZyBpZD0idGV4dF8yNiI+JiN4YTsgICAgICAmI3hhOyAgICAgIDxnIHRyYW5zZm9ybT0idHJhbnNsYXRlKDUyLjIyNjMyIDQwNy4zMTY5MjkpIHNjYWxlKDAuMSAtMC4xKSI+JiN4YTsgICAgICAgPHVzZSB4bGluazpocmVmPSIjRGVqYVZ1U2Fucy0zMSIvPiYjeGE7ICAgICAgIDx1c2UgeD0iNjMuNjIzMDQ3IiB4bGluazpocmVmPSIjRGVqYVZ1U2Fucy0zNiIvPiYjeGE7ICAgICAgIDx1c2UgeD0iMTI3LjI0NjA5NCIgeGxpbms6aHJlZj0iI0RlamFWdVNhbnMtMzAiLz4mI3hhOyAgICAgICA8dXNlIHg9IjE5MC44NjkxNDEiIHhsaW5rOmhyZWY9IiNEZWphVnVTYW5zLTMwIi8+JiN4YTsgICAgICA8L2c+JiN4YTsgICAgIDwvZz4mI3hhOyAgICA8L2c+JiN4YTsgICAgPGcgaWQ9Inl0aWNrXzEwIj4mI3hhOyAgICAgPGcgaWQ9ImxpbmUyZF81OCI+JiN4YTsgICAgICA8cGF0aCBzdHlsZT0iZmlsbDogbm9uZTsgc3Ryb2tlOiAjYjBiMGIwOyBzdHJva2Utd2lkdGg6IDAuODsgc3Ryb2tlLWxpbmVjYXA6IHNxdWFyZSIgY2xpcC1wYXRoPSJ1cmwoI3AzZjY1YWJkMjgzKSIgZD0iTSA4NC42NzYzMiAzNjUuODE0MzMxICYjMTA7TCA4MTkuMzY3OTIgMzY1LjgxNDMzMSIvPiYjeGE7ICAgICA8L2c+JiN4YTsgICAgIDxnIGlkPSJsaW5lMmRfNTkiPiYjeGE7ICAgICAgPGc+JiN4YTsgICAgICAgPHVzZSBzdHlsZT0ic3Ryb2tlOiAjMDAwMDAwOyBzdHJva2Utd2lkdGg6IDAuOCIgeT0iMzY1LjgxNDMzMSIgeD0iODQuNjc2MzIiIHhsaW5rOmhyZWY9IiNtZDBmOWZjZTY2NCIvPiYjeGE7ICAgICAgPC9nPiYjeGE7ICAgICA8L2c+JiN4YTsgICAgIDxnIGlkPSJ0ZXh0XzI3Ij4mI3hhOyAgICAgICYjeGE7ICAgICAgPGcgdHJhbnNmb3JtPSJ0cmFuc2xhdGUoNTIuMjI2MzIgMzY5LjYxMzU0OSkgc2NhbGUoMC4xIC0wLjEpIj4mI3hhOyAgICAgICA8dXNlIHhsaW5rOmhyZWY9IiNEZWphVnVTYW5zLTMxIi8+JiN4YTsgICAgICAgPHVzZSB4PSI2My42MjMwNDciIHhsaW5rOmhyZWY9IiNEZWphVnVTYW5zLTM4Ii8+JiN4YTsgICAgICAgPHVzZSB4PSIxMjcuMjQ2MDk0IiB4bGluazpocmVmPSIjRGVqYVZ1U2Fucy0zMCIvPiYjeGE7ICAgICAgIDx1c2UgeD0iMTkwLjg2OTE0MSIgeGxpbms6aHJlZj0iI0RlamFWdVNhbnMtMzAiLz4mI3hhOyAgICAgIDwvZz4mI3hhOyAgICAgPC9nPiYjeGE7ICAgIDwvZz4mI3hhOyAgICA8ZyBpZD0ieXRpY2tfMTEiPiYjeGE7ICAgICA8ZyBpZD0ibGluZTJkXzYwIj4mI3hhOyAgICAgIDxwYXRoIHN0eWxlPSJmaWxsOiBub25lOyBzdHJva2U6ICNiMGIwYjA7IHN0cm9rZS13aWR0aDogMC44OyBzdHJva2UtbGluZWNhcDogc3F1YXJlIiBjbGlwLXBhdGg9InVybCgjcDNmNjVhYmQyODMpIiBkPSJNIDg0LjY3NjMyIDMyOC4xMTA5NTEgJiMxMDtMIDgxOS4zNjc5MiAzMjguMTEwOTUxIi8+JiN4YTsgICAgIDwvZz4mI3hhOyAgICAgPGcgaWQ9ImxpbmUyZF82MSI+JiN4YTsgICAgICA8Zz4mI3hhOyAgICAgICA8dXNlIHN0eWxlPSJzdHJva2U6ICMwMDAwMDA7IHN0cm9rZS13aWR0aDogMC44IiB5PSIzMjguMTEwOTUxIiB4PSI4NC42NzYzMiIgeGxpbms6aHJlZj0iI21kMGY5ZmNlNjY0Ii8+JiN4YTsgICAgICA8L2c+JiN4YTsgICAgIDwvZz4mI3hhOyAgICAgPGcgaWQ9InRleHRfMjgiPiYjeGE7ICAgICAgJiN4YTsgICAgICA8ZyB0cmFuc2Zvcm09InRyYW5zbGF0ZSg1Mi4yMjYzMiAzMzEuOTEwMTcpIHNjYWxlKDAuMSAtMC4xKSI+JiN4YTsgICAgICAgPHVzZSB4bGluazpocmVmPSIjRGVqYVZ1U2Fucy0zMiIvPiYjeGE7ICAgICAgIDx1c2UgeD0iNjMuNjIzMDQ3IiB4bGluazpocmVmPSIjRGVqYVZ1U2Fucy0zMCIvPiYjeGE7ICAgICAgIDx1c2UgeD0iMTI3LjI0NjA5NCIgeGxpbms6aHJlZj0iI0RlamFWdVNhbnMtMzAiLz4mI3hhOyAgICAgICA8dXNlIHg9IjE5MC44NjkxNDEiIHhsaW5rOmhyZWY9IiNEZWphVnVTYW5zLTMwIi8+JiN4YTsgICAgICA8L2c+JiN4YTsgICAgIDwvZz4mI3hhOyAgICA8L2c+JiN4YTsgICAgPGcgaWQ9Inl0aWNrXzEyIj4mI3hhOyAgICAgPGcgaWQ9ImxpbmUyZF82MiI+JiN4YTsgICAgICA8cGF0aCBzdHlsZT0iZmlsbDogbm9uZTsgc3Ryb2tlOiAjYjBiMGIwOyBzdHJva2Utd2lkdGg6IDAuODsgc3Ryb2tlLWxpbmVjYXA6IHNxdWFyZSIgY2xpcC1wYXRoPSJ1cmwoI3AzZjY1YWJkMjgzKSIgZD0iTSA4NC42NzYzMiAyOTAuNDA3NTcyICYjMTA7TCA4MTkuMzY3OTIgMjkwLjQwNzU3MiIvPiYjeGE7ICAgICA8L2c+JiN4YTsgICAgIDxnIGlkPSJsaW5lMmRfNjMiPiYjeGE7ICAgICAgPGc+JiN4YTsgICAgICAgPHVzZSBzdHlsZT0ic3Ryb2tlOiAjMDAwMDAwOyBzdHJva2Utd2lkdGg6IDAuOCIgeT0iMjkwLjQwNzU3MiIgeD0iODQuNjc2MzIiIHhsaW5rOmhyZWY9IiNtZDBmOWZjZTY2NCIvPiYjeGE7ICAgICAgPC9nPiYjeGE7ICAgICA8L2c+JiN4YTsgICAgIDxnIGlkPSJ0ZXh0XzI5Ij4mI3hhOyAgICAgICYjeGE7ICAgICAgPGcgdHJhbnNmb3JtPSJ0cmFuc2xhdGUoNTIuMjI2MzIgMjk0LjIwNjc5MSkgc2NhbGUoMC4xIC0wLjEpIj4mI3hhOyAgICAgICA8dXNlIHhsaW5rOmhyZWY9IiNEZWphVnVTYW5zLTMyIi8+JiN4YTsgICAgICAgPHVzZSB4PSI2My42MjMwNDciIHhsaW5rOmhyZWY9IiNEZWphVnVTYW5zLTMyIi8+JiN4YTsgICAgICAgPHVzZSB4PSIxMjcuMjQ2MDk0IiB4bGluazpocmVmPSIjRGVqYVZ1U2Fucy0zMCIvPiYjeGE7ICAgICAgIDx1c2UgeD0iMTkwLjg2OTE0MSIgeGxpbms6aHJlZj0iI0RlamFWdVNhbnMtMzAiLz4mI3hhOyAgICAgIDwvZz4mI3hhOyAgICAgPC9nPiYjeGE7ICAgIDwvZz4mI3hhOyAgIDwvZz4mI3hhOyAgIDxnIGlkPSJsaW5lMmRfNjQiPiYjeGE7ICAgIDxwYXRoIHN0eWxlPSJmaWxsOiBub25lOyBzdHJva2U6ICM0NDAxNTQ7IHN0cm9rZS13aWR0aDogMS41OyBzdHJva2UtbGluZWNhcDogc3F1YXJlIiBjbGlwLXBhdGg9InVybCgjcDNmNjVhYmQyODMpIiBkPSJNIDExOC4wNzEzOTMgNDU0LjY5ODYxNCAmIzEwO0wgMTM1LjI0MTA5NiA0NTQuNTE5MjExICYjMTA7TCAxMzYuOTU4MDY2IDQ1My42MjgwNjQgJiMxMDtMIDE2Ni4xNDY1NjIgNDU0LjIyNDgwNCAmIzEwO0wgMTgxLjU5OTI5NSA0NTQuNDQ2NjgzICYjMTA7TCAxODMuMzE2MjY1IDQ1My4yMTYyMSAmIzEwO0wgMjA5LjA3MDgyIDQ1Mi44NTA0MzggJiMxMDtMIDIxOS4zNzI2NDIgNDUyLjY0MzIyNiAmIzEwO0wgMjIxLjA4OTYxMiA0NTIuNzU2MTMyICYjMTA7TCAyNTEuOTk1MDc4IDQ1MS4yNDAzODIgJiMxMDtMIDI4Mi45MDA1NDMgNDQ5Ljk1MzgxNiAmIzEwO0wgMzEyLjA4OTAzOSA0NDguOTU0MjExICYjMTA7TCAzNDEuMjc3NTM0IDQ0OC4xNjY3MjkgJiMxMDtMIDM0OS44NjIzODYgNDQ3Ljk3NTY1MyAmIzEwO0wgMzUxLjU3OTM1NiA0NDguNjUxNjc1ICYjMTA7TCAzNzkuMDUwODgxIDQ0Ny4zMDI5ODMgJiMxMDtMIDQwNi41MjI0MDcgNDQ1LjcyNTYzNSAmIzEwO0wgNDIwLjI1ODE2OSA0NDQuOTQ3OTkzICYjMTA7TCA0NDYuMDEyNzI0IDQ0NC4zNDQ4ODMgJiMxMDtMIDQ0Ny43Mjk2OTQgNDQxLjQzNjUzMyAmIzEwO0wgNDczLjQ4NDI0OSA0NDEuMDIyMTE1ICYjMTA7TCA0OTUuODA0ODYzIDQ0MC40ODM1OTQgJiMxMDtMIDQ5Ny41MjE4MzMgNDQxLjA0Mzc0MiAmIzEwO0wgNTI4LjQyNzI5OSA0MzcuMzMyMjgyICYjMTA7TCA1NTcuNjE1Nzk1IDQzNC4wNDExICYjMTA7TCA1ODYuODA0MjkgNDMwLjk3MTA2NyAmIzEwO0wgNjE1Ljk5Mjc4NiA0MjguMTMyODk5ICYjMTA7TCA2NDMuNDY0MzExIDQyNS42ODExNjUgJiMxMDtMIDY2NS43ODQ5MjUgNDIzLjg0OTcwNCAmIzEwO0wgNjY3LjUwMTg5NSA0MjIuNzI2MDAxICYjMTA7TCA2OTEuNTM5NDggNDIwLjcyNTQ5MyAmIzEwO0wgNzAzLjU1ODI3MiA0MTkuNjM3NjQyICYjMTA7TCA3MDUuMjc1MjQyIDQxNy40NTI4OTIgJiMxMDtMIDcyNy41OTU4NTYgNDE1Ljk2OTYxNCAmIzEwO0wgNzQ5LjkxNjQ3MSA0MTQuMjcwMjcxICYjMTA7TCA3NzMuOTU0MDU1IDQxMi4yMDk0NTYgJiMxMDtMIDc4MC44MjE5MzYgNDExLjU3ODQwNiAmIzEwO0wgNzgyLjUzODkwNyA0MDkuNjUxNTQxICYjMTA7TCA3ODQuMjU1ODc3IDQxMy4zNTA1NTQgJiMxMDtMIDc4NS45NzI4NDcgNDEyLjk0NDI4NCAmIzEwO0wgNzg1Ljk3Mjg0NyA0MTIuOTQ0Mjg0Ii8+JiN4YTsgICA8L2c+JiN4YTsgICA8ZyBpZD0ibGluZTJkXzY1Ij4mI3hhOyAgICA8cGF0aCBzdHlsZT0iZmlsbDogbm9uZTsgc3Ryb2tlOiAjNDQzOTgzOyBzdHJva2Utd2lkdGg6IDEuNTsgc3Ryb2tlLWxpbmVjYXA6IHNxdWFyZSIgY2xpcC1wYXRoPSJ1cmwoI3AzZjY1YWJkMjgzKSIgZD0iTSAxMTguMDcxMzkzIDQxOS4yNzY4OTMgJiMxMDtMIDE0My44MjU5NDggNDE5LjAzMDQ2MyAmIzEwO0wgMTU0LjEyNzc2OSA0MTguODcxMTUxICYjMTA7TCAxNTUuODQ0NzQgNDE5LjYzMjk0OCAmIzEwO0wgMTgxLjU5OTI5NSA0MTguOTkzODAyICYjMTA7TCAxODMuMzE2MjY1IDQxOS40OTA0NzIgJiMxMDtMIDIxNy42NTU2NzEgNDE3LjQ3NjUwOSAmIzEwO0wgMjUwLjI3ODEwNyA0MTUuNzc5MTYgJiMxMDtMIDI4Mi45MDA1NDMgNDE0LjMwMDg1OCAmIzEwO0wgMzE1LjUyMjk4IDQxMy4wNDc5NjUgJiMxMDtMIDM0OC4xNDU0MTYgNDEyLjAyNDU5MSAmIzEwO0wgMzgwLjc2Nzg1MiA0MTEuMjMyNSAmIzEwO0wgNDA5Ljk1NjM0NyA0MTAuNzE5MzQ5ICYjMTA7TCA0MTEuNjczMzE3IDQwOS41Mjc5OCAmIzEwO0wgNDM3LjQyNzg3MiA0MDYuNTA5ODUyICYjMTA7TCA0MzkuMTQ0ODQzIDQxMC4xMDc4MjMgJiMxMDtMIDQ2NC44OTkzOTcgNDA2LjcwOTg3NiAmIzEwO0wgNDgwLjM1MjEzIDQwNC41NTk2ODggJiMxMDtMIDQ4Mi4wNjkxMDEgNDA0LjU5MjkyMiAmIzEwO0wgNTE2LjQwODUwNyA0MDAuMTEwNDUxICYjMTA7TCA1NDkuMDMwOTQzIDM5Ni4wNjk3ODMgJiMxMDtMIDU3OS45MzY0MDkgMzkyLjQ1NjQwNSAmIzEwO0wgNjEwLjg0MTg3NSAzODkuMDY3NjU5ICYjMTA7TCA2NDAuMDMwMzcgMzg2LjA4NTY1OSAmIzEwO0wgNjY5LjIxODg2NiAzODMuMzI1ODc1ICYjMTA7TCA2NzQuMzY5Nzc2IDM4Mi44NjI1NiAmIzEwO0wgNjc2LjA4Njc0NyAzODAuNjA0NDA5ICYjMTA7TCA3MDEuODQxMzAyIDM3NC42MzU4ODUgJiMxMDtMIDcyMC43Mjc5NzUgMzcwLjEyNDAyICYjMTA7TCA3MjIuNDQ0OTQ1IDM3Mi45MDg4NTIgJiMxMDtMIDcyOS4zMTI4MjcgMzcxLjA4MDU3NyAmIzEwO0wgNzMxLjAyOTc5NyAzNzUuMjQyNzY5ICYjMTA7TCA3NDguMTk5NSAzNzEuMDA4NzQyICYjMTA7TCA3NDkuOTE2NDcxIDM3MC40NDA5MjkgJiMxMDtMIDc3MC41MjAxMTQgMzY1LjM0NjY2MSAmIzEwO0wgNzg1Ljk3Mjg0NyAzNjEuMzkyMDQ3ICYjMTA7TCA3ODUuOTcyODQ3IDM2MS4zOTIwNDciLz4mI3hhOyAgIDwvZz4mI3hhOyAgIDxnIGlkPSJsaW5lMmRfNjYiPiYjeGE7ICAgIDxwYXRoIHN0eWxlPSJmaWxsOiBub25lOyBzdHJva2U6ICMzMTY4OGU7IHN0cm9rZS13aWR0aDogMS41OyBzdHJva2UtbGluZWNhcDogc3F1YXJlIiBjbGlwLXBhdGg9InVybCgjcDNmNjVhYmQyODMpIiBkPSJNIDExOC4wNzEzOTMgMzgxLjc0MzY2NCAmIzEwO0wgMTQ4Ljk3Njg1OCAzODEuNDc2MzY5ICYjMTA7TCAxNzkuODgyMzI0IDM4MC45ODc2NDUgJiMxMDtMIDIwNy4zNTM4NDkgMzgwLjM2OTg1MiAmIzEwO0wgMjA5LjA3MDgyIDM4MC41ODU5MTYgJiMxMDtMIDIzOS45NzYyODUgMzc5LjU5MzUyNiAmIzEwO0wgMjcyLjU5ODcyMiAzNzguMzE3MDc3ICYjMTA7TCAzMDUuMjIxMTU4IDM3Ni44MTYxNDQgJiMxMDtMIDMwNi45MzgxMjggMzc2Ljk5Mjk4MiAmIzEwO0wgMzQxLjI3NzUzNCAzNzUuNjY2NjE4ICYjMTA7TCAzNjguNzQ5MDU5IDM3NC43Njg4MTggJiMxMDtMIDM3MC40NjYwMyAzNzQuMDgwNjg5ICYjMTA7TCAzOTkuNjU0NTI1IDM3MS44MDgwNTggJiMxMDtMIDQzMC41NTk5OTEgMzY5LjE3ODc2OCAmIzEwO0wgNDY0Ljg5OTM5NyAzNjYuMDM2NDU3ICYjMTA7TCA0OTUuODA0ODYzIDM2Mi43NzM2NjkgJiMxMDtMIDUxMi45NzQ1NjYgMzYwLjg2ODEyOCAmIzEwO0wgNTE2LjQwODUwNyAzNjAuMzg2OTE1ICYjMTA7TCA1NTUuODk4ODI0IDM1NS45MzM0MTUgJiMxMDtMIDU2Ny45MTc2MTcgMzU0LjUzOTE3NyAmIzEwO0wgNTY5LjYzNDU4NyAzNTMuODE4NTQ1ICYjMTA7TCA1OTAuMjM4MjMxIDM0OS4yODY4MzMgJiMxMDtMIDU5MS45NTUyMDEgMzUwLjk5NjE3MiAmIzEwO0wgNjE5LjQyNjcyNiAzNDYuNTk2OTQ3ICYjMTA7TCA2NDguNjE1MjIyIDM0MS42OTAzNCAmIzEwO0wgNjgxLjIzNzY1OCAzMzUuOTY4MjkgJiMxMDtMIDcxOS4wMTEwMDUgMzI5LjA5ODMwNiAmIzEwO0wgNzI1Ljg3ODg4NiAzMjcuODI3NDg1ICYjMTA7TCA3MjcuNTk1ODU2IDMyNi44MDk0NjIgJiMxMDtMIDczNi4xODA3MDggMzI0LjkzODQ4NyAmIzEwO0wgNzM3Ljg5NzY3OCAzMjUuMDk5NDM5ICYjMTA7TCA3NTEuNjMzNDQxIDMyMi4zMTYxNjggJiMxMDtMIDc1My4zNTA0MTEgMzE4LjM0ODE5OCAmIzEwO0wgNzYwLjIxODI5MiAzMTcuMDg2MjY2ICYjMTA7TCA3NjEuOTM1MjYzIDMxOC42OTQzMzIgJiMxMDtMIDc4NS45NzI4NDcgMzEyLjgyMjUyICYjMTA7TCA3ODUuOTcyODQ3IDMxMi44MjI1MiIvPiYjeGE7ICAgPC9nPiYjeGE7ICAgPGcgaWQ9ImxpbmUyZF82NyI+JiN4YTsgICAgPHBhdGggc3R5bGU9ImZpbGw6IG5vbmU7IHN0cm9rZTogIzIxOTE4Yzsgc3Ryb2tlLXdpZHRoOiAxLjU7IHN0cm9rZS1saW5lY2FwOiBzcXVhcmUiIGNsaXAtcGF0aD0idXJsKCNwM2Y2NWFiZDI4MykiIGQ9Ik0gMTE4LjA3MTM5MyAzNDUuMTA5NTg0ICYjMTA7TCAxNjIuNzEyNjIxIDM0NC44ODE0MzEgJiMxMDtMIDIwNy4zNTM4NDkgMzQ0LjQyOTQ3MSAmIzEwO0wgMjUxLjk5NTA3OCAzNDMuNzY4NzUxICYjMTA7TCAyNTMuNzEyMDQ4IDM0Mi42NDgxMzMgJiMxMDtMIDI5OC4zNTMyNzYgMzQxLjUyNDc5NiAmIzEwO0wgMzI5LjI1ODc0MiAzNDAuNjI3NDY0ICYjMTA7TCAzMzAuOTc1NzEyIDM0MS4xOTYxMyAmIzEwO0wgMzg5LjM1MjcwMyAzMzYuODg2MTI2ICYjMTA7TCAzOTYuMjIwNTg1IDMzNi4zNjczMDUgJiMxMDtMIDM5OS42NTQ1MjUgMzM1LjkyNTg4MyAmIzEwO0wgNDQ0LjI5NTc1NCAzMzEuNDczNTg4ICYjMTA7TCA0NDYuMDEyNzI0IDMzMS40ODY4MSAmIzEwO0wgNTAwLjk1NTc3NCAzMjcuMzc3NzUyICYjMTA7TCA1MTIuOTc0NTY2IDMyNi4zODY5MTYgJiMxMDtMIDU2Ny45MTc2MTcgMzE5LjQxMDcxMiAmIzEwO0wgNjAyLjI1NzAyMyAzMTUuMjE1MDI0ICYjMTA7TCA2MDUuNjkwOTY0IDMxNS40Njg4ODUgJiMxMDtMIDY4Ni4zODg1NjkgMjk4LjYyMTEyOSAmIzEwO0wgNzA1LjI3NTI0MiAyOTQuNzY0ODYgJiMxMDtMIDcwNi45OTIyMTMgMjk1LjAzNTc0MSAmIzEwO0wgNzE1LjU3NzA2NCAyOTQuMDA5OTQ1ICYjMTA7TCA3MTcuMjk0MDM0IDI5Mi4wNzYyNzcgJiMxMDtMIDcyNS44Nzg4ODYgMjg5LjgxNzI2MiAmIzEwO0wgNzI5LjMxMjgyNyAyODkuMTM3NjczICYjMTA7TCA3NjMuNjUyMjMzIDI4MS40MDY0NDIgJiMxMDtMIDc4NS45NzI4NDcgMjc2LjUyNjE4NiAmIzEwO0wgNzg1Ljk3Mjg0NyAyNzYuNTI2MTg2Ii8+JiN4YTsgICA8L2c+JiN4YTsgICA8ZyBpZD0ibGluZTJkXzY4Ij4mI3hhOyAgICA8cGF0aCBzdHlsZT0iZmlsbDogbm9uZTsgc3Ryb2tlOiAjMzViNzc5OyBzdHJva2Utd2lkdGg6IDEuNTsgc3Ryb2tlLWxpbmVjYXA6IHNxdWFyZSIgY2xpcC1wYXRoPSJ1cmwoI3AzZjY1YWJkMjgzKSIgZD0iTSAxMTguMDcxMzkzIDMxNi42NzQ5ODkgJiMxMDtMIDE3OS44ODIzMjQgMzE1Ljg5MTczICYjMTA7TCAyMTAuNzg3NzkgMzE1LjU4NjI1OSAmIzEwO0wgMjEyLjUwNDc2IDMxNS44MTg5NjYgJiMxMDtMIDIyMi44MDY1ODIgMzE1LjY2MDY5OCAmIzEwO0wgMjI0LjUyMzU1MyAzMTcuMDM3MzM2ICYjMTA7TCAyMjkuNjc0NDY0IDMxNi45OTkxOTkgJiMxMDtMIDIzMS4zOTE0MzQgMzE0Ljg0NTE2MiAmIzEwO0wgMjYwLjU3OTkyOSAzMTUuMTA4Mjg0ICYjMTA7TCAyODkuNzY4NDI1IDMxNS41OTI5OTQgJiMxMDtMIDI5OC4zNTMyNzYgMzE1Ljc3ODYwOSAmIzEwO0wgMzAwLjA3MDI0NyAzMTguMTYwMjMyICYjMTA7TCAzMDEuNzg3MjE3IDMxOC4wNDYyNyAmIzEwO0wgMzAzLjUwNDE4NyAzMTYuOTAzNTg2ICYjMTA7TCAzMzAuOTc1NzEyIDMxMy44MTA4MTIgJiMxMDtMIDM0OC4xNDU0MTYgMzExLjk5OTk3NCAmIzEwO0wgMzUxLjU3OTM1NiAzMTEuOTE1NDYzICYjMTA7TCAzODUuOTE4NzYzIDMxMC4yMDkwMzcgJiMxMDtMIDM5Mi43ODY2NDQgMzA5Ljg5NTExOSAmIzEwO0wgMzk0LjUwMzYxNCAzMDkuNDk0ODE1ICYjMTA7TCA0MzIuMjc2OTYxIDMwNy45MTYyODEgJiMxMDtMIDQ2Ni42MTYzNjggMzA2LjcwNDgyNyAmIzEwO0wgNDk5LjIzODgwNCAzMDUuNzgyMzc0ICYjMTA7TCA1MjQuOTkzMzU5IDMwNS4yMzA2MTcgJiMxMDtMIDUyNi43MTAzMjkgMzAzLjg2MDc4NCAmIzEwO0wgNTU0LjE4MTg1NCAzMDEuMDE2MjYzICYjMTA7TCA1NzkuOTM2NDA5IDI5OC41NzA3MjQgJiMxMDtMIDYwMi4yNTcwMjMgMjk2LjY0MDAzOSAmIzEwO0wgNjAzLjk3Mzk5MyAyOTguMTAzMTEyICYjMTA7TCA2MjYuMjk0NjA3IDI5NS41ODU2NTcgJiMxMDtMIDYzNi41OTY0MjkgMjk0LjQ5NzQ3NiAmIzEwO0wgNjM4LjMxMzQgMjk2LjcwNTQxOSAmIzEwO0wgNjU4LjkxNzA0NCAyOTMuODg3NTE1ICYjMTA7TCA2NzcuODAzNzE3IDI5MS41MjE2NyAmIzEwO0wgNjgxLjIzNzY1OCAyOTEuMTE0NjU2ICYjMTA7TCA2ODIuOTU0NjI4IDI4Ni44NDIyMTEgJiMxMDtMIDcwMC4xMjQzMzEgMjg1Ljc0Njc0MSAmIzEwO0wgNzEwLjQyNjE1MyAyODUuMjA3NDIzICYjMTA7TCA3MTIuMTQzMTI0IDI4Ni42NDA2ODcgJiMxMDtMIDcyOS4zMTI4MjcgMjg0LjI0OTA5NyAmIzEwO0wgNzQ2LjQ4MjUzIDI4Mi4wOTA5MjcgJiMxMDtMIDc2My42NTIyMzMgMjgwLjE3NTIxNyAmIzEwO0wgNzc5LjEwNDk2NiAyNzguNjY1NzAxICYjMTA7TCA3ODUuOTcyODQ3IDI3OC4wNjE4MDMgJiMxMDtMIDc4NS45NzI4NDcgMjc4LjA2MTgwMyIvPiYjeGE7ICAgPC9nPiYjeGE7ICAgPGcgaWQ9ImxpbmUyZF82OSI+JiN4YTsgICAgPHBhdGggc3R5bGU9ImZpbGw6IG5vbmU7IHN0cm9rZTogIzkwZDc0Mzsgc3Ryb2tlLXdpZHRoOiAxLjU7IHN0cm9rZS1saW5lY2FwOiBzcXVhcmUiIGNsaXAtcGF0aD0idXJsKCNwM2Y2NWFiZDI4MykiIGQ9Ik0gMTE4LjA3MTM5MyAzMDUuMTA1NjA2ICYjMTA7TCAxNDIuMTA4OTc3IDMwNC4yMDMxNTYgJiMxMDtMIDE2Ni4xNDY1NjIgMzAzLjUzNzU3OSAmIzEwO0wgMTkwLjE4NDE0NiAzMDMuMTEwMzU2ICYjMTA7TCAyMTIuNTA0NzYgMzAyLjkyODE4OCAmIzEwO0wgMjE0LjIyMTczMSAzMDIuOTIyNzU5ICYjMTA7TCAyMTUuOTM4NzAxIDMwMi41ODU5MTggJiMxMDtMIDI0My40MTAyMjYgMzAzLjM0ODE0MyAmIzEwO0wgMjcwLjg4MTc1MSAzMDQuMzI0MzQxICYjMTA7TCAyOTguMzUzMjc2IDMwNS41MTc1NDIgJiMxMDtMIDMwNS4yMjExNTggMzA1Ljc1NDA3MyAmIzEwO0wgMzMyLjY5MjY4MyAzMDQuOTQwMTY3ICYjMTA7TCAzNTguNDQ3MjM4IDMwNC4zOTQxNjMgJiMxMDtMIDM3NS42MTY5NDEgMzA0LjE1MDUxNyAmIzEwO0wgMzc3LjMzMzkxMSAzMDQuNTE3OTY5ICYjMTA7TCAzOTkuNjU0NTI1IDMwNC44MjI5NzEgJiMxMDtMIDQyMC4yNTgxNjkgMzA1LjMyMDQzNiAmIzEwO0wgNDQwLjg2MTgxMyAzMDYuMDI5NzQyICYjMTA7TCA0NjEuNDY1NDU3IDMwNi45NTUxNCAmIzEwO0wgNDgyLjA2OTEwMSAzMDguMTAwNjk3ICYjMTA7TCA1MDIuNjcyNzQ0IDMwOS40NzAyODggJiMxMDtMIDUyMy4yNzYzODggMzExLjA2NzU4OCAmIzEwO0wgNTI2LjcxMDMyOSAzMTEuMzU2MTkgJiMxMDtMIDUyOC40MjcyOTkgMzA3LjY3OTk2MSAmIzEwO0wgNTQ3LjMxMzk3MyAzMDkuNDQxOSAmIzEwO0wgNTY2LjIwMDY0NiAzMTEuNDQ0NzM3ICYjMTA7TCA1ODUuMDg3MzIgMzEzLjY5MDc3NCAmIzEwO0wgNjA1LjY5MDk2NCAzMTYuMzY1ODk5ICYjMTA7TCA2MjIuODYwNjY3IDMxNi41OTQzNjYgJiMxMDtMIDY0MC4wMzAzNyAzMTcuMDYyNDI2ICYjMTA7TCA2NTcuMjAwMDczIDMxNy43NzMxNTMgJiMxMDtMIDY3NC4zNjk3NzYgMzE4LjcyOTQxMSAmIzEwO0wgNjg5LjgyMjUwOSAzMTkuODAyMTY2ICYjMTA7TCA2OTYuNjkwMzkxIDMyMC4zNDM5NDQgJiMxMDtMIDY5OC40MDczNjEgMzIwLjk1MDU0ICYjMTA7TCA3MTMuODYwMDk0IDMyMy43NDAxMzQgJiMxMDtMIDcyOS4zMTI4MjcgMzI2Ljc2OTM5OCAmIzEwO0wgNzQ0Ljc2NTU2IDMzMC4wMzg3MjUgJiMxMDtMIDc0OC4xOTk1IDMzMC43OTc4NjggJiMxMDtMIDc0OS45MTY0NzEgMzI3LjY0MTU0NyAmIzEwO0wgNzYzLjY1MjIzMyAzMzIuMDc4ICYjMTA7TCA3NzMuOTU0MDU1IDMzNS41NDcxMDkgJiMxMDtMIDc3NS42NzEwMjUgMzM0LjA5MTA4ICYjMTA7TCA3ODUuOTcyODQ3IDMzNi43MDM2MzkgJiMxMDtMIDc4NS45NzI4NDcgMzM2LjcwMzYzOSIvPiYjeGE7ICAgPC9nPiYjeGE7ICAgPGcgaWQ9ImxpbmUyZF83MCI+JiN4YTsgICAgPHBhdGggc3R5bGU9ImZpbGw6IG5vbmU7IHN0cm9rZTogI2ZkZTcyNTsgc3Ryb2tlLXdpZHRoOiAxLjU7IHN0cm9rZS1saW5lY2FwOiBzcXVhcmUiIGNsaXAtcGF0aD0idXJsKCNwM2Y2NWFiZDI4MykiIGQ9Ik0gMTE4LjA3MTM5MyAzMTguMTQzOTYyICYjMTA7TCAxMzguNjc1MDM3IDMxOC4wNDMzMjcgJiMxMDtMIDE1Mi40MTA3OTkgMzE4LjEwMzc5ICYjMTA7TCAxNTQuMTI3NzY5IDMxNy40NTUwNzYgJiMxMDtMIDE1Ny41NjE3MSAzMTcuNTMwMDc4ICYjMTA7TCAxNTkuMjc4NjggMzE5LjcxMTQxNCAmIzEwO0wgMTc4LjE2NTM1NCAzMTkuNjM4MDc2ICYjMTA7TCAxOTcuMDUyMDI3IDMxOS43ODA4MTQgJiMxMDtMIDIxNS45Mzg3MDEgMzIwLjE0MDIxNSAmIzEwO0wgMjM0LjgyNTM3NCAzMjAuNzE2NjY3ICYjMTA7TCAyNTMuNzEyMDQ4IDMyMS41MTAzNTQgJiMxMDtMIDI3Mi41OTg3MjIgMzIyLjUyMTI1OSAmIzEwO0wgMjkxLjQ4NTM5NSAzMjMuNzQ5MTY2ICYjMTA7TCAzMTAuMzcyMDY5IDMyNS4xOTM2NTMgJiMxMDtMIDMyOS4yNTg3NDIgMzI2Ljg1NDA5OSAmIzEwO0wgMzM3Ljg0MzU5NCAzMjcuNjgwMDI0ICYjMTA7TCAzMzkuNTYwNTY0IDMyNS4zMzU3NTMgJiMxMDtMIDM1OC40NDcyMzggMzI2Ljg3MDcwNCAmIzEwO0wgMzc3LjMzMzkxMSAzMjguNjMxOTU1ICYjMTA7TCAzOTYuMjIwNTg1IDMzMC42MTg4MDIgJiMxMDtMIDQxNS4xMDcyNTggMzMyLjgzMDMyMiAmIzEwO0wgNDMzLjk5MzkzMiAzMzUuMjY1Mzc4ICYjMTA7TCA0NTIuODgwNjA1IDMzNy45MjI2MTQgJiMxMDtMIDQ3MS43NjcyNzkgMzQwLjgwMDQ2MiAmIzEwO0wgNDgwLjM1MjEzIDM0Mi4xODEwMjkgJiMxMDtMIDQ4Mi4wNjkxMDEgMzM5LjcwMjIxNCAmIzEwO0wgNDk0LjA4Nzg5MyAzNDEuNzUzNDk3ICYjMTA7TCA0OTUuODA0ODYzIDM0My41ODQ0NjQgJiMxMDtMIDUxMi45NzQ1NjYgMzQ2LjA3NjExNiAmIzEwO0wgNTMwLjE0NDI3IDM0OC43Nzc2NCAmIzEwO0wgNTQ3LjMxMzk3MyAzNTEuNjg4MTcgJiMxMDtMIDU2NC40ODM2NzYgMzU0LjgwNjY2ICYjMTA7TCA1ODEuNjUzMzc5IDM1OC4xMzE4ODEgJiMxMDtMIDYwMC41NDAwNTMgMzYyLjAyNjcxMyAmIzEwO0wgNjE3LjcwOTc1NiAzNjUuNzgxMTQzICYjMTA7TCA2MzQuODc5NDU5IDM3MC42NDk0NDUgJiMxMDtMIDY1Mi4wNDkxNjIgMzc1LjczMjE4MyAmIzEwO0wgNjcwLjkzNTgzNiAzODEuNTY3MTg0ICYjMTA7TCA2NzcuODAzNzE3IDM4My43NTE1NjIgJiMxMDtMIDY3OS41MjA2ODcgMzg0LjQzNTMxOCAmIzEwO0wgNjk2LjY5MDM5MSAzODkuMjQ5MjAzICYjMTA7TCA3MTMuODYwMDk0IDM5NC4zMTE4NjUgJiMxMDtMIDczMS4wMjk3OTcgMzk5LjYxOTY5NiAmIzEwO0wgNzQ4LjE5OTUgNDA1LjE2ODg0OSAmIzEwO0wgNzY1LjM2OTIwMyA0MTAuOTU1MjM4ICYjMTA7TCA3ODIuNTM4OTA3IDQxNi45NzQ1NDUgJiMxMDtMIDc4NS45NzI4NDcgNDE4LjIwNTk2ICYjMTA7TCA3ODUuOTcyODQ3IDQxOC4yMDU5NiIvPiYjeGE7ICAgPC9nPiYjeGE7ICAgPGcgaWQ9InBhdGNoXzgiPiYjeGE7ICAgIDxwYXRoIHN0eWxlPSJmaWxsOiBub25lOyBzdHJva2U6ICMwMDAwMDA7IHN0cm9rZS13aWR0aDogMC44OyBzdHJva2UtbGluZWpvaW46IG1pdGVyOyBzdHJva2UtbGluZWNhcDogc3F1YXJlIiBkPSJNIDg0LjY3NjMyIDQ2My42MDcyMzUgJiMxMDtMIDg0LjY3NjMyIDI2Ny42MTc1NjUiLz4mI3hhOyAgIDwvZz4mI3hhOyAgIDxnIGlkPSJwYXRjaF85Ij4mI3hhOyAgICA8cGF0aCBzdHlsZT0iZmlsbDogbm9uZTsgc3Ryb2tlOiAjMDAwMDAwOyBzdHJva2Utd2lkdGg6IDAuODsgc3Ryb2tlLWxpbmVqb2luOiBtaXRlcjsgc3Ryb2tlLWxpbmVjYXA6IHNxdWFyZSIgZD0iTSA4MTkuMzY3OTIgNDYzLjYwNzIzNSAmIzEwO0wgODE5LjM2NzkyIDI2Ny42MTc1NjUiLz4mI3hhOyAgIDwvZz4mI3hhOyAgIDxnIGlkPSJwYXRjaF8xMCI+JiN4YTsgICAgPHBhdGggc3R5bGU9ImZpbGw6IG5vbmU7IHN0cm9rZTogIzAwMDAwMDsgc3Ryb2tlLXdpZHRoOiAwLjg7IHN0cm9rZS1saW5lam9pbjogbWl0ZXI7IHN0cm9rZS1saW5lY2FwOiBzcXVhcmUiIGQ9Ik0gODQuNjc2MzIgNDYzLjYwNzIzNSAmIzEwO0wgODE5LjM2NzkyIDQ2My42MDcyMzUiLz4mI3hhOyAgIDwvZz4mI3hhOyAgIDxnIGlkPSJwYXRjaF8xMSI+JiN4YTsgICAgPHBhdGggc3R5bGU9ImZpbGw6IG5vbmU7IHN0cm9rZTogIzAwMDAwMDsgc3Ryb2tlLXdpZHRoOiAwLjg7IHN0cm9rZS1saW5lam9pbjogbWl0ZXI7IHN0cm9rZS1saW5lY2FwOiBzcXVhcmUiIGQ9Ik0gODQuNjc2MzIgMjY3LjYxNzU2NSAmIzEwO0wgODE5LjM2NzkyIDI2Ny42MTc1NjUiLz4mI3hhOyAgIDwvZz4mI3hhOyAgIDxnIGlkPSJ0ZXh0XzMwIj4mI3hhOyAgICAmI3hhOyAgICA8ZyB0cmFuc2Zvcm09InRyYW5zbGF0ZSg0NDUuNDIyMTIgMjYxLjYxNzU2NSkgc2NhbGUoMC4xMiAtMC4xMikiPiYjeGE7ICAgICA8ZGVmcz4mI3hhOyAgICAgIDxwYXRoIHRyYW5zZm9ybT0ic2NhbGUoMC4wMTU2MjUpIiBkPSJNIDM1MyAzNTAwICYjMTA7TCAzMDg0IDM1MDAgJiMxMDtMIDMwODQgMjk3NSAmIzEwO0wgOTIyIDQ1OSAmIzEwO0wgMzA4NCA0NTkgJiMxMDtMIDMwODQgMCAmIzEwO0wgMjc1IDAgJiMxMDtMIDI3NSA1MjUgJiMxMDtMIDI0MzggMzA0MSAmIzEwO0wgMzUzIDMwNDEgJiMxMDtMIDM1MyAzNTAwICYjMTA7eiIgaWQ9IkRlamFWdVNhbnMtN2EiLz4mI3hhOyAgICAgPC9kZWZzPiYjeGE7ICAgICA8dXNlIHRyYW5zZm9ybT0idHJhbnNsYXRlKDAgMC4wOTM3NSkiIHhsaW5rOmhyZWY9IiNEZWphVnVTYW5zLTQyIi8+JiN4YTsgICAgIDx1c2UgdHJhbnNmb3JtPSJ0cmFuc2xhdGUoNjkuNTYwNTQ3IC0xNi4zMTI1KSBzY2FsZSgwLjcpIiB4bGluazpocmVmPSIjRGVqYVZ1U2Fucy03YSIvPiYjeGE7ICAgIDwvZz4mI3hhOyAgIDwvZz4mI3hhOyAgPC9nPiYjeGE7ICA8ZyBpZD0iYXhlc18zIj4mI3hhOyAgIDxnIGlkPSJwYXRjaF8xMiI+JiN4YTsgICAgPHBhdGggc3R5bGU9ImZpbGw6ICNmZmZmZmYiIGQ9Ik0gODQuNjc2MzIgNzA0LjA4NjU2ICYjMTA7TCA4MTkuMzY3OTIgNzA0LjA4NjU2ICYjMTA7TCA4MTkuMzY3OTIgNTA4LjA5Njg5ICYjMTA7TCA4NC42NzYzMiA1MDguMDk2ODkgJiMxMDt6Ii8+JiN4YTsgICA8L2c+JiN4YTsgICA8ZyBpZD0ibWF0cGxvdGxpYi5heGlzXzUiPiYjeGE7ICAgIDxnIGlkPSJ4dGlja18xNyI+JiN4YTsgICAgIDxnIGlkPSJsaW5lMmRfNzEiPiYjeGE7ICAgICAgPHBhdGggc3R5bGU9ImZpbGw6IG5vbmU7IHN0cm9rZTogI2IwYjBiMDsgc3Ryb2tlLXdpZHRoOiAwLjg7IHN0cm9rZS1saW5lY2FwOiBzcXVhcmUiIGNsaXAtcGF0aD0idXJsKCNwYTZiYTZiMzAzMykiIGQ9Ik0gMTE4LjA3MTM5MyA3MDQuMDg2NTYgJiMxMDtMIDExOC4wNzEzOTMgNTA4LjA5Njg5Ii8+JiN4YTsgICAgIDwvZz4mI3hhOyAgICAgPGcgaWQ9ImxpbmUyZF83MiI+JiN4YTsgICAgICA8Zz4mI3hhOyAgICAgICA8dXNlIHN0eWxlPSJzdHJva2U6ICMwMDAwMDA7IHN0cm9rZS13aWR0aDogMC44IiB5PSI3MDQuMDg2NTYiIHg9IjExOC4wNzEzOTMiIHhsaW5rOmhyZWY9IiNtZThmODM2ODhhYyIvPiYjeGE7ICAgICAgPC9nPiYjeGE7ICAgICA8L2c+JiN4YTsgICAgIDxnIGlkPSJ0ZXh0XzMxIj4mI3hhOyAgICAgICYjeGE7ICAgICAgPGcgdHJhbnNmb3JtPSJ0cmFuc2xhdGUoMTE0Ljg5MDE0MyA3MTguNjg0OTk4KSBzY2FsZSgwLjEgLTAuMSkiPiYjeGE7ICAgICAgIDx1c2UgeGxpbms6aHJlZj0iI0RlamFWdVNhbnMtMzAiLz4mI3hhOyAgICAgIDwvZz4mI3hhOyAgICAgPC9nPiYjeGE7ICAgIDwvZz4mI3hhOyAgICA8ZyBpZD0ieHRpY2tfMTgiPiYjeGE7ICAgICA8ZyBpZD0ibGluZTJkXzczIj4mI3hhOyAgICAgIDxwYXRoIHN0eWxlPSJmaWxsOiBub25lOyBzdHJva2U6ICNiMGIwYjA7IHN0cm9rZS13aWR0aDogMC44OyBzdHJva2UtbGluZWNhcDogc3F1YXJlIiBjbGlwLXBhdGg9InVybCgjcGE2YmE2YjMwMzMpIiBkPSJNIDIxMy4zNjMyNDUgNzA0LjA4NjU2ICYjMTA7TCAyMTMuMzYzMjQ1IDUwOC4wOTY4OSIvPiYjeGE7ICAgICA8L2c+JiN4YTsgICAgIDxnIGlkPSJsaW5lMmRfNzQiPiYjeGE7ICAgICAgPGc+JiN4YTsgICAgICAgPHVzZSBzdHlsZT0ic3Ryb2tlOiAjMDAwMDAwOyBzdHJva2Utd2lkdGg6IDAuOCIgeT0iNzA0LjA4NjU2IiB4PSIyMTMuMzYzMjQ1IiB4bGluazpocmVmPSIjbWU4ZjgzNjg4YWMiLz4mI3hhOyAgICAgIDwvZz4mI3hhOyAgICAgPC9nPiYjeGE7ICAgICA8ZyBpZD0idGV4dF8zMiI+JiN4YTsgICAgICAmI3hhOyAgICAgIDxnIHRyYW5zZm9ybT0idHJhbnNsYXRlKDIxMC4xODE5OTUgNzE4LjY4NDk5OCkgc2NhbGUoMC4xIC0wLjEpIj4mI3hhOyAgICAgICA8dXNlIHhsaW5rOmhyZWY9IiNEZWphVnVTYW5zLTM1Ii8+JiN4YTsgICAgICA8L2c+JiN4YTsgICAgIDwvZz4mI3hhOyAgICA8L2c+JiN4YTsgICAgPGcgaWQ9Inh0aWNrXzE5Ij4mI3hhOyAgICAgPGcgaWQ9ImxpbmUyZF83NSI+JiN4YTsgICAgICA8cGF0aCBzdHlsZT0iZmlsbDogbm9uZTsgc3Ryb2tlOiAjYjBiMGIwOyBzdHJva2Utd2lkdGg6IDAuODsgc3Ryb2tlLWxpbmVjYXA6IHNxdWFyZSIgY2xpcC1wYXRoPSJ1cmwoI3BhNmJhNmIzMDMzKSIgZD0iTSAzMDguNjU1MDk4IDcwNC4wODY1NiAmIzEwO0wgMzA4LjY1NTA5OCA1MDguMDk2ODkiLz4mI3hhOyAgICAgPC9nPiYjeGE7ICAgICA8ZyBpZD0ibGluZTJkXzc2Ij4mI3hhOyAgICAgIDxnPiYjeGE7ICAgICAgIDx1c2Ugc3R5bGU9InN0cm9rZTogIzAwMDAwMDsgc3Ryb2tlLXdpZHRoOiAwLjgiIHk9IjcwNC4wODY1NiIgeD0iMzA4LjY1NTA5OCIgeGxpbms6aHJlZj0iI21lOGY4MzY4OGFjIi8+JiN4YTsgICAgICA8L2c+JiN4YTsgICAgIDwvZz4mI3hhOyAgICAgPGcgaWQ9InRleHRfMzMiPiYjeGE7ICAgICAgJiN4YTsgICAgICA8ZyB0cmFuc2Zvcm09InRyYW5zbGF0ZSgzMDIuMjkyNTk4IDcxOC42ODQ5OTgpIHNjYWxlKDAuMSAtMC4xKSI+JiN4YTsgICAgICAgPHVzZSB4bGluazpocmVmPSIjRGVqYVZ1U2Fucy0zMSIvPiYjeGE7ICAgICAgIDx1c2UgeD0iNjMuNjIzMDQ3IiB4bGluazpocmVmPSIjRGVqYVZ1U2Fucy0zMCIvPiYjeGE7ICAgICAgPC9nPiYjeGE7ICAgICA8L2c+JiN4YTsgICAgPC9nPiYjeGE7ICAgIDxnIGlkPSJ4dGlja18yMCI+JiN4YTsgICAgIDxnIGlkPSJsaW5lMmRfNzciPiYjeGE7ICAgICAgPHBhdGggc3R5bGU9ImZpbGw6IG5vbmU7IHN0cm9rZTogI2IwYjBiMDsgc3Ryb2tlLXdpZHRoOiAwLjg7IHN0cm9rZS1saW5lY2FwOiBzcXVhcmUiIGNsaXAtcGF0aD0idXJsKCNwYTZiYTZiMzAzMykiIGQ9Ik0gNDAzLjk0Njk1MSA3MDQuMDg2NTYgJiMxMDtMIDQwMy45NDY5NTEgNTA4LjA5Njg5Ii8+JiN4YTsgICAgIDwvZz4mI3hhOyAgICAgPGcgaWQ9ImxpbmUyZF83OCI+JiN4YTsgICAgICA8Zz4mI3hhOyAgICAgICA8dXNlIHN0eWxlPSJzdHJva2U6ICMwMDAwMDA7IHN0cm9rZS13aWR0aDogMC44IiB5PSI3MDQuMDg2NTYiIHg9IjQwMy45NDY5NTEiIHhsaW5rOmhyZWY9IiNtZThmODM2ODhhYyIvPiYjeGE7ICAgICAgPC9nPiYjeGE7ICAgICA8L2c+JiN4YTsgICAgIDxnIGlkPSJ0ZXh0XzM0Ij4mI3hhOyAgICAgICYjeGE7ICAgICAgPGcgdHJhbnNmb3JtPSJ0cmFuc2xhdGUoMzk3LjU4NDQ1MSA3MTguNjg0OTk4KSBzY2FsZSgwLjEgLTAuMSkiPiYjeGE7ICAgICAgIDx1c2UgeGxpbms6aHJlZj0iI0RlamFWdVNhbnMtMzEiLz4mI3hhOyAgICAgICA8dXNlIHg9IjYzLjYyMzA0NyIgeGxpbms6aHJlZj0iI0RlamFWdVNhbnMtMzUiLz4mI3hhOyAgICAgIDwvZz4mI3hhOyAgICAgPC9nPiYjeGE7ICAgIDwvZz4mI3hhOyAgICA8ZyBpZD0ieHRpY2tfMjEiPiYjeGE7ICAgICA8ZyBpZD0ibGluZTJkXzc5Ij4mI3hhOyAgICAgIDxwYXRoIHN0eWxlPSJmaWxsOiBub25lOyBzdHJva2U6ICNiMGIwYjA7IHN0cm9rZS13aWR0aDogMC44OyBzdHJva2UtbGluZWNhcDogc3F1YXJlIiBjbGlwLXBhdGg9InVybCgjcGE2YmE2YjMwMzMpIiBkPSJNIDQ5OS4yMzg4MDQgNzA0LjA4NjU2ICYjMTA7TCA0OTkuMjM4ODA0IDUwOC4wOTY4OSIvPiYjeGE7ICAgICA8L2c+JiN4YTsgICAgIDxnIGlkPSJsaW5lMmRfODAiPiYjeGE7ICAgICAgPGc+JiN4YTsgICAgICAgPHVzZSBzdHlsZT0ic3Ryb2tlOiAjMDAwMDAwOyBzdHJva2Utd2lkdGg6IDAuOCIgeT0iNzA0LjA4NjU2IiB4PSI0OTkuMjM4ODA0IiB4bGluazpocmVmPSIjbWU4ZjgzNjg4YWMiLz4mI3hhOyAgICAgIDwvZz4mI3hhOyAgICAgPC9nPiYjeGE7ICAgICA8ZyBpZD0idGV4dF8zNSI+JiN4YTsgICAgICAmI3hhOyAgICAgIDxnIHRyYW5zZm9ybT0idHJhbnNsYXRlKDQ5Mi44NzYzMDQgNzE4LjY4NDk5OCkgc2NhbGUoMC4xIC0wLjEpIj4mI3hhOyAgICAgICA8dXNlIHhsaW5rOmhyZWY9IiNEZWphVnVTYW5zLTMyIi8+JiN4YTsgICAgICAgPHVzZSB4PSI2My42MjMwNDciIHhsaW5rOmhyZWY9IiNEZWphVnVTYW5zLTMwIi8+JiN4YTsgICAgICA8L2c+JiN4YTsgICAgIDwvZz4mI3hhOyAgICA8L2c+JiN4YTsgICAgPGcgaWQ9Inh0aWNrXzIyIj4mI3hhOyAgICAgPGcgaWQ9ImxpbmUyZF84MSI+JiN4YTsgICAgICA8cGF0aCBzdHlsZT0iZmlsbDogbm9uZTsgc3Ryb2tlOiAjYjBiMGIwOyBzdHJva2Utd2lkdGg6IDAuODsgc3Ryb2tlLWxpbmVjYXA6IHNxdWFyZSIgY2xpcC1wYXRoPSJ1cmwoI3BhNmJhNmIzMDMzKSIgZD0iTSA1OTQuNTMwNjU3IDcwNC4wODY1NiAmIzEwO0wgNTk0LjUzMDY1NyA1MDguMDk2ODkiLz4mI3hhOyAgICAgPC9nPiYjeGE7ICAgICA8ZyBpZD0ibGluZTJkXzgyIj4mI3hhOyAgICAgIDxnPiYjeGE7ICAgICAgIDx1c2Ugc3R5bGU9InN0cm9rZTogIzAwMDAwMDsgc3Ryb2tlLXdpZHRoOiAwLjgiIHk9IjcwNC4wODY1NiIgeD0iNTk0LjUzMDY1NyIgeGxpbms6aHJlZj0iI21lOGY4MzY4OGFjIi8+JiN4YTsgICAgICA8L2c+JiN4YTsgICAgIDwvZz4mI3hhOyAgICAgPGcgaWQ9InRleHRfMzYiPiYjeGE7ICAgICAgJiN4YTsgICAgICA8ZyB0cmFuc2Zvcm09InRyYW5zbGF0ZSg1ODguMTY4MTU3IDcxOC42ODQ5OTgpIHNjYWxlKDAuMSAtMC4xKSI+JiN4YTsgICAgICAgPHVzZSB4bGluazpocmVmPSIjRGVqYVZ1U2Fucy0zMiIvPiYjeGE7ICAgICAgIDx1c2UgeD0iNjMuNjIzMDQ3IiB4bGluazpocmVmPSIjRGVqYVZ1U2Fucy0zNSIvPiYjeGE7ICAgICAgPC9nPiYjeGE7ICAgICA8L2c+JiN4YTsgICAgPC9nPiYjeGE7ICAgIDxnIGlkPSJ4dGlja18yMyI+JiN4YTsgICAgIDxnIGlkPSJsaW5lMmRfODMiPiYjeGE7ICAgICAgPHBhdGggc3R5bGU9ImZpbGw6IG5vbmU7IHN0cm9rZTogI2IwYjBiMDsgc3Ryb2tlLXdpZHRoOiAwLjg7IHN0cm9rZS1saW5lY2FwOiBzcXVhcmUiIGNsaXAtcGF0aD0idXJsKCNwYTZiYTZiMzAzMykiIGQ9Ik0gNjg5LjgyMjUwOSA3MDQuMDg2NTYgJiMxMDtMIDY4OS44MjI1MDkgNTA4LjA5Njg5Ii8+JiN4YTsgICAgIDwvZz4mI3hhOyAgICAgPGcgaWQ9ImxpbmUyZF84NCI+JiN4YTsgICAgICA8Zz4mI3hhOyAgICAgICA8dXNlIHN0eWxlPSJzdHJva2U6ICMwMDAwMDA7IHN0cm9rZS13aWR0aDogMC44IiB5PSI3MDQuMDg2NTYiIHg9IjY4OS44MjI1MDkiIHhsaW5rOmhyZWY9IiNtZThmODM2ODhhYyIvPiYjeGE7ICAgICAgPC9nPiYjeGE7ICAgICA8L2c+JiN4YTsgICAgIDxnIGlkPSJ0ZXh0XzM3Ij4mI3hhOyAgICAgICYjeGE7ICAgICAgPGcgdHJhbnNmb3JtPSJ0cmFuc2xhdGUoNjgzLjQ2MDAwOSA3MTguNjg0OTk4KSBzY2FsZSgwLjEgLTAuMSkiPiYjeGE7ICAgICAgIDx1c2UgeGxpbms6aHJlZj0iI0RlamFWdVNhbnMtMzMiLz4mI3hhOyAgICAgICA8dXNlIHg9IjYzLjYyMzA0NyIgeGxpbms6aHJlZj0iI0RlamFWdVNhbnMtMzAiLz4mI3hhOyAgICAgIDwvZz4mI3hhOyAgICAgPC9nPiYjeGE7ICAgIDwvZz4mI3hhOyAgICA8ZyBpZD0ieHRpY2tfMjQiPiYjeGE7ICAgICA8ZyBpZD0ibGluZTJkXzg1Ij4mI3hhOyAgICAgIDxwYXRoIHN0eWxlPSJmaWxsOiBub25lOyBzdHJva2U6ICNiMGIwYjA7IHN0cm9rZS13aWR0aDogMC44OyBzdHJva2UtbGluZWNhcDogc3F1YXJlIiBjbGlwLXBhdGg9InVybCgjcGE2YmE2YjMwMzMpIiBkPSJNIDc4NS4xMTQzNjIgNzA0LjA4NjU2ICYjMTA7TCA3ODUuMTE0MzYyIDUwOC4wOTY4OSIvPiYjeGE7ICAgICA8L2c+JiN4YTsgICAgIDxnIGlkPSJsaW5lMmRfODYiPiYjeGE7ICAgICAgPGc+JiN4YTsgICAgICAgPHVzZSBzdHlsZT0ic3Ryb2tlOiAjMDAwMDAwOyBzdHJva2Utd2lkdGg6IDAuOCIgeT0iNzA0LjA4NjU2IiB4PSI3ODUuMTE0MzYyIiB4bGluazpocmVmPSIjbWU4ZjgzNjg4YWMiLz4mI3hhOyAgICAgIDwvZz4mI3hhOyAgICAgPC9nPiYjeGE7ICAgICA8ZyBpZD0idGV4dF8zOCI+JiN4YTsgICAgICAmI3hhOyAgICAgIDxnIHRyYW5zZm9ybT0idHJhbnNsYXRlKDc3OC43NTE4NjIgNzE4LjY4NDk5OCkgc2NhbGUoMC4xIC0wLjEpIj4mI3hhOyAgICAgICA8dXNlIHhsaW5rOmhyZWY9IiNEZWphVnVTYW5zLTMzIi8+JiN4YTsgICAgICAgPHVzZSB4PSI2My42MjMwNDciIHhsaW5rOmhyZWY9IiNEZWphVnVTYW5zLTM1Ii8+JiN4YTsgICAgICA8L2c+JiN4YTsgICAgIDwvZz4mI3hhOyAgICA8L2c+JiN4YTsgICA8L2c+JiN4YTsgICA8ZyBpZD0ibWF0cGxvdGxpYi5heGlzXzYiPiYjeGE7ICAgIDxnIGlkPSJ5dGlja18xMyI+JiN4YTsgICAgIDxnIGlkPSJsaW5lMmRfODciPiYjeGE7ICAgICAgPHBhdGggc3R5bGU9ImZpbGw6IG5vbmU7IHN0cm9rZTogI2IwYjBiMDsgc3Ryb2tlLXdpZHRoOiAwLjg7IHN0cm9rZS1saW5lY2FwOiBzcXVhcmUiIGNsaXAtcGF0aD0idXJsKCNwYTZiYTZiMzAzMykiIGQ9Ik0gODQuNjc2MzIgNjk1LjIzODE1MSAmIzEwO0wgODE5LjM2NzkyIDY5NS4yMzgxNTEiLz4mI3hhOyAgICAgPC9nPiYjeGE7ICAgICA8ZyBpZD0ibGluZTJkXzg4Ij4mI3hhOyAgICAgIDxnPiYjeGE7ICAgICAgIDx1c2Ugc3R5bGU9InN0cm9rZTogIzAwMDAwMDsgc3Ryb2tlLXdpZHRoOiAwLjgiIHk9IjY5NS4yMzgxNTEiIHg9Ijg0LjY3NjMyIiB4bGluazpocmVmPSIjbWQwZjlmY2U2NjQiLz4mI3hhOyAgICAgIDwvZz4mI3hhOyAgICAgPC9nPiYjeGE7ICAgICA8ZyBpZD0idGV4dF8zOSI+JiN4YTsgICAgICAmI3hhOyAgICAgIDxnIHRyYW5zZm9ybT0idHJhbnNsYXRlKDQzLjg0NjYzMyA2OTkuMDM3MzY5KSBzY2FsZSgwLjEgLTAuMSkiPiYjeGE7ICAgICAgIDxkZWZzPiYjeGE7ICAgICAgICA8cGF0aCB0cmFuc2Zvcm09InNjYWxlKDAuMDE1NjI1KSIgZD0iTSA2NzggMjI3MiAmIzEwO0wgNDY4NCAyMjcyICYjMTA7TCA0Njg0IDE3NDEgJiMxMDtMIDY3OCAxNzQxICYjMTA7TCA2NzggMjI3MiAmIzEwO3oiIGlkPSJEZWphVnVTYW5zLTIyMTIiLz4mI3hhOyAgICAgICA8L2RlZnM+JiN4YTsgICAgICAgPHVzZSB4bGluazpocmVmPSIjRGVqYVZ1U2Fucy0yMjEyIi8+JiN4YTsgICAgICAgPHVzZSB4PSI4My43ODkwNjIiIHhsaW5rOmhyZWY9IiNEZWphVnVTYW5zLTMxIi8+JiN4YTsgICAgICAgPHVzZSB4PSIxNDcuNDEyMTA5IiB4bGluazpocmVmPSIjRGVqYVZ1U2Fucy0zNiIvPiYjeGE7ICAgICAgIDx1c2UgeD0iMjExLjAzNTE1NiIgeGxpbms6aHJlZj0iI0RlamFWdVNhbnMtMzAiLz4mI3hhOyAgICAgICA8dXNlIHg9IjI3NC42NTgyMDMiIHhsaW5rOmhyZWY9IiNEZWphVnVTYW5zLTMwIi8+JiN4YTsgICAgICA8L2c+JiN4YTsgICAgIDwvZz4mI3hhOyAgICA8L2c+JiN4YTsgICAgPGcgaWQ9Inl0aWNrXzE0Ij4mI3hhOyAgICAgPGcgaWQ9ImxpbmUyZF84OSI+JiN4YTsgICAgICA8cGF0aCBzdHlsZT0iZmlsbDogbm9uZTsgc3Ryb2tlOiAjYjBiMGIwOyBzdHJva2Utd2lkdGg6IDAuODsgc3Ryb2tlLWxpbmVjYXA6IHNxdWFyZSIgY2xpcC1wYXRoPSJ1cmwoI3BhNmJhNmIzMDMzKSIgZD0iTSA4NC42NzYzMiA2NzMuMDM5MzI3ICYjMTA7TCA4MTkuMzY3OTIgNjczLjAzOTMyNyIvPiYjeGE7ICAgICA8L2c+JiN4YTsgICAgIDxnIGlkPSJsaW5lMmRfOTAiPiYjeGE7ICAgICAgPGc+JiN4YTsgICAgICAgPHVzZSBzdHlsZT0ic3Ryb2tlOiAjMDAwMDAwOyBzdHJva2Utd2lkdGg6IDAuOCIgeT0iNjczLjAzOTMyNyIgeD0iODQuNjc2MzIiIHhsaW5rOmhyZWY9IiNtZDBmOWZjZTY2NCIvPiYjeGE7ICAgICAgPC9nPiYjeGE7ICAgICA8L2c+JiN4YTsgICAgIDxnIGlkPSJ0ZXh0XzQwIj4mI3hhOyAgICAgICYjeGE7ICAgICAgPGcgdHJhbnNmb3JtPSJ0cmFuc2xhdGUoNDMuODQ2NjMzIDY3Ni44Mzg1NDUpIHNjYWxlKDAuMSAtMC4xKSI+JiN4YTsgICAgICAgPHVzZSB4bGluazpocmVmPSIjRGVqYVZ1U2Fucy0yMjEyIi8+JiN4YTsgICAgICAgPHVzZSB4PSI4My43ODkwNjIiIHhsaW5rOmhyZWY9IiNEZWphVnVTYW5zLTMxIi8+JiN4YTsgICAgICAgPHVzZSB4PSIxNDcuNDEyMTA5IiB4bGluazpocmVmPSIjRGVqYVZ1U2Fucy0zNCIvPiYjeGE7ICAgICAgIDx1c2UgeD0iMjExLjAzNTE1NiIgeGxpbms6aHJlZj0iI0RlamFWdVNhbnMtMzAiLz4mI3hhOyAgICAgICA8dXNlIHg9IjI3NC42NTgyMDMiIHhsaW5rOmhyZWY9IiNEZWphVnVTYW5zLTMwIi8+JiN4YTsgICAgICA8L2c+JiN4YTsgICAgIDwvZz4mI3hhOyAgICA8L2c+JiN4YTsgICAgPGcgaWQ9Inl0aWNrXzE1Ij4mI3hhOyAgICAgPGcgaWQ9ImxpbmUyZF85MSI+JiN4YTsgICAgICA8cGF0aCBzdHlsZT0iZmlsbDogbm9uZTsgc3Ryb2tlOiAjYjBiMGIwOyBzdHJva2Utd2lkdGg6IDAuODsgc3Ryb2tlLWxpbmVjYXA6IHNxdWFyZSIgY2xpcC1wYXRoPSJ1cmwoI3BhNmJhNmIzMDMzKSIgZD0iTSA4NC42NzYzMiA2NTAuODQwNTAzICYjMTA7TCA4MTkuMzY3OTIgNjUwLjg0MDUwMyIvPiYjeGE7ICAgICA8L2c+JiN4YTsgICAgIDxnIGlkPSJsaW5lMmRfOTIiPiYjeGE7ICAgICAgPGc+JiN4YTsgICAgICAgPHVzZSBzdHlsZT0ic3Ryb2tlOiAjMDAwMDAwOyBzdHJva2Utd2lkdGg6IDAuOCIgeT0iNjUwLjg0MDUwMyIgeD0iODQuNjc2MzIiIHhsaW5rOmhyZWY9IiNtZDBmOWZjZTY2NCIvPiYjeGE7ICAgICAgPC9nPiYjeGE7ICAgICA8L2c+JiN4YTsgICAgIDxnIGlkPSJ0ZXh0XzQxIj4mI3hhOyAgICAgICYjeGE7ICAgICAgPGcgdHJhbnNmb3JtPSJ0cmFuc2xhdGUoNDMuODQ2NjMzIDY1NC42Mzk3MjEpIHNjYWxlKDAuMSAtMC4xKSI+JiN4YTsgICAgICAgPHVzZSB4bGluazpocmVmPSIjRGVqYVZ1U2Fucy0yMjEyIi8+JiN4YTsgICAgICAgPHVzZSB4PSI4My43ODkwNjIiIHhsaW5rOmhyZWY9IiNEZWphVnVTYW5zLTMxIi8+JiN4YTsgICAgICAgPHVzZSB4PSIxNDcuNDEyMTA5IiB4bGluazpocmVmPSIjRGVqYVZ1U2Fucy0zMiIvPiYjeGE7ICAgICAgIDx1c2UgeD0iMjExLjAzNTE1NiIgeGxpbms6aHJlZj0iI0RlamFWdVNhbnMtMzAiLz4mI3hhOyAgICAgICA8dXNlIHg9IjI3NC42NTgyMDMiIHhsaW5rOmhyZWY9IiNEZWphVnVTYW5zLTMwIi8+JiN4YTsgICAgICA8L2c+JiN4YTsgICAgIDwvZz4mI3hhOyAgICA8L2c+JiN4YTsgICAgPGcgaWQ9Inl0aWNrXzE2Ij4mI3hhOyAgICAgPGcgaWQ9ImxpbmUyZF85MyI+JiN4YTsgICAgICA8cGF0aCBzdHlsZT0iZmlsbDogbm9uZTsgc3Ryb2tlOiAjYjBiMGIwOyBzdHJva2Utd2lkdGg6IDAuODsgc3Ryb2tlLWxpbmVjYXA6IHNxdWFyZSIgY2xpcC1wYXRoPSJ1cmwoI3BhNmJhNmIzMDMzKSIgZD0iTSA4NC42NzYzMiA2MjguNjQxNjc5ICYjMTA7TCA4MTkuMzY3OTIgNjI4LjY0MTY3OSIvPiYjeGE7ICAgICA8L2c+JiN4YTsgICAgIDxnIGlkPSJsaW5lMmRfOTQiPiYjeGE7ICAgICAgPGc+JiN4YTsgICAgICAgPHVzZSBzdHlsZT0ic3Ryb2tlOiAjMDAwMDAwOyBzdHJva2Utd2lkdGg6IDAuOCIgeT0iNjI4LjY0MTY3OSIgeD0iODQuNjc2MzIiIHhsaW5rOmhyZWY9IiNtZDBmOWZjZTY2NCIvPiYjeGE7ICAgICAgPC9nPiYjeGE7ICAgICA8L2c+JiN4YTsgICAgIDxnIGlkPSJ0ZXh0XzQyIj4mI3hhOyAgICAgICYjeGE7ICAgICAgPGcgdHJhbnNmb3JtPSJ0cmFuc2xhdGUoNDMuODQ2NjMzIDYzMi40NDA4OTcpIHNjYWxlKDAuMSAtMC4xKSI+JiN4YTsgICAgICAgPHVzZSB4bGluazpocmVmPSIjRGVqYVZ1U2Fucy0yMjEyIi8+JiN4YTsgICAgICAgPHVzZSB4PSI4My43ODkwNjIiIHhsaW5rOmhyZWY9IiNEZWphVnVTYW5zLTMxIi8+JiN4YTsgICAgICAgPHVzZSB4PSIxNDcuNDEyMTA5IiB4bGluazpocmVmPSIjRGVqYVZ1U2Fucy0zMCIvPiYjeGE7ICAgICAgIDx1c2UgeD0iMjExLjAzNTE1NiIgeGxpbms6aHJlZj0iI0RlamFWdVNhbnMtMzAiLz4mI3hhOyAgICAgICA8dXNlIHg9IjI3NC42NTgyMDMiIHhsaW5rOmhyZWY9IiNEZWphVnVTYW5zLTMwIi8+JiN4YTsgICAgICA8L2c+JiN4YTsgICAgIDwvZz4mI3hhOyAgICA8L2c+JiN4YTsgICAgPGcgaWQ9Inl0aWNrXzE3Ij4mI3hhOyAgICAgPGcgaWQ9ImxpbmUyZF85NSI+JiN4YTsgICAgICA8cGF0aCBzdHlsZT0iZmlsbDogbm9uZTsgc3Ryb2tlOiAjYjBiMGIwOyBzdHJva2Utd2lkdGg6IDAuODsgc3Ryb2tlLWxpbmVjYXA6IHNxdWFyZSIgY2xpcC1wYXRoPSJ1cmwoI3BhNmJhNmIzMDMzKSIgZD0iTSA4NC42NzYzMiA2MDYuNDQyODU0ICYjMTA7TCA4MTkuMzY3OTIgNjA2LjQ0Mjg1NCIvPiYjeGE7ICAgICA8L2c+JiN4YTsgICAgIDxnIGlkPSJsaW5lMmRfOTYiPiYjeGE7ICAgICAgPGc+JiN4YTsgICAgICAgPHVzZSBzdHlsZT0ic3Ryb2tlOiAjMDAwMDAwOyBzdHJva2Utd2lkdGg6IDAuOCIgeT0iNjA2LjQ0Mjg1NCIgeD0iODQuNjc2MzIiIHhsaW5rOmhyZWY9IiNtZDBmOWZjZTY2NCIvPiYjeGE7ICAgICAgPC9nPiYjeGE7ICAgICA8L2c+JiN4YTsgICAgIDxnIGlkPSJ0ZXh0XzQzIj4mI3hhOyAgICAgICYjeGE7ICAgICAgPGcgdHJhbnNmb3JtPSJ0cmFuc2xhdGUoNTAuMjA5MTMzIDYxMC4yNDIwNzMpIHNjYWxlKDAuMSAtMC4xKSI+JiN4YTsgICAgICAgPHVzZSB4bGluazpocmVmPSIjRGVqYVZ1U2Fucy0yMjEyIi8+JiN4YTsgICAgICAgPHVzZSB4PSI4My43ODkwNjIiIHhsaW5rOmhyZWY9IiNEZWphVnVTYW5zLTM4Ii8+JiN4YTsgICAgICAgPHVzZSB4PSIxNDcuNDEyMTA5IiB4bGluazpocmVmPSIjRGVqYVZ1U2Fucy0zMCIvPiYjeGE7ICAgICAgIDx1c2UgeD0iMjExLjAzNTE1NiIgeGxpbms6aHJlZj0iI0RlamFWdVNhbnMtMzAiLz4mI3hhOyAgICAgIDwvZz4mI3hhOyAgICAgPC9nPiYjeGE7ICAgIDwvZz4mI3hhOyAgICA8ZyBpZD0ieXRpY2tfMTgiPiYjeGE7ICAgICA8ZyBpZD0ibGluZTJkXzk3Ij4mI3hhOyAgICAgIDxwYXRoIHN0eWxlPSJmaWxsOiBub25lOyBzdHJva2U6ICNiMGIwYjA7IHN0cm9rZS13aWR0aDogMC44OyBzdHJva2UtbGluZWNhcDogc3F1YXJlIiBjbGlwLXBhdGg9InVybCgjcGE2YmE2YjMwMzMpIiBkPSJNIDg0LjY3NjMyIDU4NC4yNDQwMyAmIzEwO0wgODE5LjM2NzkyIDU4NC4yNDQwMyIvPiYjeGE7ICAgICA8L2c+JiN4YTsgICAgIDxnIGlkPSJsaW5lMmRfOTgiPiYjeGE7ICAgICAgPGc+JiN4YTsgICAgICAgPHVzZSBzdHlsZT0ic3Ryb2tlOiAjMDAwMDAwOyBzdHJva2Utd2lkdGg6IDAuOCIgeT0iNTg0LjI0NDAzIiB4PSI4NC42NzYzMiIgeGxpbms6aHJlZj0iI21kMGY5ZmNlNjY0Ii8+JiN4YTsgICAgICA8L2c+JiN4YTsgICAgIDwvZz4mI3hhOyAgICAgPGcgaWQ9InRleHRfNDQiPiYjeGE7ICAgICAgJiN4YTsgICAgICA8ZyB0cmFuc2Zvcm09InRyYW5zbGF0ZSg1MC4yMDkxMzMgNTg4LjA0MzI0OSkgc2NhbGUoMC4xIC0wLjEpIj4mI3hhOyAgICAgICA8dXNlIHhsaW5rOmhyZWY9IiNEZWphVnVTYW5zLTIyMTIiLz4mI3hhOyAgICAgICA8dXNlIHg9IjgzLjc4OTA2MiIgeGxpbms6aHJlZj0iI0RlamFWdVNhbnMtMzYiLz4mI3hhOyAgICAgICA8dXNlIHg9IjE0Ny40MTIxMDkiIHhsaW5rOmhyZWY9IiNEZWphVnVTYW5zLTMwIi8+JiN4YTsgICAgICAgPHVzZSB4PSIyMTEuMDM1MTU2IiB4bGluazpocmVmPSIjRGVqYVZ1U2Fucy0zMCIvPiYjeGE7ICAgICAgPC9nPiYjeGE7ICAgICA8L2c+JiN4YTsgICAgPC9nPiYjeGE7ICAgIDxnIGlkPSJ5dGlja18xOSI+JiN4YTsgICAgIDxnIGlkPSJsaW5lMmRfOTkiPiYjeGE7ICAgICAgPHBhdGggc3R5bGU9ImZpbGw6IG5vbmU7IHN0cm9rZTogI2IwYjBiMDsgc3Ryb2tlLXdpZHRoOiAwLjg7IHN0cm9rZS1saW5lY2FwOiBzcXVhcmUiIGNsaXAtcGF0aD0idXJsKCNwYTZiYTZiMzAzMykiIGQ9Ik0gODQuNjc2MzIgNTYyLjA0NTIwNiAmIzEwO0wgODE5LjM2NzkyIDU2Mi4wNDUyMDYiLz4mI3hhOyAgICAgPC9nPiYjeGE7ICAgICA8ZyBpZD0ibGluZTJkXzEwMCI+JiN4YTsgICAgICA8Zz4mI3hhOyAgICAgICA8dXNlIHN0eWxlPSJzdHJva2U6ICMwMDAwMDA7IHN0cm9rZS13aWR0aDogMC44IiB5PSI1NjIuMDQ1MjA2IiB4PSI4NC42NzYzMiIgeGxpbms6aHJlZj0iI21kMGY5ZmNlNjY0Ii8+JiN4YTsgICAgICA8L2c+JiN4YTsgICAgIDwvZz4mI3hhOyAgICAgPGcgaWQ9InRleHRfNDUiPiYjeGE7ICAgICAgJiN4YTsgICAgICA8ZyB0cmFuc2Zvcm09InRyYW5zbGF0ZSg1MC4yMDkxMzMgNTY1Ljg0NDQyNSkgc2NhbGUoMC4xIC0wLjEpIj4mI3hhOyAgICAgICA8dXNlIHhsaW5rOmhyZWY9IiNEZWphVnVTYW5zLTIyMTIiLz4mI3hhOyAgICAgICA8dXNlIHg9IjgzLjc4OTA2MiIgeGxpbms6aHJlZj0iI0RlamFWdVNhbnMtMzQiLz4mI3hhOyAgICAgICA8dXNlIHg9IjE0Ny40MTIxMDkiIHhsaW5rOmhyZWY9IiNEZWphVnVTYW5zLTMwIi8+JiN4YTsgICAgICAgPHVzZSB4PSIyMTEuMDM1MTU2IiB4bGluazpocmVmPSIjRGVqYVZ1U2Fucy0zMCIvPiYjeGE7ICAgICAgPC9nPiYjeGE7ICAgICA8L2c+JiN4YTsgICAgPC9nPiYjeGE7ICAgIDxnIGlkPSJ5dGlja18yMCI+JiN4YTsgICAgIDxnIGlkPSJsaW5lMmRfMTAxIj4mI3hhOyAgICAgIDxwYXRoIHN0eWxlPSJmaWxsOiBub25lOyBzdHJva2U6ICNiMGIwYjA7IHN0cm9rZS13aWR0aDogMC44OyBzdHJva2UtbGluZWNhcDogc3F1YXJlIiBjbGlwLXBhdGg9InVybCgjcGE2YmE2YjMwMzMpIiBkPSJNIDg0LjY3NjMyIDUzOS44NDYzODIgJiMxMDtMIDgxOS4zNjc5MiA1MzkuODQ2MzgyIi8+JiN4YTsgICAgIDwvZz4mI3hhOyAgICAgPGcgaWQ9ImxpbmUyZF8xMDIiPiYjeGE7ICAgICAgPGc+JiN4YTsgICAgICAgPHVzZSBzdHlsZT0ic3Ryb2tlOiAjMDAwMDAwOyBzdHJva2Utd2lkdGg6IDAuOCIgeT0iNTM5Ljg0NjM4MiIgeD0iODQuNjc2MzIiIHhsaW5rOmhyZWY9IiNtZDBmOWZjZTY2NCIvPiYjeGE7ICAgICAgPC9nPiYjeGE7ICAgICA8L2c+JiN4YTsgICAgIDxnIGlkPSJ0ZXh0XzQ2Ij4mI3hhOyAgICAgICYjeGE7ICAgICAgPGcgdHJhbnNmb3JtPSJ0cmFuc2xhdGUoNTAuMjA5MTMzIDU0My42NDU2MDEpIHNjYWxlKDAuMSAtMC4xKSI+JiN4YTsgICAgICAgPHVzZSB4bGluazpocmVmPSIjRGVqYVZ1U2Fucy0yMjEyIi8+JiN4YTsgICAgICAgPHVzZSB4PSI4My43ODkwNjIiIHhsaW5rOmhyZWY9IiNEZWphVnVTYW5zLTMyIi8+JiN4YTsgICAgICAgPHVzZSB4PSIxNDcuNDEyMTA5IiB4bGluazpocmVmPSIjRGVqYVZ1U2Fucy0zMCIvPiYjeGE7ICAgICAgIDx1c2UgeD0iMjExLjAzNTE1NiIgeGxpbms6aHJlZj0iI0RlamFWdVNhbnMtMzAiLz4mI3hhOyAgICAgIDwvZz4mI3hhOyAgICAgPC9nPiYjeGE7ICAgIDwvZz4mI3hhOyAgICA8ZyBpZD0ieXRpY2tfMjEiPiYjeGE7ICAgICA8ZyBpZD0ibGluZTJkXzEwMyI+JiN4YTsgICAgICA8cGF0aCBzdHlsZT0iZmlsbDogbm9uZTsgc3Ryb2tlOiAjYjBiMGIwOyBzdHJva2Utd2lkdGg6IDAuODsgc3Ryb2tlLWxpbmVjYXA6IHNxdWFyZSIgY2xpcC1wYXRoPSJ1cmwoI3BhNmJhNmIzMDMzKSIgZD0iTSA4NC42NzYzMiA1MTcuNjQ3NTU4ICYjMTA7TCA4MTkuMzY3OTIgNTE3LjY0NzU1OCIvPiYjeGE7ICAgICA8L2c+JiN4YTsgICAgIDxnIGlkPSJsaW5lMmRfMTA0Ij4mI3hhOyAgICAgIDxnPiYjeGE7ICAgICAgIDx1c2Ugc3R5bGU9InN0cm9rZTogIzAwMDAwMDsgc3Ryb2tlLXdpZHRoOiAwLjgiIHk9IjUxNy42NDc1NTgiIHg9Ijg0LjY3NjMyIiB4bGluazpocmVmPSIjbWQwZjlmY2U2NjQiLz4mI3hhOyAgICAgIDwvZz4mI3hhOyAgICAgPC9nPiYjeGE7ICAgICA8ZyBpZD0idGV4dF80NyI+JiN4YTsgICAgICAmI3hhOyAgICAgIDxnIHRyYW5zZm9ybT0idHJhbnNsYXRlKDcxLjMxMzgyIDUyMS40NDY3NzcpIHNjYWxlKDAuMSAtMC4xKSI+JiN4YTsgICAgICAgPHVzZSB4bGluazpocmVmPSIjRGVqYVZ1U2Fucy0zMCIvPiYjeGE7ICAgICAgPC9nPiYjeGE7ICAgICA8L2c+JiN4YTsgICAgPC9nPiYjeGE7ICAgPC9nPiYjeGE7ICAgPGcgaWQ9ImxpbmUyZF8xMDUiPiYjeGE7ICAgIDxwYXRoIHN0eWxlPSJmaWxsOiBub25lOyBzdHJva2U6ICM0NDAxNTQ7IHN0cm9rZS13aWR0aDogMS41OyBzdHJva2UtbGluZWNhcDogc3F1YXJlIiBjbGlwLXBhdGg9InVybCgjcGE2YmE2YjMwMzMpIiBkPSJNIDExOC4wNzEzOTMgNTE3LjQzODQzOCAmIzEwO0wgMTgxLjU5OTI5NSA1MjEuMDkwMzYyICYjMTA7TCAxODMuMzE2MjY1IDUyMC43NDY5MjMgJiMxMDtMIDIxOS4zNzI2NDIgNTIyLjUzMDQgJiMxMDtMIDIyMS4wODk2MTIgNTIyLjkxNjY3NCAmIzEwO0wgMjc3Ljc0OTYzMyA1MjUuMzU4MjQzICYjMTA7TCAzNDIuOTk0NTA1IDUyOC40MDM4OTIgJiMxMDtMIDM0OS44NjIzODYgNTI4LjczNTg2NSAmIzEwO0wgMzUxLjU3OTM1NiA1MjguMjkzOTQxICYjMTA7TCA0MDEuMzcxNDk2IDUzMS4wNjM0MjEgJiMxMDtMIDQxOC41NDExOTkgNTMyLjA3NTgyNiAmIzEwO0wgNDIwLjI1ODE2OSA1MzEuOTU0NDkxICYjMTA7TCA0NDcuNzI5Njk0IDUzMy4zNzcwMTkgJiMxMDtMIDQ5NS44MDQ4NjMgNTM1Ljg5MzUxMyAmIzEwO0wgNDk3LjUyMTgzMyA1MzYuNjQ0Njg2ICYjMTA7TCA1MzMuNTc4MjEgNTM3Ljc5NDc1MiAmIzEwO0wgNTcxLjM1MTU1NyA1MzkuMjI1MjAzICYjMTA7TCA2MTAuODQxODc1IDU0MC45NDc2NzMgJiMxMDtMIDY1Mi4wNDkxNjIgNTQyLjk2OTAyMyAmIzEwO0wgNjY1Ljc4NDkyNSA1NDMuNjg5MzUgJiMxMDtMIDY2Ny41MDE4OTUgNTQ0LjI3NTkzOCAmIzEwO0wgNzAxLjg0MTMwMiA1NDUuOTYzMjczICYjMTA7TCA3MDMuNTU4MjcyIDU0Ni4wNTQwMjcgJiMxMDtMIDcwNS4yNzUyNDIgNTQ2LjMwNjA1MyAmIzEwO0wgNzM5LjYxNDY0OSA1NDcuOTA5NDM2ICYjMTA7TCA3NzIuMjM3MDg1IDU0OS42NjIxNjUgJiMxMDtMIDc4MC44MjE5MzYgNTUwLjE2Mzk1OSAmIzEwO0wgNzgyLjUzODkwNyA1NDkuNDQ3NDE4ICYjMTA7TCA3ODQuMjU1ODc3IDU1Mi4wNjM3MjQgJiMxMDtMIDc4NS45NzI4NDcgNTUyLjA1MDI1NiAmIzEwO0wgNzg1Ljk3Mjg0NyA1NTIuMDUwMjU2Ii8+JiN4YTsgICA8L2c+JiN4YTsgICA8ZyBpZD0ibGluZTJkXzEwNiI+JiN4YTsgICAgPHBhdGggc3R5bGU9ImZpbGw6IG5vbmU7IHN0cm9rZTogIzQ0Mzk4Mzsgc3Ryb2tlLXdpZHRoOiAxLjU7IHN0cm9rZS1saW5lY2FwOiBzcXVhcmUiIGNsaXAtcGF0aD0idXJsKCNwYTZiYTZiMzAzMykiIGQ9Ik0gMTE4LjA3MTM5MyA1MTcuOTA0MzAyICYjMTA7TCAxNTQuMTI3NzY5IDUyMC4xNzQzOTYgJiMxMDtMIDE1NS44NDQ3NCA1MjAuMTMzOTM4ICYjMTA7TCAxODEuNTk5Mjk1IDUyMS43NDEyMjYgJiMxMDtMIDE4My4zMTYyNjUgNTIxLjY0MjA1NyAmIzEwO0wgMjY3LjQ0NzgxMSA1MjcuNTQxNjI2ICYjMTA7TCA0MDkuOTU2MzQ3IDUzNy43NDM4MTkgJiMxMDtMIDQxMS42NzMzMTcgNTM3LjY4ODI5MyAmIzEwO0wgNTQ1LjU5NzAwMiA1NDYuODgxNjcxICYjMTA7TCA1ODMuMzcwMzQ5IDU0OS43NTgzMTIgJiMxMDtMIDYyMi44NjA2NjcgNTUyLjk4NDQyMSAmIzEwO0wgNjY0LjA2Nzk1NSA1NTYuNTcxOTE0ICYjMTA7TCA2NzQuMzY5Nzc2IDU1Ny41MDE5MTkgJiMxMDtMIDY3Ni4wODY3NDcgNTU2LjU0MTU0NiAmIzEwO0wgNjk4LjQwNzM2MSA1NTguMzk3NDM0ICYjMTA7TCA3MjkuMzEyODI3IDU2MS4xMDMzNDUgJiMxMDtMIDczMS4wMjk3OTcgNTYwLjc4MjA5OSAmIzEwO0wgNzQ4LjE5OTUgNTYxLjc2ODIwMiAmIzEwO0wgNzQ5LjkxNjQ3MSA1NjIuMjQwNzcgJiMxMDtMIDc3Mi4yMzcwODUgNTYzLjU1Mzg4OCAmIzEwO0wgNzg1Ljk3Mjg0NyA1NjQuNDgwOTI1ICYjMTA7TCA3ODUuOTcyODQ3IDU2NC40ODA5MjUiLz4mI3hhOyAgIDwvZz4mI3hhOyAgIDxnIGlkPSJsaW5lMmRfMTA3Ij4mI3hhOyAgICA8cGF0aCBzdHlsZT0iZmlsbDogbm9uZTsgc3Ryb2tlOiAjMzE2ODhlOyBzdHJva2Utd2lkdGg6IDEuNTsgc3Ryb2tlLWxpbmVjYXA6IHNxdWFyZSIgY2xpcC1wYXRoPSJ1cmwoI3BhNmJhNmIzMDMzKSIgZD0iTSAxMTguMDcxMzkzIDUxNy42ODc2NTggJiMxMDtMIDI0My40MTAyMjYgNTI5LjQ2ODc0MSAmIzEwO0wgMjk0LjkxOTMzNiA1MzQuNTc1OTQyICYjMTA7TCAzMDUuMjIxMTU4IDUzNS42MjcwOTkgJiMxMDtMIDMwNi45MzgxMjggNTM1LjYxODIxOSAmIzEwO0wgMzc5LjA1MDg4MSA1NDIuNzE5NDE4ICYjMTA7TCA0MTYuODI0MjI4IDU0Ni4zNjQzOTUgJiMxMDtMIDQ1Mi44ODA2MDUgNTUwLjA3MjI3NyAmIzEwO0wgNDU4LjAzMTUxNiA1NTAuNjIxNjgyICYjMTA7TCA0NTkuNzQ4NDg2IDU1MC42NDg5NzcgJiMxMDtMIDQ5Mi4zNzA5MjMgNTUzLjk4NDM2ICYjMTA7TCA1MTIuOTc0NTY2IDU1Ni4yMTAwMTQgJiMxMDtMIDUxNC42OTE1MzcgNTU2LjAwNzgzOSAmIzEwO0wgNTQzLjg4MDAzMiA1NTkuNjAyODU4ICYjMTA7TCA1NzEuMzUxNTU3IDU2My4wMDMwOTggJiMxMDtMIDU5MC4yMzgyMzEgNTY1LjI5NDgwOCAmIzEwO0wgNTkxLjk1NTIwMSA1NjUuOTMwNTM5ICYjMTA7TCA2MTUuOTkyNzg2IDU2OC4yNTY3NTQgJiMxMDtMIDY0MC4wMzAzNyA1NzAuNzk3NjMzICYjMTA7TCA2NjQuMDY3OTU1IDU3My41NjE2ODkgJiMxMDtMIDY4OC4xMDU1MzkgNTc2LjU1NjgzICYjMTA7TCA3MTIuMTQzMTI0IDU3OS43OTAzMzkgJiMxMDtMIDcyNS44Nzg4ODYgNTgxLjc0NzY2MiAmIzEwO0wgNzI3LjU5NTg1NiA1ODEuNzA1Mzc5ICYjMTA7TCA3MzYuMTgwNzA4IDU4Mi44MDAwOTYgJiMxMDtMIDczNy44OTc2NzggNTgyLjA5OTMwNCAmIzEwO0wgNzUxLjYzMzQ0MSA1ODMuODUxMDExICYjMTA7TCA3NTMuMzUwNDExIDU4NC40OTc5NjcgJiMxMDtMIDc2MC4yMTgyOTIgNTg1LjIyNTk4MiAmIzEwO0wgNzYxLjkzNTI2MyA1ODYuOTA1MDE0ICYjMTA7TCA3ODIuNTM4OTA3IDU4OS4zMzY0ODIgJiMxMDtMIDc4NS45NzI4NDcgNTg5Ljc2NDE5NyAmIzEwO0wgNzg1Ljk3Mjg0NyA1ODkuNzY0MTk3Ii8+JiN4YTsgICA8L2c+JiN4YTsgICA8ZyBpZD0ibGluZTJkXzEwOCI+JiN4YTsgICAgPHBhdGggc3R5bGU9ImZpbGw6IG5vbmU7IHN0cm9rZTogIzIxOTE4Yzsgc3Ryb2tlLXdpZHRoOiAxLjU7IHN0cm9rZS1saW5lY2FwOiBzcXVhcmUiIGNsaXAtcGF0aD0idXJsKCNwYTZiYTZiMzAzMykiIGQ9Ik0gMTE4LjA3MTM5MyA1MTguMDM2NTQ0ICYjMTA7TCAyMTAuNzg3NzkgNTI5Ljg3NTM4MSAmIzEwO0wgMjUxLjk5NTA3OCA1MzUuMjU2MjcyICYjMTA7TCAyNTMuNzEyMDQ4IDUzNS42MTcxMiAmIzEwO0wgMzA1LjIyMTE1OCA1NDIuMzM2ODk0ICYjMTA7TCAzMzQuNDA5NjUzIDU0Ni4zMTkxNDcgJiMxMDtMIDM3Mi4xODMgNTUxLjYyNDM1NSAmIzEwO0wgMzk2LjIyMDU4NSA1NTUuMTIyMDA0ICYjMTA7TCAzOTcuOTM3NTU1IDU1NS42NjgyOTEgJiMxMDtMIDQzMC41NTk5OTEgNTYwLjY3NzEzNCAmIzEwO0wgNDQ5LjQ0NjY2NSA1NjMuNTQyNjI0ICYjMTA7TCA0ODIuMDY5MTAxIDU2OC4xOTY3MDUgJiMxMDtMIDUxMi45NzQ1NjYgNTcyLjgwODEyOCAmIzEwO0wgNTQwLjQ0NjA5MSA1NzcuNjA0MzAxICYjMTA7TCA1NjcuOTE3NjE3IDU4Mi42MjczMTIgJiMxMDtMIDU5NS4zODkxNDIgNTg3Ljg4MDIwMyAmIzEwO0wgNjAyLjI1NzAyMyA1ODkuMjI5NjIyICYjMTA7TCA2MDUuNjkwOTY0IDU4OS41OTIyNjggJiMxMDtMIDYyOC4wMTE1NzggNTkzLjMwODA1MyAmIzEwO0wgNjUwLjMzMjE5MiA1OTcuMjQ0NTM2ICYjMTA7TCA2NzIuNjUyODA2IDYwMS40MDQxODMgJiMxMDtMIDY5NC45NzM0MiA2MDUuNzg4OTQ2ICYjMTA7TCA3MDUuMjc1MjQyIDYwNy44ODkwMjcgJiMxMDtMIDcwNi45OTIyMTMgNjA3Ljg0NjQxOCAmIzEwO0wgNzE1LjU3NzA2NCA2MDkuNDE3NDUxICYjMTA7TCA3MTcuMjk0MDM0IDYwOS40NDM3OTcgJiMxMDtMIDcyNS44Nzg4ODYgNjEwLjg5MDY1MiAmIzEwO0wgNzI5LjMxMjgyNyA2MTEuNzIxMDY0ICYjMTA7TCA3NDkuOTE2NDcxIDYxNi4yNDE3NjMgJiMxMDtMIDc3MC41MjAxMTQgNjIxLjAwODE0OSAmIzEwO0wgNzg1Ljk3Mjg0NyA2MjQuNzQ0MjY5ICYjMTA7TCA3ODUuOTcyODQ3IDYyNC43NDQyNjkiLz4mI3hhOyAgIDwvZz4mI3hhOyAgIDxnIGlkPSJsaW5lMmRfMTA5Ij4mI3hhOyAgICA8cGF0aCBzdHlsZT0iZmlsbDogbm9uZTsgc3Ryb2tlOiAjMzViNzc5OyBzdHJva2Utd2lkdGg6IDEuNTsgc3Ryb2tlLWxpbmVjYXA6IHNxdWFyZSIgY2xpcC1wYXRoPSJ1cmwoI3BhNmJhNmIzMDMzKSIgZD0iTSAxMTguMDcxMzkzIDUxNy4wMDU1MTEgJiMxMDtMIDIxMC43ODc3OSA1MzIuNTE4MjE5ICYjMTA7TCAyMTIuNTA0NzYgNTMzLjAxNDY1NyAmIzEwO0wgMjIyLjgwNjU4MiA1MzQuNzc4NTk5ICYjMTA7TCAyMjQuNTIzNTUzIDUzNi43MzY0NDIgJiMxMDtMIDIyOS42NzQ0NjQgNTM3LjY2OTU3NiAmIzEwO0wgMjMxLjM5MTQzNCA1MzUuNjQ1NTU2ICYjMTA7TCAyOTguMzUzMjc2IDU0OS4xNDc4MTEgJiMxMDtMIDMwMC4wNzAyNDcgNTQ5LjAxNDcxOCAmIzEwO0wgMzAxLjc4NzIxNyA1NDkuMzY3MDUzICYjMTA7TCAzMDMuNTA0MTg3IDU0OS4xNDYxMTIgJiMxMDtMIDMzNy44NDM1OTQgNTU2LjQyMTk2OSAmIzEwO0wgMzQ4LjE0NTQxNiA1NTguNjUwMDU5ICYjMTA7TCAzNDkuODYyMzg2IDU1OC41OTMzMzcgJiMxMDtMIDM4NS45MTg3NjMgNTY1LjU0OTg1NyAmIzEwO0wgMzkyLjc4NjY0NCA1NjYuOTAxODY1ICYjMTA7TCAzOTQuNTAzNjE0IDU2OC4yNDgxODIgJiMxMDtMIDQyOC44NDMwMjEgNTc0Ljc5OTE2NiAmIzEwO0wgNDYzLjE4MjQyNyA1ODEuNTcxNDExICYjMTA7TCA0OTcuNTIxODMzIDU4OC41NjU2ODcgJiMxMDtMIDUyNC45OTMzNTkgNTk0LjMyMDU4OSAmIzEwO0wgNTI2LjcxMDMyOSA1OTQuOTk5MTkyICYjMTA7TCA1NTQuMTgxODU0IDYwMS4xNTc4NDYgJiMxMDtMIDU4My4zNzAzNDkgNjA3LjkzNjA5NyAmIzEwO0wgNjAyLjI1NzAyMyA2MTIuNDQ5MDYzICYjMTA7TCA2MDMuOTczOTkzIDYxMy4wNDQ4NjYgJiMxMDtMIDYzMS40NDU1MTggNjE5Ljk2OTMwOSAmIzEwO0wgNjM2LjU5NjQyOSA2MjEuMjkzNjQzICYjMTA7TCA2MzguMzEzNCA2MjIuNTEwMTYzICYjMTA7TCA2NjQuMDY3OTU1IDYyOS43MzExOTcgJiMxMDtMIDY4MS4yMzc2NTggNjM0LjY4MDAyMSAmIzEwO0wgNjgyLjk1NDYyOCA2MzMuNzMzMTA0ICYjMTA7TCA3MTAuNDI2MTUzIDY0Mi45MjQ2NiAmIzEwO0wgNzEyLjE0MzEyNCA2NDIuNjk4OTYyICYjMTA7TCA3MzQuNDYzNzM4IDY1MC4wMTIwNzkgJiMxMDtMIDc1OC41MDEzMjIgNjU4LjEyNzM2NyAmIzEwO0wgNzgyLjUzODkwNyA2NjYuNDgwNzgzICYjMTA7TCA3ODUuOTcyODQ3IDY2Ny42OTI5MTUgJiMxMDtMIDc4NS45NzI4NDcgNjY3LjY5MjkxNSIvPiYjeGE7ICAgPC9nPiYjeGE7ICAgPGcgaWQ9ImxpbmUyZF8xMTAiPiYjeGE7ICAgIDxwYXRoIHN0eWxlPSJmaWxsOiBub25lOyBzdHJva2U6ICM5MGQ3NDM7IHN0cm9rZS13aWR0aDogMS41OyBzdHJva2UtbGluZWNhcDogc3F1YXJlIiBjbGlwLXBhdGg9InVybCgjcGE2YmE2YjMwMzMpIiBkPSJNIDExOC4wNzEzOTMgNTE3LjU2NDc1MyAmIzEwO0wgMTk4Ljc2ODk5OCA1MzYuMDkyNjE4ICYjMTA7TCAyMTcuNjU1NjcxIDU0MC4zNDM5NjEgJiMxMDtMIDMwMS43ODcyMTcgNTU3Ljk3NjI0NyAmIzEwO0wgMzAzLjUwNDE4NyA1NTguNTkwNzAyICYjMTA7TCAzNDkuODYyMzg2IDU2OC41MTYyMTcgJiMxMDtMIDM3NS42MTY5NDEgNTc0LjEyMjIzOCAmIzEwO0wgMzc3LjMzMzkxMSA1NzQuNzQyODI5ICYjMTA7TCA0MjMuNjkyMTEgNTg2LjIxNTY0ICYjMTA7TCA0NzUuMjAxMjE5IDU5OS4xOTkzOTUgJiMxMDtMIDUzMC4xNDQyNyA2MTMuMjUwMTI5ICYjMTA7TCA2MDUuNjkwOTY0IDYzNC40Mjc3NjkgJiMxMDtMIDY0OC42MTUyMjIgNjQ3LjU3NTQ2MSAmIzEwO0wgNjk2LjY5MDM5MSA2NjIuNTMwMjQzICYjMTA7TCA2OTguNDA3MzYxIDY2NC4wMDI5NDMgJiMxMDtMIDc0OC4xOTk1IDY4MC45NDcyNzMgJiMxMDtMIDc0OS45MTY0NzEgNjgxLjE3NjQ0OCAmIzEwO0wgNzczLjk1NDA1NSA2ODkuOTAwOTE0ICYjMTA7TCA3NzUuNjcxMDI1IDY5MC45OTg0NTkgJiMxMDtMIDc4NS45NzI4NDcgNjk1LjE3NzkzOSAmIzEwO0wgNzg1Ljk3Mjg0NyA2OTUuMTc3OTM5Ii8+JiN4YTsgICA8L2c+JiN4YTsgICA8ZyBpZD0ibGluZTJkXzExMSI+JiN4YTsgICAgPHBhdGggc3R5bGU9ImZpbGw6IG5vbmU7IHN0cm9rZTogI2ZkZTcyNTsgc3Ryb2tlLXdpZHRoOiAxLjU7IHN0cm9rZS1saW5lY2FwOiBzcXVhcmUiIGNsaXAtcGF0aD0idXJsKCNwYTZiYTZiMzAzMykiIGQ9Ik0gMTE4LjA3MTM5MyA1MTguMDEwNzU3ICYjMTA7TCAxNTIuNDEwNzk5IDUyNi4zNTU4MTUgJiMxMDtMIDE1NC4xMjc3NjkgNTI2LjA0NjM4NyAmIzEwO0wgMTU3LjU2MTcxIDUyNi45MTQyOTEgJiMxMDtMIDE1OS4yNzg2OCA1MjYuMjIzNjY0ICYjMTA7TCA0NjguMzMzMzM4IDYwNC40ODg0MTcgJiMxMDtMIDQ4MC4zNTIxMyA2MDcuNDU3NDEzICYjMTA7TCA0ODIuMDY5MTAxIDYwNy40NDc1MjEgJiMxMDtMIDQ5NC4wODc4OTMgNjEwLjYxMzU5MyAmIzEwO0wgNDk1LjgwNDg2MyA2MTAuNTc3MDQ3ICYjMTA7TCA1NDcuMzEzOTczIDYyNC4yNjExNjIgJiMxMDtMIDU5MC4yMzgyMzEgNjM1LjQ0MzE2MyAmIzEwO0wgNjYwLjYzNDAxNCA2NTMuNDcyNjc4ICYjMTA7TCA2NzcuODAzNzE3IDY1Ny43MTY4MSAmIzEwO0wgNjc5LjUyMDY4NyA2NTguMDYyMTgzICYjMTA7TCA3MTAuNDI2MTUzIDY2Ni41NTQyODkgJiMxMDtMIDczOS42MTQ2NDkgNjc0LjM0NDEyNiAmIzEwO0wgNzY3LjA4NjE3NCA2ODEuNDUxMTE0ICYjMTA7TCA3ODUuOTcyODQ3IDY4Ni4yMDEzMDYgJiMxMDtMIDc4NS45NzI4NDcgNjg2LjIwMTMwNiIvPiYjeGE7ICAgPC9nPiYjeGE7ICAgPGcgaWQ9InBhdGNoXzEzIj4mI3hhOyAgICA8cGF0aCBzdHlsZT0iZmlsbDogbm9uZTsgc3Ryb2tlOiAjMDAwMDAwOyBzdHJva2Utd2lkdGg6IDAuODsgc3Ryb2tlLWxpbmVqb2luOiBtaXRlcjsgc3Ryb2tlLWxpbmVjYXA6IHNxdWFyZSIgZD0iTSA4NC42NzYzMiA3MDQuMDg2NTYgJiMxMDtMIDg0LjY3NjMyIDUwOC4wOTY4OSIvPiYjeGE7ICAgPC9nPiYjeGE7ICAgPGcgaWQ9InBhdGNoXzE0Ij4mI3hhOyAgICA8cGF0aCBzdHlsZT0iZmlsbDogbm9uZTsgc3Ryb2tlOiAjMDAwMDAwOyBzdHJva2Utd2lkdGg6IDAuODsgc3Ryb2tlLWxpbmVqb2luOiBtaXRlcjsgc3Ryb2tlLWxpbmVjYXA6IHNxdWFyZSIgZD0iTSA4MTkuMzY3OTIgNzA0LjA4NjU2ICYjMTA7TCA4MTkuMzY3OTIgNTA4LjA5Njg5Ii8+JiN4YTsgICA8L2c+JiN4YTsgICA8ZyBpZD0icGF0Y2hfMTUiPiYjeGE7ICAgIDxwYXRoIHN0eWxlPSJmaWxsOiBub25lOyBzdHJva2U6ICMwMDAwMDA7IHN0cm9rZS13aWR0aDogMC44OyBzdHJva2UtbGluZWpvaW46IG1pdGVyOyBzdHJva2UtbGluZWNhcDogc3F1YXJlIiBkPSJNIDg0LjY3NjMyIDcwNC4wODY1NiAmIzEwO0wgODE5LjM2NzkyIDcwNC4wODY1NiIvPiYjeGE7ICAgPC9nPiYjeGE7ICAgPGcgaWQ9InBhdGNoXzE2Ij4mI3hhOyAgICA8cGF0aCBzdHlsZT0iZmlsbDogbm9uZTsgc3Ryb2tlOiAjMDAwMDAwOyBzdHJva2Utd2lkdGg6IDAuODsgc3Ryb2tlLWxpbmVqb2luOiBtaXRlcjsgc3Ryb2tlLWxpbmVjYXA6IHNxdWFyZSIgZD0iTSA4NC42NzYzMiA1MDguMDk2ODkgJiMxMDtMIDgxOS4zNjc5MiA1MDguMDk2ODkiLz4mI3hhOyAgIDwvZz4mI3hhOyAgIDxnIGlkPSJ0ZXh0XzQ4Ij4mI3hhOyAgICAmI3hhOyAgICA8ZyB0cmFuc2Zvcm09InRyYW5zbGF0ZSg0NDUuMTgyMTIgNTAyLjA5Njg5KSBzY2FsZSgwLjEyIC0wLjEyKSI+JiN4YTsgICAgIDxkZWZzPiYjeGE7ICAgICAgPHBhdGggdHJhbnNmb3JtPSJzY2FsZSgwLjAxNTYyNSkiIGQ9Ik0gMjA1OSAtMzI1ICYjMTA7USAxODE2IC05NTAgMTU4NCAtMTE0MCAmIzEwO1EgMTM1MyAtMTMzMSA5NjYgLTEzMzEgJiMxMDtMIDUwNiAtMTMzMSAmIzEwO0wgNTA2IC04NTAgJiMxMDtMIDg0NCAtODUwICYjMTA7USAxMDgxIC04NTAgMTIxMiAtNzM3ICYjMTA7USAxMzQ0IC02MjUgMTUwMyAtMjA2ICYjMTA7TCAxNjA2IDU2ICYjMTA7TCAxOTEgMzUwMCAmIzEwO0wgODAwIDM1MDAgJiMxMDtMIDE4OTQgNzYzICYjMTA7TCAyOTg4IDM1MDAgJiMxMDtMIDM1OTcgMzUwMCAmIzEwO0wgMjA1OSAtMzI1ICYjMTA7eiIgaWQ9IkRlamFWdVNhbnMtNzkiLz4mI3hhOyAgICAgPC9kZWZzPiYjeGE7ICAgICA8dXNlIHRyYW5zZm9ybT0idHJhbnNsYXRlKDAgMC4wOTM3NSkiIHhsaW5rOmhyZWY9IiNEZWphVnVTYW5zLTQyIi8+JiN4YTsgICAgIDx1c2UgdHJhbnNmb3JtPSJ0cmFuc2xhdGUoNjkuNTYwNTQ3IC0xNi4zMTI1KSBzY2FsZSgwLjcpIiB4bGluazpocmVmPSIjRGVqYVZ1U2Fucy03OSIvPiYjeGE7ICAgIDwvZz4mI3hhOyAgIDwvZz4mI3hhOyAgIDxnIGlkPSJsZWdlbmRfMSI+JiN4YTsgICAgPGcgaWQ9InBhdGNoXzE3Ij4mI3hhOyAgICAgPHBhdGggc3R5bGU9ImZpbGw6ICNmZmZmZmY7IG9wYWNpdHk6IDAuODsgc3Ryb2tlOiAjY2NjY2NjOyBzdHJva2UtbGluZWpvaW46IG1pdGVyIiBkPSJNIDkxLjY3NjMyIDY5OS4wODY1NiAmIzEwO0wgMjAyLjM1NDQ0NSA2OTkuMDg2NTYgJiMxMDtRIDIwNC4zNTQ0NDUgNjk5LjA4NjU2IDIwNC4zNTQ0NDUgNjk3LjA4NjU2ICYjMTA7TCAyMDQuMzU0NDQ1IDU4MC42NjE1NiAmIzEwO1EgMjA0LjM1NDQ0NSA1NzguNjYxNTYgMjAyLjM1NDQ0NSA1NzguNjYxNTYgJiMxMDtMIDkxLjY3NjMyIDU3OC42NjE1NiAmIzEwO1EgODkuNjc2MzIgNTc4LjY2MTU2IDg5LjY3NjMyIDU4MC42NjE1NiAmIzEwO0wgODkuNjc2MzIgNjk3LjA4NjU2ICYjMTA7USA4OS42NzYzMiA2OTkuMDg2NTYgOTEuNjc2MzIgNjk5LjA4NjU2ICYjMTA7eiIvPiYjeGE7ICAgIDwvZz4mI3hhOyAgICA8ZyBpZD0idGV4dF80OSI+JiN4YTsgICAgICYjeGE7ICAgICA8ZyB0cmFuc2Zvcm09InRyYW5zbGF0ZSg5My42NzYzMiA1OTAuMjU5OTk4KSBzY2FsZSgwLjEgLTAuMSkiPiYjeGE7ICAgICAgPGRlZnM+JiN4YTsgICAgICAgPHBhdGggdHJhbnNmb3JtPSJzY2FsZSgwLjAxNTYyNSkiIGQ9Ik0gMzQyNSA0NTEzICYjMTA7TCAzNDI1IDM4OTcgJiMxMDtRIDMwNjYgNDA2OSAyNzQ3IDQxNTMgJiMxMDtRIDI0MjggNDIzOCAyMTMxIDQyMzggJiMxMDtRIDE2MTYgNDIzOCAxMzM2IDQwMzggJiMxMDtRIDEwNTYgMzgzOCAxMDU2IDM0NjkgJiMxMDtRIDEwNTYgMzE1OSAxMjQyIDMwMDEgJiMxMDtRIDE0MjggMjg0NCAxOTQ3IDI3NDcgJiMxMDtMIDIzMjggMjY2OSAmIzEwO1EgMzAzNCAyNTM0IDMzNzAgMjE5NSAmIzEwO1EgMzcwNiAxODU2IDM3MDYgMTI4OCAmIzEwO1EgMzcwNiA2MDkgMzI1MSAyNTkgJiMxMDtRIDI3OTcgLTkxIDE5MTkgLTkxICYjMTA7USAxNTg4IC05MSAxMjE0IC0xNiAmIzEwO1EgODQxIDU5IDQ0MSAyMDYgJiMxMDtMIDQ0MSA4NTYgJiMxMDtRIDgyNSA2NDEgMTE5NCA1MzEgJiMxMDtRIDE1NjMgNDIyIDE5MTkgNDIyICYjMTA7USAyNDU5IDQyMiAyNzUzIDYzNCAmIzEwO1EgMzA0NyA4NDcgMzA0NyAxMjQxICYjMTA7USAzMDQ3IDE1ODQgMjgzNiAxNzc4ICYjMTA7USAyNjI1IDE5NzIgMjE0NCAyMDY5ICYjMTA7TCAxNzU5IDIxNDQgJiMxMDtRIDEwNTMgMjI4NCA3MzcgMjU4NCAmIzEwO1EgNDIyIDI4ODQgNDIyIDM0MTkgJiMxMDtRIDQyMiA0MDM4IDg1OCA0Mzk0ICYjMTA7USAxMjk0IDQ3NTAgMjA1OSA0NzUwICYjMTA7USAyMzg4IDQ3NTAgMjcyOCA0NjkwICYjMTA7USAzMDY5IDQ2MzEgMzQyNSA0NTEzICYjMTA7eiIgaWQ9IkRlamFWdVNhbnMtNTMiLz4mI3hhOyAgICAgICA8cGF0aCB0cmFuc2Zvcm09InNjYWxlKDAuMDE1NjI1KSIgZD0iTSAzNTk3IDE4OTQgJiMxMDtMIDM1OTcgMTYxMyAmIzEwO0wgOTUzIDE2MTMgJiMxMDtRIDk5MSAxMDE5IDEzMTEgNzA4ICYjMTA7USAxNjMxIDM5NyAyMjAzIDM5NyAmIzEwO1EgMjUzNCAzOTcgMjg0NSA0NzggJiMxMDtRIDMxNTYgNTU5IDM0NjMgNzIyICYjMTA7TCAzNDYzIDE3OCAmIzEwO1EgMzE1MyA0NyAyODI4IC0yMiAmIzEwO1EgMjUwMyAtOTEgMjE2OSAtOTEgJiMxMDtRIDEzMzEgLTkxIDg0MiAzOTYgJiMxMDtRIDM1MyA4ODQgMzUzIDE3MTYgJiMxMDtRIDM1MyAyNTc1IDgxNyAzMDc5ICYjMTA7USAxMjgxIDM1ODQgMjA2OSAzNTg0ICYjMTA7USAyNzc1IDM1ODQgMzE4NiAzMTI5ICYjMTA7USAzNTk3IDI2NzUgMzU5NyAxODk0ICYjMTA7eiYjMTA7TSAzMDIyIDIwNjMgJiMxMDtRIDMwMTYgMjUzNCAyNzU4IDI4MTUgJiMxMDtRIDI1MDAgMzA5NyAyMDc1IDMwOTcgJiMxMDtRIDE1OTQgMzA5NyAxMzA1IDI4MjUgJiMxMDtRIDEwMTYgMjU1MyA5NzIgMjA1OSAmIzEwO0wgMzAyMiAyMDYzICYjMTA7eiIgaWQ9IkRlamFWdVNhbnMtNjUiLz4mI3hhOyAgICAgICA8cGF0aCB0cmFuc2Zvcm09InNjYWxlKDAuMDE1NjI1KSIgZD0iTSAzNTEzIDIxMTMgJiMxMDtMIDM1MTMgMCAmIzEwO0wgMjkzOCAwICYjMTA7TCAyOTM4IDIwOTQgJiMxMDtRIDI5MzggMjU5MSAyNzQ0IDI4MzcgJiMxMDtRIDI1NTAgMzA4NCAyMTYzIDMwODQgJiMxMDtRIDE2OTcgMzA4NCAxNDI4IDI3ODcgJiMxMDtRIDExNTkgMjQ5MSAxMTU5IDE5NzggJiMxMDtMIDExNTkgMCAmIzEwO0wgNTgxIDAgJiMxMDtMIDU4MSAzNTAwICYjMTA7TCAxMTU5IDM1MDAgJiMxMDtMIDExNTkgMjk1NiAmIzEwO1EgMTM2NiAzMjcyIDE2NDUgMzQyOCAmIzEwO1EgMTkyNSAzNTg0IDIyOTEgMzU4NCAmIzEwO1EgMjg5NCAzNTg0IDMyMDMgMzIxMSAmIzEwO1EgMzUxMyAyODM4IDM1MTMgMjExMyAmIzEwO3oiIGlkPSJEZWphVnVTYW5zLTZlIi8+JiN4YTsgICAgICAgPHBhdGggdHJhbnNmb3JtPSJzY2FsZSgwLjAxNTYyNSkiIGQ9Ik0gMjgzNCAzMzk3ICYjMTA7TCAyODM0IDI4NTMgJiMxMDtRIDI1OTEgMjk3OCAyMzI4IDMwNDAgJiMxMDtRIDIwNjYgMzEwMyAxNzg0IDMxMDMgJiMxMDtRIDEzNTYgMzEwMyAxMTQyIDI5NzIgJiMxMDtRIDkyOCAyODQxIDkyOCAyNTc4ICYjMTA7USA5MjggMjM3OCAxMDgxIDIyNjQgJiMxMDtRIDEyMzQgMjE1MCAxNjk3IDIwNDcgJiMxMDtMIDE4OTQgMjAwMyAmIzEwO1EgMjUwNiAxODcyIDI3NjQgMTYzMyAmIzEwO1EgMzAyMiAxMzk0IDMwMjIgOTY2ICYjMTA7USAzMDIyIDQ3OCAyNjM2IDE5MyAmIzEwO1EgMjI1MCAtOTEgMTU3NSAtOTEgJiMxMDtRIDEyOTQgLTkxIDk4OSAtMzYgJiMxMDtRIDY4NCAxOSAzNDcgMTI4ICYjMTA7TCAzNDcgNzIyICYjMTA7USA2NjYgNTU2IDk3NSA0NzMgJiMxMDtRIDEyODQgMzkxIDE1ODggMzkxICYjMTA7USAxOTk0IDM5MSAyMjEyIDUzMCAmIzEwO1EgMjQzMSA2NjkgMjQzMSA5MjIgJiMxMDtRIDI0MzEgMTE1NiAyMjczIDEyODEgJiMxMDtRIDIxMTYgMTQwNiAxNTgxIDE1MjIgJiMxMDtMIDEzODEgMTU2OSAmIzEwO1EgODQ3IDE2ODEgNjA5IDE5MTQgJiMxMDtRIDM3MiAyMTQ3IDM3MiAyNTUzICYjMTA7USAzNzIgMzA0NyA3MjIgMzMxNSAmIzEwO1EgMTA3MiAzNTg0IDE3MTYgMzU4NCAmIzEwO1EgMjAzNCAzNTg0IDIzMTUgMzUzNyAmIzEwO1EgMjU5NyAzNDkxIDI4MzQgMzM5NyAmIzEwO3oiIGlkPSJEZWphVnVTYW5zLTczIi8+JiN4YTsgICAgICAgPHBhdGggdHJhbnNmb3JtPSJzY2FsZSgwLjAxNTYyNSkiIGQ9Ik0gNjAzIDM1MDAgJiMxMDtMIDExNzggMzUwMCAmIzEwO0wgMTE3OCAwICYjMTA7TCA2MDMgMCAmIzEwO0wgNjAzIDM1MDAgJiMxMDt6JiMxMDtNIDYwMyA0ODYzICYjMTA7TCAxMTc4IDQ4NjMgJiMxMDtMIDExNzggNDEzNCAmIzEwO0wgNjAzIDQxMzQgJiMxMDtMIDYwMyA0ODYzICYjMTA7eiIgaWQ9IkRlamFWdVNhbnMtNjkiLz4mI3hhOyAgICAgICA8cGF0aCB0cmFuc2Zvcm09InNjYWxlKDAuMDE1NjI1KSIgZD0iTSAyOTA2IDE3OTEgJiMxMDtRIDI5MDYgMjQxNiAyNjQ4IDI3NTkgJiMxMDtRIDIzOTEgMzEwMyAxOTI1IDMxMDMgJiMxMDtRIDE0NjMgMzEwMyAxMjA1IDI3NTkgJiMxMDtRIDk0NyAyNDE2IDk0NyAxNzkxICYjMTA7USA5NDcgMTE2OSAxMjA1IDgyNSAmIzEwO1EgMTQ2MyA0ODEgMTkyNSA0ODEgJiMxMDtRIDIzOTEgNDgxIDI2NDggODI1ICYjMTA7USAyOTA2IDExNjkgMjkwNiAxNzkxICYjMTA7eiYjMTA7TSAzNDgxIDQzNCAmIzEwO1EgMzQ4MSAtNDU5IDMwODQgLTg5NSAmIzEwO1EgMjY4OCAtMTMzMSAxODY5IC0xMzMxICYjMTA7USAxNTY2IC0xMzMxIDEyOTcgLTEyODYgJiMxMDtRIDEwMjggLTEyNDEgNzc1IC0xMTQ3ICYjMTA7TCA3NzUgLTU4OCAmIzEwO1EgMTAyOCAtNzI1IDEyNzUgLTc5MCAmIzEwO1EgMTUyMiAtODU2IDE3NzggLTg1NiAmIzEwO1EgMjM0NCAtODU2IDI2MjUgLTU2MSAmIzEwO1EgMjkwNiAtMjY2IDI5MDYgMzMxICYjMTA7TCAyOTA2IDYxNiAmIzEwO1EgMjcyOCAzMDYgMjQ1MCAxNTMgJiMxMDtRIDIxNzIgMCAxNzg0IDAgJiMxMDtRIDExNDEgMCA3NDcgNDkwICYjMTA7USAzNTMgOTgxIDM1MyAxNzkxICYjMTA7USAzNTMgMjYwMyA3NDcgMzA5MyAmIzEwO1EgMTE0MSAzNTg0IDE3ODQgMzU4NCAmIzEwO1EgMjE3MiAzNTg0IDI0NTAgMzQzMSAmIzEwO1EgMjcyOCAzMjc4IDI5MDYgMjk2OSAmIzEwO0wgMjkwNiAzNTAwICYjMTA7TCAzNDgxIDM1MDAgJiMxMDtMIDM0ODEgNDM0ICYjMTA7eiIgaWQ9IkRlamFWdVNhbnMtNjciLz4mI3hhOyAgICAgICA8cGF0aCB0cmFuc2Zvcm09InNjYWxlKDAuMDE1NjI1KSIgaWQ9IkRlamFWdVNhbnMtMjAiLz4mI3hhOyAgICAgICA8cGF0aCB0cmFuc2Zvcm09InNjYWxlKDAuMDE1NjI1KSIgZD0iTSAyODQxIDIxODggJiMxMDtRIDMwNDQgMjExOSAzMjM2IDE4OTQgJiMxMDtRIDM0MjggMTY2OSAzNjIyIDEyNzUgJiMxMDtMIDQyNjMgMCAmIzEwO0wgMzU4NCAwICYjMTA7TCAyOTg4IDExOTcgJiMxMDtRIDI3NTYgMTY2NiAyNTM5IDE4MTkgJiMxMDtRIDIzMjIgMTk3MiAxOTQ3IDE5NzIgJiMxMDtMIDEyNTkgMTk3MiAmIzEwO0wgMTI1OSAwICYjMTA7TCA2MjggMCAmIzEwO0wgNjI4IDQ2NjYgJiMxMDtMIDIwNTMgNDY2NiAmIzEwO1EgMjg1MyA0NjY2IDMyNDcgNDMzMSAmIzEwO1EgMzY0MSAzOTk3IDM2NDEgMzMyMiAmIzEwO1EgMzY0MSAyODgxIDM0MzYgMjU5MCAmIzEwO1EgMzIzMSAyMzAwIDI4NDEgMjE4OCAmIzEwO3omIzEwO00gMTI1OSA0MTQ3ICYjMTA7TCAxMjU5IDI0OTEgJiMxMDtMIDIwNTMgMjQ5MSAmIzEwO1EgMjUwOSAyNDkxIDI3NDIgMjcwMiAmIzEwO1EgMjk3NSAyOTEzIDI5NzUgMzMyMiAmIzEwO1EgMjk3NSAzNzMxIDI3NDIgMzkzOSAmIzEwO1EgMjUwOSA0MTQ3IDIwNTMgNDE0NyAmIzEwO0wgMTI1OSA0MTQ3ICYjMTA7eiIgaWQ9IkRlamFWdVNhbnMtNTIiLz4mI3hhOyAgICAgICA8cGF0aCB0cmFuc2Zvcm09InNjYWxlKDAuMDE1NjI1KSIgZD0iTSAyMTk0IDE3NTkgJiMxMDtRIDE0OTcgMTc1OSAxMjI4IDE2MDAgJiMxMDtRIDk1OSAxNDQxIDk1OSAxMDU2ICYjMTA7USA5NTkgNzUwIDExNjEgNTcwICYjMTA7USAxMzYzIDM5MSAxNzA5IDM5MSAmIzEwO1EgMjE4OCAzOTEgMjQ3NyA3MzAgJiMxMDtRIDI3NjYgMTA2OSAyNzY2IDE2MzEgJiMxMDtMIDI3NjYgMTc1OSAmIzEwO0wgMjE5NCAxNzU5ICYjMTA7eiYjMTA7TSAzMzQxIDE5OTcgJiMxMDtMIDMzNDEgMCAmIzEwO0wgMjc2NiAwICYjMTA7TCAyNzY2IDUzMSAmIzEwO1EgMjU2OSAyMTMgMjI3NSA2MSAmIzEwO1EgMTk4MSAtOTEgMTU1NiAtOTEgJiMxMDtRIDEwMTkgLTkxIDcwMSAyMTEgJiMxMDtRIDM4NCA1MTMgMzg0IDEwMTkgJiMxMDtRIDM4NCAxNjA5IDc3OSAxOTA5ICYjMTA7USAxMTc1IDIyMDkgMTk1OSAyMjA5ICYjMTA7TCAyNzY2IDIyMDkgJiMxMDtMIDI3NjYgMjI2NiAmIzEwO1EgMjc2NiAyNjYzIDI1MDUgMjg4MCAmIzEwO1EgMjI0NCAzMDk3IDE3NzIgMzA5NyAmIzEwO1EgMTQ3MiAzMDk3IDExODcgMzAyNSAmIzEwO1EgOTAzIDI5NTMgNjQxIDI4MDkgJiMxMDtMIDY0MSAzMzQxICYjMTA7USA5NTYgMzQ2MyAxMjUzIDM1MjMgJiMxMDtRIDE1NTAgMzU4NCAxODMxIDM1ODQgJiMxMDtRIDI1OTEgMzU4NCAyOTY2IDMxOTAgJiMxMDtRIDMzNDEgMjc5NyAzMzQxIDE5OTcgJiMxMDt6IiBpZD0iRGVqYVZ1U2Fucy02MSIvPiYjeGE7ICAgICAgIDxwYXRoIHRyYW5zZm9ybT0ic2NhbGUoMC4wMTU2MjUpIiBkPSJNIDI5MDYgMjk2OSAmIzEwO0wgMjkwNiA0ODYzICYjMTA7TCAzNDgxIDQ4NjMgJiMxMDtMIDM0ODEgMCAmIzEwO0wgMjkwNiAwICYjMTA7TCAyOTA2IDUyNSAmIzEwO1EgMjcyNSAyMTMgMjQ0OCA2MSAmIzEwO1EgMjE3MiAtOTEgMTc4NCAtOTEgJiMxMDtRIDExNTAgLTkxIDc1MSA0MTUgJiMxMDtRIDM1MyA5MjIgMzUzIDE3NDcgJiMxMDtRIDM1MyAyNTcyIDc1MSAzMDc4ICYjMTA7USAxMTUwIDM1ODQgMTc4NCAzNTg0ICYjMTA7USAyMTcyIDM1ODQgMjQ0OCAzNDMyICYjMTA7USAyNzI1IDMyODEgMjkwNiAyOTY5ICYjMTA7eiYjMTA7TSA5NDcgMTc0NyAmIzEwO1EgOTQ3IDExMTMgMTIwOCA3NTIgJiMxMDtRIDE0NjkgMzkxIDE5MjUgMzkxICYjMTA7USAyMzgxIDM5MSAyNjQzIDc1MiAmIzEwO1EgMjkwNiAxMTEzIDI5MDYgMTc0NyAmIzEwO1EgMjkwNiAyMzgxIDI2NDMgMjc0MiAmIzEwO1EgMjM4MSAzMTAzIDE5MjUgMzEwMyAmIzEwO1EgMTQ2OSAzMTAzIDEyMDggMjc0MiAmIzEwO1EgOTQ3IDIzODEgOTQ3IDE3NDcgJiMxMDt6IiBpZD0iRGVqYVZ1U2Fucy02NCIvPiYjeGE7ICAgICAgIDxwYXRoIHRyYW5zZm9ybT0ic2NhbGUoMC4wMTU2MjUpIiBkPSJNIDU0NCAxMzgxICYjMTA7TCA1NDQgMzUwMCAmIzEwO0wgMTExOSAzNTAwICYjMTA7TCAxMTE5IDE0MDMgJiMxMDtRIDExMTkgOTA2IDEzMTIgNjU3ICYjMTA7USAxNTA2IDQwOSAxODk0IDQwOSAmIzEwO1EgMjM1OSA0MDkgMjYyOSA3MDYgJiMxMDtRIDI5MDAgMTAwMyAyOTAwIDE1MTYgJiMxMDtMIDI5MDAgMzUwMCAmIzEwO0wgMzQ3NSAzNTAwICYjMTA7TCAzNDc1IDAgJiMxMDtMIDI5MDAgMCAmIzEwO0wgMjkwMCA1MzggJiMxMDtRIDI2OTEgMjE5IDI0MTQgNjQgJiMxMDtRIDIxMzggLTkxIDE3NzIgLTkxICYjMTA7USAxMTY5IC05MSA4NTYgMjg0ICYjMTA7USA1NDQgNjU5IDU0NCAxMzgxICYjMTA7eiYjMTA7TSAxOTkxIDM1ODQgJiMxMDtMIDE5OTEgMzU4NCAmIzEwO3oiIGlkPSJEZWphVnVTYW5zLTc1Ii8+JiN4YTsgICAgICAgPHBhdGggdHJhbnNmb3JtPSJzY2FsZSgwLjAxNTYyNSkiIGQ9Ik0gNTUwIDQ4NjMgJiMxMDtMIDE4NzUgNDg2MyAmIzEwO0wgMTg3NSA0NDE2ICYjMTA7TCAxMTI1IDQ0MTYgJiMxMDtMIDExMjUgLTM5NyAmIzEwO0wgMTg3NSAtMzk3ICYjMTA7TCAxODc1IC04NDQgJiMxMDtMIDU1MCAtODQ0ICYjMTA7TCA1NTAgNDg2MyAmIzEwO3oiIGlkPSJEZWphVnVTYW5zLTViIi8+JiN4YTsgICAgICAgPHBhdGggdHJhbnNmb3JtPSJzY2FsZSgwLjAxNTYyNSkiIGQ9Ik0gMzMyOCAyODI4ICYjMTA7USAzNTQ0IDMyMTYgMzg0NCAzNDAwICYjMTA7USA0MTQ0IDM1ODQgNDU1MCAzNTg0ICYjMTA7USA1MDk3IDM1ODQgNTM5NCAzMjAxICYjMTA7USA1NjkxIDI4MTkgNTY5MSAyMTEzICYjMTA7TCA1NjkxIDAgJiMxMDtMIDUxMTMgMCAmIzEwO0wgNTExMyAyMDk0ICYjMTA7USA1MTEzIDI1OTcgNDkzNCAyODQwICYjMTA7USA0NzU2IDMwODQgNDM5MSAzMDg0ICYjMTA7USAzOTQ0IDMwODQgMzY4NCAyNzg3ICYjMTA7USAzNDI1IDI0OTEgMzQyNSAxOTc4ICYjMTA7TCAzNDI1IDAgJiMxMDtMIDI4NDcgMCAmIzEwO0wgMjg0NyAyMDk0ICYjMTA7USAyODQ3IDI2MDAgMjY2OSAyODQyICYjMTA7USAyNDkxIDMwODQgMjExOSAzMDg0ICYjMTA7USAxNjc4IDMwODQgMTQxOCAyNzg2ICYjMTA7USAxMTU5IDI0ODggMTE1OSAxOTc4ICYjMTA7TCAxMTU5IDAgJiMxMDtMIDU4MSAwICYjMTA7TCA1ODEgMzUwMCAmIzEwO0wgMTE1OSAzNTAwICYjMTA7TCAxMTU5IDI5NTYgJiMxMDtRIDEzNTYgMzI3OCAxNjMxIDM0MzEgJiMxMDtRIDE5MDYgMzU4NCAyMjg0IDM1ODQgJiMxMDtRIDI2NjYgMzU4NCAyOTMzIDMzOTAgJiMxMDtRIDMyMDAgMzE5NyAzMzI4IDI4MjggJiMxMDt6IiBpZD0iRGVqYVZ1U2Fucy02ZCIvPiYjeGE7ICAgICAgIDxwYXRoIHRyYW5zZm9ybT0ic2NhbGUoMC4wMTU2MjUpIiBkPSJNIDE5NDcgNDg2MyAmIzEwO0wgMTk0NyAtODQ0ICYjMTA7TCA2MjIgLTg0NCAmIzEwO0wgNjIyIC0zOTcgJiMxMDtMIDEzNjkgLTM5NyAmIzEwO0wgMTM2OSA0NDE2ICYjMTA7TCA2MjIgNDQxNiAmIzEwO0wgNjIyIDQ4NjMgJiMxMDtMIDE5NDcgNDg2MyAmIzEwO3oiIGlkPSJEZWphVnVTYW5zLTVkIi8+JiN4YTsgICAgICA8L2RlZnM+JiN4YTsgICAgICA8dXNlIHhsaW5rOmhyZWY9IiNEZWphVnVTYW5zLTUzIi8+JiN4YTsgICAgICA8dXNlIHg9IjYzLjQ3NjU2MiIgeGxpbms6aHJlZj0iI0RlamFWdVNhbnMtNjUiLz4mI3hhOyAgICAgIDx1c2UgeD0iMTI1IiB4bGluazpocmVmPSIjRGVqYVZ1U2Fucy02ZSIvPiYjeGE7ICAgICAgPHVzZSB4PSIxODguMzc4OTA2IiB4bGluazpocmVmPSIjRGVqYVZ1U2Fucy03MyIvPiYjeGE7ICAgICAgPHVzZSB4PSIyNDAuNDc4NTE2IiB4bGluazpocmVmPSIjRGVqYVZ1U2Fucy02OSIvPiYjeGE7ICAgICAgPHVzZSB4PSIyNjguMjYxNzE5IiB4bGluazpocmVmPSIjRGVqYVZ1U2Fucy02ZSIvPiYjeGE7ICAgICAgPHVzZSB4PSIzMzEuNjQwNjI1IiB4bGluazpocmVmPSIjRGVqYVZ1U2Fucy02NyIvPiYjeGE7ICAgICAgPHVzZSB4PSIzOTUuMTE3MTg4IiB4bGluazpocmVmPSIjRGVqYVZ1U2Fucy0yMCIvPiYjeGE7ICAgICAgPHVzZSB4PSI0MjYuOTA0Mjk3IiB4bGluazpocmVmPSIjRGVqYVZ1U2Fucy01MiIvPiYjeGE7ICAgICAgPHVzZSB4PSI0OTQuMTM2NzE5IiB4bGluazpocmVmPSIjRGVqYVZ1U2Fucy02MSIvPiYjeGE7ICAgICAgPHVzZSB4PSI1NTUuNDE2MDE2IiB4bGluazpocmVmPSIjRGVqYVZ1U2Fucy02NCIvPiYjeGE7ICAgICAgPHVzZSB4PSI2MTguODkyNTc4IiB4bGluazpocmVmPSIjRGVqYVZ1U2Fucy02OSIvPiYjeGE7ICAgICAgPHVzZSB4PSI2NDYuNjc1NzgxIiB4bGluazpocmVmPSIjRGVqYVZ1U2Fucy03NSIvPiYjeGE7ICAgICAgPHVzZSB4PSI3MTAuMDU0Njg4IiB4bGluazpocmVmPSIjRGVqYVZ1U2Fucy03MyIvPiYjeGE7ICAgICAgPHVzZSB4PSI3NjIuMTU0Mjk3IiB4bGluazpocmVmPSIjRGVqYVZ1U2Fucy0yMCIvPiYjeGE7ICAgICAgPHVzZSB4PSI3OTMuOTQxNDA2IiB4bGluazpocmVmPSIjRGVqYVZ1U2Fucy01YiIvPiYjeGE7ICAgICAgPHVzZSB4PSI4MzIuOTU1MDc4IiB4bGluazpocmVmPSIjRGVqYVZ1U2Fucy02ZCIvPiYjeGE7ICAgICAgPHVzZSB4PSI5MzAuMzY3MTg4IiB4bGluazpocmVmPSIjRGVqYVZ1U2Fucy02ZCIvPiYjeGE7ICAgICAgPHVzZSB4PSIxMDI3Ljc3OTI5NyIgeGxpbms6aHJlZj0iI0RlamFWdVNhbnMtNWQiLz4mI3hhOyAgICAgPC9nPiYjeGE7ICAgIDwvZz4mI3hhOyAgICA8ZyBpZD0icGF0Y2hfMTgiPiYjeGE7ICAgICA8cGF0aCBzdHlsZT0iZmlsbDogIzQ0MDE1NDsgc3Ryb2tlOiAjNDQwMTU0OyBzdHJva2UtbGluZWpvaW46IG1pdGVyIiBkPSJNIDEyNS4wNjM4MiA2MDQuOTM4MTIyICYjMTA7TCAxNDUuMDYzODIgNjA0LjkzODEyMiAmIzEwO0wgMTQ1LjA2MzgyIDU5Ny45MzgxMjIgJiMxMDtMIDEyNS4wNjM4MiA1OTcuOTM4MTIyICYjMTA7eiIvPiYjeGE7ICAgIDwvZz4mI3hhOyAgICA8ZyBpZD0idGV4dF81MCI+JiN4YTsgICAgICYjeGE7ICAgICA8ZyB0cmFuc2Zvcm09InRyYW5zbGF0ZSgxNTMuMDYzODIgNjA0LjkzODEyMikgc2NhbGUoMC4xIC0wLjEpIj4mI3hhOyAgICAgIDxkZWZzPiYjeGE7ICAgICAgIDxwYXRoIHRyYW5zZm9ybT0ic2NhbGUoMC4wMTU2MjUpIiBkPSJNIDY4NCA3OTQgJiMxMDtMIDEzNDQgNzk0ICYjMTA7TCAxMzQ0IDAgJiMxMDtMIDY4NCAwICYjMTA7TCA2ODQgNzk0ICYjMTA7eiIgaWQ9IkRlamFWdVNhbnMtMmUiLz4mI3hhOyAgICAgIDwvZGVmcz4mI3hhOyAgICAgIDx1c2UgeGxpbms6aHJlZj0iI0RlamFWdVNhbnMtMzUiLz4mI3hhOyAgICAgIDx1c2UgeD0iNjMuNjIzMDQ3IiB4bGluazpocmVmPSIjRGVqYVZ1U2Fucy0yZSIvPiYjeGE7ICAgICAgPHVzZSB4PSI5NS40MTAxNTYiIHhsaW5rOmhyZWY9IiNEZWphVnVTYW5zLTMwIi8+JiN4YTsgICAgIDwvZz4mI3hhOyAgICA8L2c+JiN4YTsgICAgPGcgaWQ9InBhdGNoXzE5Ij4mI3hhOyAgICAgPHBhdGggc3R5bGU9ImZpbGw6ICM0NDM5ODM7IHN0cm9rZTogIzQ0Mzk4Mzsgc3Ryb2tlLWxpbmVqb2luOiBtaXRlciIgZD0iTSAxMjUuMDYzODIgNjE5LjYxNjI0OCAmIzEwO0wgMTQ1LjA2MzgyIDYxOS42MTYyNDggJiMxMDtMIDE0NS4wNjM4MiA2MTIuNjE2MjQ4ICYjMTA7TCAxMjUuMDYzODIgNjEyLjYxNjI0OCAmIzEwO3oiLz4mI3hhOyAgICA8L2c+JiN4YTsgICAgPGcgaWQ9InRleHRfNTEiPiYjeGE7ICAgICAmI3hhOyAgICAgPGcgdHJhbnNmb3JtPSJ0cmFuc2xhdGUoMTUzLjA2MzgyIDYxOS42MTYyNDgpIHNjYWxlKDAuMSAtMC4xKSI+JiN4YTsgICAgICA8dXNlIHhsaW5rOmhyZWY9IiNEZWphVnVTYW5zLTM0Ii8+JiN4YTsgICAgICA8dXNlIHg9IjYzLjYyMzA0NyIgeGxpbms6aHJlZj0iI0RlamFWdVNhbnMtMmUiLz4mI3hhOyAgICAgIDx1c2UgeD0iOTUuNDEwMTU2IiB4bGluazpocmVmPSIjRGVqYVZ1U2Fucy0zNSIvPiYjeGE7ICAgICA8L2c+JiN4YTsgICAgPC9nPiYjeGE7ICAgIDxnIGlkPSJwYXRjaF8yMCI+JiN4YTsgICAgIDxwYXRoIHN0eWxlPSJmaWxsOiAjMzE2ODhlOyBzdHJva2U6ICMzMTY4OGU7IHN0cm9rZS1saW5lam9pbjogbWl0ZXIiIGQ9Ik0gMTI1LjA2MzgyIDYzNC4yOTQzNzMgJiMxMDtMIDE0NS4wNjM4MiA2MzQuMjk0MzczICYjMTA7TCAxNDUuMDYzODIgNjI3LjI5NDM3MyAmIzEwO0wgMTI1LjA2MzgyIDYyNy4yOTQzNzMgJiMxMDt6Ii8+JiN4YTsgICAgPC9nPiYjeGE7ICAgIDxnIGlkPSJ0ZXh0XzUyIj4mI3hhOyAgICAgJiN4YTsgICAgIDxnIHRyYW5zZm9ybT0idHJhbnNsYXRlKDE1My4wNjM4MiA2MzQuMjk0MzczKSBzY2FsZSgwLjEgLTAuMSkiPiYjeGE7ICAgICAgPHVzZSB4bGluazpocmVmPSIjRGVqYVZ1U2Fucy0zNCIvPiYjeGE7ICAgICAgPHVzZSB4PSI2My42MjMwNDciIHhsaW5rOmhyZWY9IiNEZWphVnVTYW5zLTJlIi8+JiN4YTsgICAgICA8dXNlIHg9Ijk1LjQxMDE1NiIgeGxpbms6aHJlZj0iI0RlamFWdVNhbnMtMzAiLz4mI3hhOyAgICAgPC9nPiYjeGE7ICAgIDwvZz4mI3hhOyAgICA8ZyBpZD0icGF0Y2hfMjEiPiYjeGE7ICAgICA8cGF0aCBzdHlsZT0iZmlsbDogIzIxOTE4Yzsgc3Ryb2tlOiAjMjE5MThjOyBzdHJva2UtbGluZWpvaW46IG1pdGVyIiBkPSJNIDEyNS4wNjM4MiA2NDguOTcyNDk4ICYjMTA7TCAxNDUuMDYzODIgNjQ4Ljk3MjQ5OCAmIzEwO0wgMTQ1LjA2MzgyIDY0MS45NzI0OTggJiMxMDtMIDEyNS4wNjM4MiA2NDEuOTcyNDk4ICYjMTA7eiIvPiYjeGE7ICAgIDwvZz4mI3hhOyAgICA8ZyBpZD0idGV4dF81MyI+JiN4YTsgICAgICYjeGE7ICAgICA8ZyB0cmFuc2Zvcm09InRyYW5zbGF0ZSgxNTMuMDYzODIgNjQ4Ljk3MjQ5OCkgc2NhbGUoMC4xIC0wLjEpIj4mI3hhOyAgICAgIDx1c2UgeGxpbms6aHJlZj0iI0RlamFWdVNhbnMtMzMiLz4mI3hhOyAgICAgIDx1c2UgeD0iNjMuNjIzMDQ3IiB4bGluazpocmVmPSIjRGVqYVZ1U2Fucy0yZSIvPiYjeGE7ICAgICAgPHVzZSB4PSI5NS40MTAxNTYiIHhsaW5rOmhyZWY9IiNEZWphVnVTYW5zLTM1Ii8+JiN4YTsgICAgIDwvZz4mI3hhOyAgICA8L2c+JiN4YTsgICAgPGcgaWQ9InBhdGNoXzIyIj4mI3hhOyAgICAgPHBhdGggc3R5bGU9ImZpbGw6ICMzNWI3Nzk7IHN0cm9rZTogIzM1Yjc3OTsgc3Ryb2tlLWxpbmVqb2luOiBtaXRlciIgZD0iTSAxMjUuMDYzODIgNjYzLjY1MDYyMyAmIzEwO0wgMTQ1LjA2MzgyIDY2My42NTA2MjMgJiMxMDtMIDE0NS4wNjM4MiA2NTYuNjUwNjIzICYjMTA7TCAxMjUuMDYzODIgNjU2LjY1MDYyMyAmIzEwO3oiLz4mI3hhOyAgICA8L2c+JiN4YTsgICAgPGcgaWQ9InRleHRfNTQiPiYjeGE7ICAgICAmI3hhOyAgICAgPGcgdHJhbnNmb3JtPSJ0cmFuc2xhdGUoMTUzLjA2MzgyIDY2My42NTA2MjMpIHNjYWxlKDAuMSAtMC4xKSI+JiN4YTsgICAgICA8dXNlIHhsaW5rOmhyZWY9IiNEZWphVnVTYW5zLTMzIi8+JiN4YTsgICAgICA8dXNlIHg9IjYzLjYyMzA0NyIgeGxpbms6aHJlZj0iI0RlamFWdVNhbnMtMmUiLz4mI3hhOyAgICAgIDx1c2UgeD0iOTUuNDEwMTU2IiB4bGluazpocmVmPSIjRGVqYVZ1U2Fucy0zMCIvPiYjeGE7ICAgICA8L2c+JiN4YTsgICAgPC9nPiYjeGE7ICAgIDxnIGlkPSJwYXRjaF8yMyI+JiN4YTsgICAgIDxwYXRoIHN0eWxlPSJmaWxsOiAjOTBkNzQzOyBzdHJva2U6ICM5MGQ3NDM7IHN0cm9rZS1saW5lam9pbjogbWl0ZXIiIGQ9Ik0gMTI1LjA2MzgyIDY3OC4zMjg3NDcgJiMxMDtMIDE0NS4wNjM4MiA2NzguMzI4NzQ3ICYjMTA7TCAxNDUuMDYzODIgNjcxLjMyODc0NyAmIzEwO0wgMTI1LjA2MzgyIDY3MS4zMjg3NDcgJiMxMDt6Ii8+JiN4YTsgICAgPC9nPiYjeGE7ICAgIDxnIGlkPSJ0ZXh0XzU1Ij4mI3hhOyAgICAgJiN4YTsgICAgIDxnIHRyYW5zZm9ybT0idHJhbnNsYXRlKDE1My4wNjM4MiA2NzguMzI4NzQ3KSBzY2FsZSgwLjEgLTAuMSkiPiYjeGE7ICAgICAgPHVzZSB4bGluazpocmVmPSIjRGVqYVZ1U2Fucy0zMiIvPiYjeGE7ICAgICAgPHVzZSB4PSI2My42MjMwNDciIHhsaW5rOmhyZWY9IiNEZWphVnVTYW5zLTJlIi8+JiN4YTsgICAgICA8dXNlIHg9Ijk1LjQxMDE1NiIgeGxpbms6aHJlZj0iI0RlamFWdVNhbnMtMzUiLz4mI3hhOyAgICAgPC9nPiYjeGE7ICAgIDwvZz4mI3hhOyAgICA8ZyBpZD0icGF0Y2hfMjQiPiYjeGE7ICAgICA8cGF0aCBzdHlsZT0iZmlsbDogI2ZkZTcyNTsgc3Ryb2tlOiAjZmRlNzI1OyBzdHJva2UtbGluZWpvaW46IG1pdGVyIiBkPSJNIDEyNS4wNjM4MiA2OTMuMDA2ODcyICYjMTA7TCAxNDUuMDYzODIgNjkzLjAwNjg3MiAmIzEwO0wgMTQ1LjA2MzgyIDY4Ni4wMDY4NzIgJiMxMDtMIDEyNS4wNjM4MiA2ODYuMDA2ODcyICYjMTA7eiIvPiYjeGE7ICAgIDwvZz4mI3hhOyAgICA8ZyBpZD0idGV4dF81NiI+JiN4YTsgICAgICYjeGE7ICAgICA8ZyB0cmFuc2Zvcm09InRyYW5zbGF0ZSgxNTMuMDYzODIgNjkzLjAwNjg3Mikgc2NhbGUoMC4xIC0wLjEpIj4mI3hhOyAgICAgIDx1c2UgeGxpbms6aHJlZj0iI0RlamFWdVNhbnMtMzIiLz4mI3hhOyAgICAgIDx1c2UgeD0iNjMuNjIzMDQ3IiB4bGluazpocmVmPSIjRGVqYVZ1U2Fucy0yZSIvPiYjeGE7ICAgICAgPHVzZSB4PSI5NS40MTAxNTYiIHhsaW5rOmhyZWY9IiNEZWphVnVTYW5zLTMwIi8+JiN4YTsgICAgIDwvZz4mI3hhOyAgICA8L2c+JiN4YTsgICA8L2c+JiN4YTsgIDwvZz4mI3hhOyAgPGcgaWQ9InRleHRfNTciPiYjeGE7ICAgJiN4YTsgICA8ZyB0cmFuc2Zvcm09InRyYW5zbGF0ZSgyNS43MjMyIDQzNC43KSByb3RhdGUoLTkwKSBzY2FsZSgwLjEyIC0wLjEyKSI+JiN4YTsgICAgPGRlZnM+JiN4YTsgICAgIDxwYXRoIHRyYW5zZm9ybT0ic2NhbGUoMC4wMTU2MjUpIiBkPSJNIDYyOCA0NjY2ICYjMTA7TCAxNTY5IDQ2NjYgJiMxMDtMIDI3NTkgMTQ5MSAmIzEwO0wgMzk1NiA0NjY2ICYjMTA7TCA0ODk3IDQ2NjYgJiMxMDtMIDQ4OTcgMCAmIzEwO0wgNDI4MSAwICYjMTA7TCA0MjgxIDQwOTcgJiMxMDtMIDMwNzggODk3ICYjMTA7TCAyNDQ0IDg5NyAmIzEwO0wgMTI0MSA0MDk3ICYjMTA7TCAxMjQxIDAgJiMxMDtMIDYyOCAwICYjMTA7TCA2MjggNDY2NiAmIzEwO3oiIGlkPSJEZWphVnVTYW5zLTRkIi8+JiN4YTsgICAgIDxwYXRoIHRyYW5zZm9ybT0ic2NhbGUoMC4wMTU2MjUpIiBkPSJNIDExNzIgNDQ5NCAmIzEwO0wgMTE3MiAzNTAwICYjMTA7TCAyMzU2IDM1MDAgJiMxMDtMIDIzNTYgMzA1MyAmIzEwO0wgMTE3MiAzMDUzICYjMTA7TCAxMTcyIDExNTMgJiMxMDtRIDExNzIgNzI1IDEyODkgNjAzICYjMTA7USAxNDA2IDQ4MSAxNzY2IDQ4MSAmIzEwO0wgMjM1NiA0ODEgJiMxMDtMIDIzNTYgMCAmIzEwO0wgMTc2NiAwICYjMTA7USAxMTAwIDAgODQ3IDI0OCAmIzEwO1EgNTk0IDQ5NyA1OTQgMTE1MyAmIzEwO0wgNTk0IDMwNTMgJiMxMDtMIDE3MiAzMDUzICYjMTA7TCAxNzIgMzUwMCAmIzEwO0wgNTk0IDM1MDAgJiMxMDtMIDU5NCA0NDk0ICYjMTA7TCAxMTcyIDQ0OTQgJiMxMDt6IiBpZD0iRGVqYVZ1U2Fucy03NCIvPiYjeGE7ICAgICA8cGF0aCB0cmFuc2Zvcm09InNjYWxlKDAuMDE1NjI1KSIgZD0iTSAzMTIyIDMzNjYgJiMxMDtMIDMxMjIgMjgyOCAmIzEwO1EgMjg3OCAyOTYzIDI2MzMgMzAzMCAmIzEwO1EgMjM4OCAzMDk3IDIxMzggMzA5NyAmIzEwO1EgMTU3OCAzMDk3IDEyNjggMjc0MiAmIzEwO1EgOTU5IDIzODggOTU5IDE3NDcgJiMxMDtRIDk1OSAxMTA2IDEyNjggNzUxICYjMTA7USAxNTc4IDM5NyAyMTM4IDM5NyAmIzEwO1EgMjM4OCAzOTcgMjYzMyA0NjQgJiMxMDtRIDI4NzggNTMxIDMxMjIgNjY2ICYjMTA7TCAzMTIyIDEzNCAmIzEwO1EgMjg4MSAyMiAyNjIzIC0zNCAmIzEwO1EgMjM2NiAtOTEgMjA3NSAtOTEgJiMxMDtRIDEyODQgLTkxIDgxOCA0MDYgJiMxMDtRIDM1MyA5MDMgMzUzIDE3NDcgJiMxMDtRIDM1MyAyNjAzIDgyMyAzMDkzICYjMTA7USAxMjk0IDM1ODQgMjExMyAzNTg0ICYjMTA7USAyMzc4IDM1ODQgMjYzMSAzNTI5ICYjMTA7USAyODg0IDM0NzUgMzEyMiAzMzY2ICYjMTA7eiIgaWQ9IkRlamFWdVNhbnMtNjMiLz4mI3hhOyAgICAgPHBhdGggdHJhbnNmb3JtPSJzY2FsZSgwLjAxNTYyNSkiIGQ9Ik0gNjI4IDQ2NjYgJiMxMDtMIDMzMDkgNDY2NiAmIzEwO0wgMzMwOSA0MTM0ICYjMTA7TCAxMjU5IDQxMzQgJiMxMDtMIDEyNTkgMjc1OSAmIzEwO0wgMzEwOSAyNzU5ICYjMTA7TCAzMTA5IDIyMjggJiMxMDtMIDEyNTkgMjIyOCAmIzEwO0wgMTI1OSAwICYjMTA7TCA2MjggMCAmIzEwO0wgNjI4IDQ2NjYgJiMxMDt6IiBpZD0iRGVqYVZ1U2Fucy00NiIvPiYjeGE7ICAgICA8cGF0aCB0cmFuc2Zvcm09InNjYWxlKDAuMDE1NjI1KSIgZD0iTSA2MDMgNDg2MyAmIzEwO0wgMTE3OCA0ODYzICYjMTA7TCAxMTc4IDAgJiMxMDtMIDYwMyAwICYjMTA7TCA2MDMgNDg2MyAmIzEwO3oiIGlkPSJEZWphVnVTYW5zLTZjIi8+JiN4YTsgICAgIDxwYXRoIHRyYW5zZm9ybT0ic2NhbGUoMC4wMTU2MjUpIiBkPSJNIC04NCAtMTMzMSAmIzEwO0wgODU2IDM1MDAgJiMxMDtMIDE0MzQgMzUwMCAmIzEwO0wgMTAwOSAxMzIyICYjMTA7USA5OTcgMTI1NiA5ODcgMTE3NSAmIzEwO1EgOTc4IDEwOTQgOTc4IDEwMTMgJiMxMDtRIDk3OCA3MjIgMTE2MSA1NjUgJiMxMDtRIDEzNDQgNDA5IDE2ODQgNDA5ICYjMTA7USAyMTQ3IDQwOSAyNDMxIDY3MSAmIzEwO1EgMjcxNiA5MzQgMjgxNiAxNDU5ICYjMTA7TCAzMjEzIDM1MDAgJiMxMDtMIDM3ODggMzUwMCAmIzEwO0wgMzI2NiA4MDkgJiMxMDtRIDMyNTMgNzUwIDMyNDggNzA2ICYjMTA7USAzMjQ0IDY2MyAzMjQ0IDYyOCAmIzEwO1EgMzI0NCA1MzEgMzI4MyA0ODYgJiMxMDtRIDMzMjIgNDQxIDM0MDYgNDQxICYjMTA7USAzNDM4IDQ0MSAzNDkyIDQ1NiAmIzEwO1EgMzU0NyA0NzIgMzY0NyA1MTMgJiMxMDtMIDM1NTkgNTAgJiMxMDtRIDM0MjIgLTE5IDMyOTcgLTU1ICYjMTA7USAzMTcyIC05MSAzMDUzIC05MSAmIzEwO1EgMjg0NyAtOTEgMjczMCA0MCAmIzEwO1EgMjYxMyAxNzIgMjYxMyA0MDMgJiMxMDtRIDI0MzggMTUzIDIxOTUgMzEgJiMxMDtRIDE5NTMgLTkxIDE2MjUgLTkxICYjMTA7USAxMzM0IC05MSAxMTE3IDQzICYjMTA7USA5MDAgMTc4IDgzMSAzOTcgJiMxMDtMIDQ5NCAtMTMzMSAmIzEwO0wgLTg0IC0xMzMxICYjMTA7eiIgaWQ9IkRlamFWdVNhbnMtT2JsaXF1ZS0zYmMiLz4mI3hhOyAgICAgPHBhdGggdHJhbnNmb3JtPSJzY2FsZSgwLjAxNTYyNSkiIGQ9Ik0gLTE5IDQ2NjYgJiMxMDtMIDM5MjggNDY2NiAmIzEwO0wgMzkyOCA0MTM0ICYjMTA7TCAyMjcyIDQxMzQgJiMxMDtMIDIyNzIgMCAmIzEwO0wgMTYzOCAwICYjMTA7TCAxNjM4IDQxMzQgJiMxMDtMIC0xOSA0MTM0ICYjMTA7TCAtMTkgNDY2NiAmIzEwO3oiIGlkPSJEZWphVnVTYW5zLTU0Ii8+JiN4YTsgICAgPC9kZWZzPiYjeGE7ICAgIDx1c2UgdHJhbnNmb3JtPSJ0cmFuc2xhdGUoMCAwLjAxNTYyNSkiIHhsaW5rOmhyZWY9IiNEZWphVnVTYW5zLTRkIi8+JiN4YTsgICAgPHVzZSB0cmFuc2Zvcm09InRyYW5zbGF0ZSg4Ni4yNzkyOTcgMC4wMTU2MjUpIiB4bGluazpocmVmPSIjRGVqYVZ1U2Fucy02MSIvPiYjeGE7ICAgIDx1c2UgdHJhbnNmb3JtPSJ0cmFuc2xhdGUoMTQ3LjU1ODU5NCAwLjAxNTYyNSkiIHhsaW5rOmhyZWY9IiNEZWphVnVTYW5zLTY3Ii8+JiN4YTsgICAgPHVzZSB0cmFuc2Zvcm09InRyYW5zbGF0ZSgyMTEuMDM1MTU2IDAuMDE1NjI1KSIgeGxpbms6aHJlZj0iI0RlamFWdVNhbnMtNmUiLz4mI3hhOyAgICA8dXNlIHRyYW5zZm9ybT0idHJhbnNsYXRlKDI3NC40MTQwNjIgMC4wMTU2MjUpIiB4bGluazpocmVmPSIjRGVqYVZ1U2Fucy02NSIvPiYjeGE7ICAgIDx1c2UgdHJhbnNmb3JtPSJ0cmFuc2xhdGUoMzM1LjkzNzUgMC4wMTU2MjUpIiB4bGluazpocmVmPSIjRGVqYVZ1U2Fucy03NCIvPiYjeGE7ICAgIDx1c2UgdHJhbnNmb3JtPSJ0cmFuc2xhdGUoMzc1LjE0NjQ4NCAwLjAxNTYyNSkiIHhsaW5rOmhyZWY9IiNEZWphVnVTYW5zLTY5Ii8+JiN4YTsgICAgPHVzZSB0cmFuc2Zvcm09InRyYW5zbGF0ZSg0MDIuOTI5Njg4IDAuMDE1NjI1KSIgeGxpbms6aHJlZj0iI0RlamFWdVNhbnMtNjMiLz4mI3hhOyAgICA8dXNlIHRyYW5zZm9ybT0idHJhbnNsYXRlKDQ1Ny45MTAxNTYgMC4wMTU2MjUpIiB4bGluazpocmVmPSIjRGVqYVZ1U2Fucy0yMCIvPiYjeGE7ICAgIDx1c2UgdHJhbnNmb3JtPSJ0cmFuc2xhdGUoNDg5LjY5NzI2NiAwLjAxNTYyNSkiIHhsaW5rOmhyZWY9IiNEZWphVnVTYW5zLTQ2Ii8+JiN4YTsgICAgPHVzZSB0cmFuc2Zvcm09InRyYW5zbGF0ZSg1NDcuMjE2Nzk3IDAuMDE1NjI1KSIgeGxpbms6aHJlZj0iI0RlamFWdVNhbnMtNjkiLz4mI3hhOyAgICA8dXNlIHRyYW5zZm9ybT0idHJhbnNsYXRlKDU3NSAwLjAxNTYyNSkiIHhsaW5rOmhyZWY9IiNEZWphVnVTYW5zLTY1Ii8+JiN4YTsgICAgPHVzZSB0cmFuc2Zvcm09InRyYW5zbGF0ZSg2MzYuNTIzNDM4IDAuMDE1NjI1KSIgeGxpbms6aHJlZj0iI0RlamFWdVNhbnMtNmMiLz4mI3hhOyAgICA8dXNlIHRyYW5zZm9ybT0idHJhbnNsYXRlKDY2NC4zMDY2NDEgMC4wMTU2MjUpIiB4bGluazpocmVmPSIjRGVqYVZ1U2Fucy02NCIvPiYjeGE7ICAgIDx1c2UgdHJhbnNmb3JtPSJ0cmFuc2xhdGUoNzI3Ljc4MzIwMyAwLjAxNTYyNSkiIHhsaW5rOmhyZWY9IiNEZWphVnVTYW5zLTIwIi8+JiN4YTsgICAgPHVzZSB0cmFuc2Zvcm09InRyYW5zbGF0ZSg3NTkuNTcwMzEyIDAuMDE1NjI1KSIgeGxpbms6aHJlZj0iI0RlamFWdVNhbnMtNWIiLz4mI3hhOyAgICA8dXNlIHRyYW5zZm9ybT0idHJhbnNsYXRlKDc5OC41ODM5ODQgMC4wMTU2MjUpIiB4bGluazpocmVmPSIjRGVqYVZ1U2Fucy1PYmxpcXVlLTNiYyIvPiYjeGE7ICAgIDx1c2UgdHJhbnNmb3JtPSJ0cmFuc2xhdGUoODYyLjIwNzAzMSAwLjAxNTYyNSkiIHhsaW5rOmhyZWY9IiNEZWphVnVTYW5zLTU0Ii8+JiN4YTsgICAgPHVzZSB0cmFuc2Zvcm09InRyYW5zbGF0ZSg5MjMuMjkxMDE2IDAuMDE1NjI1KSIgeGxpbms6aHJlZj0iI0RlamFWdVNhbnMtNWQiLz4mI3hhOyAgIDwvZz4mI3hhOyAgPC9nPiYjeGE7ICA8ZyBpZD0idGV4dF81OCI+JiN4YTsgICAmI3hhOyAgIDxnIHRyYW5zZm9ybT0idHJhbnNsYXRlKDM1MC4yNTU2MjUgNzQzLjgwNTk3NSkgc2NhbGUoMC4xMiAtMC4xMikiPiYjeGE7ICAgIDxkZWZzPiYjeGE7ICAgICA8cGF0aCB0cmFuc2Zvcm09InNjYWxlKDAuMDE1NjI1KSIgZD0iTSAyMTg4IDQwNDQgJiMxMDtMIDEzMzEgMTcyMiAmIzEwO0wgMzA0NyAxNzIyICYjMTA7TCAyMTg4IDQwNDQgJiMxMDt6JiMxMDtNIDE4MzEgNDY2NiAmIzEwO0wgMjU0NyA0NjY2ICYjMTA7TCA0MzI1IDAgJiMxMDtMIDM2NjkgMCAmIzEwO0wgMzI0NCAxMTk3ICYjMTA7TCAxMTQxIDExOTcgJiMxMDtMIDcxNiAwICYjMTA7TCA1MCAwICYjMTA7TCAxODMxIDQ2NjYgJiMxMDt6IiBpZD0iRGVqYVZ1U2Fucy00MSIvPiYjeGE7ICAgICA8cGF0aCB0cmFuc2Zvcm09InNjYWxlKDAuMDE1NjI1KSIgZD0iTSAyNjMxIDI5NjMgJiMxMDtRIDI1MzQgMzAxOSAyNDIwIDMwNDUgJiMxMDtRIDIzMDYgMzA3MiAyMTY5IDMwNzIgJiMxMDtRIDE2ODEgMzA3MiAxNDIwIDI3NTUgJiMxMDtRIDExNTkgMjQzOCAxMTU5IDE4NDQgJiMxMDtMIDExNTkgMCAmIzEwO0wgNTgxIDAgJiMxMDtMIDU4MSAzNTAwICYjMTA7TCAxMTU5IDM1MDAgJiMxMDtMIDExNTkgMjk1NiAmIzEwO1EgMTM0MSAzMjc1IDE2MzEgMzQyOSAmIzEwO1EgMTkyMiAzNTg0IDIzMzggMzU4NCAmIzEwO1EgMjM5NyAzNTg0IDI0NjkgMzU3NiAmIzEwO1EgMjU0MSAzNTY5IDI2MjggMzU1MyAmIzEwO0wgMjYzMSAyOTYzICYjMTA7eiIgaWQ9IkRlamFWdVNhbnMtNzIiLz4mI3hhOyAgICAgPHBhdGggdHJhbnNmb3JtPSJzY2FsZSgwLjAxNTYyNSkiIGQ9Ik0gMTI1OSA0MTQ3ICYjMTA7TCAxMjU5IDIzOTQgJiMxMDtMIDIwNTMgMjM5NCAmIzEwO1EgMjQ5NCAyMzk0IDI3MzQgMjYyMiAmIzEwO1EgMjk3NSAyODUwIDI5NzUgMzI3MiAmIzEwO1EgMjk3NSAzNjkxIDI3MzQgMzkxOSAmIzEwO1EgMjQ5NCA0MTQ3IDIwNTMgNDE0NyAmIzEwO0wgMTI1OSA0MTQ3ICYjMTA7eiYjMTA7TSA2MjggNDY2NiAmIzEwO0wgMjA1MyA0NjY2ICYjMTA7USAyODM4IDQ2NjYgMzIzOSA0MzExICYjMTA7USAzNjQxIDM5NTYgMzY0MSAzMjcyICYjMTA7USAzNjQxIDI1ODEgMzIzOSAyMjI4ICYjMTA7USAyODM4IDE4NzUgMjA1MyAxODc1ICYjMTA7TCAxMjU5IDE4NzUgJiMxMDtMIDEyNTkgMCAmIzEwO0wgNjI4IDAgJiMxMDtMIDYyOCA0NjY2ICYjMTA7eiIgaWQ9IkRlamFWdVNhbnMtNTAiLz4mI3hhOyAgICAgPHBhdGggdHJhbnNmb3JtPSJzY2FsZSgwLjAxNTYyNSkiIGQ9Ik0gMTk1OSAzMDk3ICYjMTA7USAxNDk3IDMwOTcgMTIyOCAyNzM2ICYjMTA7USA5NTkgMjM3NSA5NTkgMTc0NyAmIzEwO1EgOTU5IDExMTkgMTIyNiA3NTggJiMxMDtRIDE0OTQgMzk3IDE5NTkgMzk3ICYjMTA7USAyNDE5IDM5NyAyNjg3IDc1OSAmIzEwO1EgMjk1NiAxMTIyIDI5NTYgMTc0NyAmIzEwO1EgMjk1NiAyMzY5IDI2ODcgMjczMyAmIzEwO1EgMjQxOSAzMDk3IDE5NTkgMzA5NyAmIzEwO3omIzEwO00gMTk1OSAzNTg0ICYjMTA7USAyNzA5IDM1ODQgMzEzNyAzMDk2ICYjMTA7USAzNTY2IDI2MDkgMzU2NiAxNzQ3ICYjMTA7USAzNTY2IDg4OCAzMTM3IDM5OCAmIzEwO1EgMjcwOSAtOTEgMTk1OSAtOTEgJiMxMDtRIDEyMDYgLTkxIDc3OSAzOTggJiMxMDtRIDM1MyA4ODggMzUzIDE3NDcgJiMxMDtRIDM1MyAyNjA5IDc3OSAzMDk2ICYjMTA7USAxMjA2IDM1ODQgMTk1OSAzNTg0ICYjMTA7eiIgaWQ9IkRlamFWdVNhbnMtNmYiLz4mI3hhOyAgICA8L2RlZnM+JiN4YTsgICAgPHVzZSB4bGluazpocmVmPSIjRGVqYVZ1U2Fucy00MSIvPiYjeGE7ICAgIDx1c2UgeD0iNjguNDA4MjAzIiB4bGluazpocmVmPSIjRGVqYVZ1U2Fucy02ZSIvPiYjeGE7ICAgIDx1c2UgeD0iMTMxLjc4NzEwOSIgeGxpbms6aHJlZj0iI0RlamFWdVNhbnMtNjciLz4mI3hhOyAgICA8dXNlIHg9IjE5NS4yNjM2NzIiIHhsaW5rOmhyZWY9IiNEZWphVnVTYW5zLTc1Ii8+JiN4YTsgICAgPHVzZSB4PSIyNTguNjQyNTc4IiB4bGluazpocmVmPSIjRGVqYVZ1U2Fucy02YyIvPiYjeGE7ICAgIDx1c2UgeD0iMjg2LjQyNTc4MSIgeGxpbms6aHJlZj0iI0RlamFWdVNhbnMtNjEiLz4mI3hhOyAgICA8dXNlIHg9IjM0Ny43MDUwNzgiIHhsaW5rOmhyZWY9IiNEZWphVnVTYW5zLTcyIi8+JiN4YTsgICAgPHVzZSB4PSIzODguODE4MzU5IiB4bGluazpocmVmPSIjRGVqYVZ1U2Fucy0yMCIvPiYjeGE7ICAgIDx1c2UgeD0iNDIwLjYwNTQ2OSIgeGxpbms6aHJlZj0iI0RlamFWdVNhbnMtNTAiLz4mI3hhOyAgICA8dXNlIHg9IjQ3Ny4yODMyMDMiIHhsaW5rOmhyZWY9IiNEZWphVnVTYW5zLTZmIi8+JiN4YTsgICAgPHVzZSB4PSI1MzguNDY0ODQ0IiB4bGluazpocmVmPSIjRGVqYVZ1U2Fucy03MyIvPiYjeGE7ICAgIDx1c2UgeD0iNTkwLjU2NDQ1MyIgeGxpbms6aHJlZj0iI0RlamFWdVNhbnMtNjkiLz4mI3hhOyAgICA8dXNlIHg9IjYxOC4zNDc2NTYiIHhsaW5rOmhyZWY9IiNEZWphVnVTYW5zLTc0Ii8+JiN4YTsgICAgPHVzZSB4PSI2NTcuNTU2NjQxIiB4bGluazpocmVmPSIjRGVqYVZ1U2Fucy02ZiIvPiYjeGE7ICAgIDx1c2UgeD0iNzE4LjczODI4MSIgeGxpbms6aHJlZj0iI0RlamFWdVNhbnMtNmUiLz4mI3hhOyAgICA8dXNlIHg9Ijc4Mi4xMTcxODgiIHhsaW5rOmhyZWY9IiNEZWphVnVTYW5zLTIwIi8+JiN4YTsgICAgPHVzZSB4PSI4MTMuOTA0Mjk3IiB4bGluazpocmVmPSIjRGVqYVZ1U2Fucy01YiIvPiYjeGE7ICAgIDx1c2UgeD0iODUyLjkxNzk2OSIgeGxpbms6aHJlZj0iI0RlamFWdVNhbnMtNjQiLz4mI3hhOyAgICA8dXNlIHg9IjkxNi4zOTQ1MzEiIHhsaW5rOmhyZWY9IiNEZWphVnVTYW5zLTY1Ii8+JiN4YTsgICAgPHVzZSB4PSI5NzcuOTE3OTY5IiB4bGluazpocmVmPSIjRGVqYVZ1U2Fucy02NyIvPiYjeGE7ICAgIDx1c2UgeD0iMTA0MS4zOTQ1MzEiIHhsaW5rOmhyZWY9IiNEZWphVnVTYW5zLTVkIi8+JiN4YTsgICA8L2c+JiN4YTsgIDwvZz4mI3hhOyA8L2c+JiN4YTsgPGRlZnM+JiN4YTsgIDxjbGlwUGF0aCBpZD0icGQ1NjM4ZjlkMTMiPiYjeGE7ICAgPHJlY3QgaGVpZ2h0PSIxOTUuOTg5NjciIHdpZHRoPSI3MzQuNjkxNiIgeT0iMjcuMTM4MjQiIHg9Ijg0LjY3NjMyIi8+JiN4YTsgIDwvY2xpcFBhdGg+JiN4YTsgIDxjbGlwUGF0aCBpZD0icDNmNjVhYmQyODMiPiYjeGE7ICAgPHJlY3QgaGVpZ2h0PSIxOTUuOTg5NjciIHdpZHRoPSI3MzQuNjkxNiIgeT0iMjY3LjYxNzU2NSIgeD0iODQuNjc2MzIiLz4mI3hhOyAgPC9jbGlwUGF0aD4mI3hhOyAgPGNsaXBQYXRoIGlkPSJwYTZiYTZiMzAzMyI+JiN4YTsgICA8cmVjdCBoZWlnaHQ9IjE5NS45ODk2NyIgd2lkdGg9IjczNC42OTE2IiB5PSI1MDguMDk2ODkiIHg9Ijg0LjY3NjMyIi8+JiN4YTsgIDwvY2xpcFBhdGg+JiN4YTsgPC9kZWZzPiYjeGE7PC9zdmc+;" vertex="1" parent="1">
          <mxGeometry x="120" y="80" width="583.42" height="530" as="geometry" />
        </mxCell>
      </root>
    </mxGraphModel>
  </diagram>
</mxfile>
